<?xml version="1.0" encoding="UTF-8" ?>
<svg height="237pt" viewBox="0 0 1024 1024" width="237pt" xmlns="http://www.w3.org/2000/svg">
   <path d="m129.76 51.75c10.5-7.87 24.27-10.41 37.1-8.51 12.41 1.66 24.08 6.72 34.83 12.97 63.77 36.25 127.55 72.48 191.32 108.73 2.96 1.76 6.1 3.25 8.88 5.29-3.17.09-6.34.27-9.5.15-31.14-18.24-62.76-35.65-94.07-53.6-33.42-18.88-66.74-37.95-100.18-56.81-12.63-6.82-26.67-11.81-41.19-11.6-11.85.38-23.9 4.72-32.12 13.5-6.41 5.76-10.33 13.65-13.2 21.65-.41 1.49-1.45 2.61-2.74 3.41 2.76-13.57 9.48-26.9 20.87-35.18z" fill="#624ba5"/>
   <path d="m124.83 61.87c8.22-8.78 20.27-13.12 32.12-13.5 14.52-.21 28.56 4.78 41.19 11.6 33.44 18.86 66.76 37.93 100.18 56.81 31.31 17.95 62.93 35.36 94.07 53.6-52.69.1-105.38-.19-158.06.14.1 42.73-.16 85.46.14 128.19.31 146.1.02 292.2.2 438.31.12 16.45 14.84 31.03 31.31 30.96 83.69-.03 167.38-.09 251.07-.16 11.91.21 23.86-.47 35.74.34-111.13 63.46-222.51 126.5-333.75 189.8-10.33 5.66-20.27 12.11-31.1 16.81-13.77 5.83-29.55 8.9-44.17 4.46-13.18-3.79-23.95-13.98-29.61-26.34-5.73-12.08-7.5-25.63-7.49-38.89-.01-267.68-.01-535.36-.03-803.04.12-8.04.28-16.18 2.25-24.03 1.29-.8 2.33-1.92 2.74-3.41 2.87-8 6.79-15.89 13.2-21.65z" fill="#422593"/>
   <path d="m234.33 170.52c52.68-.33 105.37-.04 158.06-.14 3.16.12 6.33-.06 9.5-.15 18.71.5 37.44.08 56.15.22 115.32 0 230.64 0 345.96 0 16.53.09 33.07-.18 49.59.14-.02 1.79-.02 3.59-.02 5.39-105.87.04-211.75.02-317.62.02-100.35-.07-200.7.13-301.05-.1-.19-1.8-.39-3.59-.57-5.38z" fill="#aa31dc"/>
   <path d="m234.47 298.71c-.3-42.73-.04-85.46-.14-128.19.18 1.79.38 3.58.57 5.38 100.35.23 200.7.03 301.05.1 105.87 0 211.75.02 317.62-.02-.09 40.91.16 81.83-.12 122.73-105.82-.15-211.64-.01-317.46-.06-100.51.03-201.02-.07-301.52.06z" fill="#9c0ed6"/>
   <path d="m234.47 298.71c100.5-.13 201.01-.03 301.52-.06 105.82.05 211.64-.09 317.46.06-.19 42.57-.2 85.14.01 127.7-.23 57.05-.15 114.09-.11 171.14-100.1 56.9-200.15 113.9-300.34 170.63l-.22-.02c-11.88-.81-23.83-.13-35.74-.34-83.69.07-167.38.13-251.07.16-16.47.07-31.19-14.51-31.31-30.96-.18-146.11.11-292.21-.2-438.31m96.21 63.96c0 49.77-.01 99.55 0 149.32 39.11.02 78.21 0 117.32.01 0-49.78.01-99.55-.01-149.32-39.1-.01-78.21 0-117.31-.01m181.31.01c.01 14.21 0 28.42.02 42.64 81.75-.12 163.5.09 245.25-.11.02-14.16.09-28.32 0-42.48-81.75-.13-163.51-.02-245.27-.05m.06 106.61c-.14 14.23-.01 28.47-.05 42.71 81.73.03 163.46-.05 245.19.03.18-14.22.02-28.44.12-42.67-81.75-.11-163.5.04-245.26-.07z" fill="#c93bdc"/>
   <path d="m330.68 362.67c39.1.01 78.21 0 117.31.01.02 49.77.01 99.54.01 149.32-39.11-.01-78.21.01-117.32-.01-.01-49.77 0-99.55 0-149.32z" fill="#fafafa"/>
   <path d="m511.99 362.68c81.76.03 163.52-.08 245.27.05.09 14.16.02 28.32 0 42.48-81.75.2-163.5-.01-245.25.11-.02-14.22-.01-28.43-.02-42.64z" fill="#fafafa"/>
   <path d="m512.05 469.29c81.76.11 163.51-.04 245.26.07-.1 14.23.06 28.45-.12 42.67-81.73-.08-163.46 0-245.19-.03.04-14.24-.09-28.48.05-42.71z" fill="#fafafa"/>
   <path d="m853.46 426.41l.06.5c.54 2.11-.3 5.27 2.15 6.36 11.91 6.75 23.87 13.42 35.74 20.25 12.91 7.56 26.7 14 37.83 24.19 8.15 7.36 14.96 16.55 18.2 27.13.22-.43.66-1.29.89-1.71 2.28 11.06-.05 22.82-5.83 32.46-7.27 12.43-18.89 21.62-31.12 28.86-19.29 11.12-38.75 21.95-58.03 33.1-.04-57.05-.12-114.09.11-171.14z" fill="#492d97"/>
   <path d="m853.52 426.91c13.37 7 26.3 14.85 39.5 22.19 13.04 7.64 27.03 14.23 37.92 24.96 8.38 7.77 14.91 17.82 17.39 29.07-.23.42-.67 1.28-.89 1.71-3.24-10.58-10.05-19.77-18.2-27.13-11.13-10.19-24.92-16.63-37.83-24.19-11.87-6.83-23.83-13.5-35.74-20.25-2.45-1.09-1.61-4.25-2.15-6.36z" fill="#5b43a1"/>
</svg>
