<?xml version="1.0" encoding="UTF-8" standalone="no"?>
<svg xmlns="http://www.w3.org/2000/svg" xmlns:xlink="http://www.w3.org/1999/xlink" width="256" height="256" version="1.0">
  <defs>
    <linearGradient id="a">
      <stop offset="0" stop-color="#fff"/>
      <stop offset="1" stop-color="#fff" stop-opacity="0"/>
    </linearGradient>
    <linearGradient xlink:href="#a" id="b" x1="-337.32135" x2="-395.84943" y1="260.19385" y2="425.39993" gradientTransform="matrix(-.59146 0 0 .59146 206.56585 140.26032)" gradientUnits="userSpaceOnUse"/>
  </defs>
  <g transform="translate(-373.642 -318.344)">
    <rect width="235.00784" height="234.98955" x="-619.14587" y="328.84921" fill="#194fc8" fill-rule="evenodd" rx="35.487503" ry="35.487503" transform="scale(-1 1)"/>
    <path fill="#fff" stroke="#000" stroke-width="2" d="M479.20294 508.17901c18.31758 11.2332-14.135414 31.94117-24.748735 40.65864 43.979405 2.31361 76.492685-22.56 79.296975-39.64849l-54.54824-1.01015z"/>
    <path fill="#fff" stroke="#000" stroke-width="2" d="M596.143634 441.69712c0 41.284-41.49492 74.75129-92.6815 74.75129-51.18657 0-92.68149-33.46729-92.68149-74.75129 0-41.283995 41.49492-74.751287 92.68149-74.751287 51.18658 0 92.6815 33.467292 92.6815 74.751287z"/>
    <path fill="#fff" d="m484.892 511.844 1.56655 8.03571 43.26096-3.57143 4.70153-7.41071L484.892 511.844z"/>
    <path fill="#ccc" fill-opacity=".92028987" d="M513.09745 374.85838c56.83853 16.75038 89.25268 67.70759 30.77041 126.21954 4.84187-1.7709 37.77959-18.31951 43.29563-43.68947 9.03075-42.20343-24.2811-79.56993-74.06604-82.53007z"/>
    <path fill="url(#b)" fill-rule="evenodd" d="M553.6009 336.9231H442.77146c-29.33688 0-52.95465 23.80974-52.95465 53.38507v108.12736c.9496 23.08605 4.60229 8.49154 11.55502-17.07471 8.08056-29.71315 34.39648-55.68287 66.44461-75.1457 24.46133-14.85525 51.84109-24.34125 101.67955-25.24367 28.26482-.51176 25.7695-36.68291-15.89509-44.04835z"/>
  </g>
</svg>