<?xml version="1.0" encoding="UTF-8"?>
<!DOCTYPE svg PUBLIC "-//W3C//DTD SVG 1.1//EN" "http://www.w3.org/Graphics/SVG/1.1/DTD/svg11.dtd">
<!-- Creator: CorelDRAW X7 -->
<svg xmlns="http://www.w3.org/2000/svg" xml:space="preserve" width="284px" height="60px" version="1.1" style="shape-rendering:geometricPrecision; text-rendering:geometricPrecision; image-rendering:optimizeQuality; fill-rule:evenodd; clip-rule:evenodd"
viewBox="0 0 284 60"
 xmlns:xlink="http://www.w3.org/1999/xlink">
 <defs>
  <style type="text/css">
   <![CDATA[
    .fil0 {fill:#00B0ED}
   ]]>
  </style>
 </defs>
 <g id="Layer_x0020_1">
  <metadata id="CorelCorpID_0Corel-Layer"/>
  <g id="__x0023_00b0edff">
   <path class="fil0" d="M21 11c8,-7 20,-6 27,2 7,7 8,19 1,27 -5,5 -10,10 -15,15 -3,-2 -8,-6 -6,-10 4,-5 9,-9 13,-14 3,-4 1,-12 -5,-13 -6,-2 -12,3 -11,9 0,5 4,8 7,11 -3,3 -7,5 -7,9 -3,-4 -8,-7 -10,-12 -4,-8 -1,-19 6,-24z"/>
   <g>
    <path class="fil0" d="M85 11c1,-3 4,-2 6,-2 0,12 0,25 0,37 -2,0 -4,0 -6,0 0,-1 0,-2 0,-3 -5,4 -12,4 -17,0 -6,-5 -6,-15 -1,-20 4,-5 13,-6 18,-2 0,-4 0,-7 0,-10l0 0zm-9 13c-5,1 -9,8 -5,13 3,5 11,4 13,-1 3,-5 -2,-12 -8,-12z"/>
   </g>
   <path class="fil0" d="M96 19c2,0 4,0 6,0 0,0 0,2 0,2 2,-3 6,-3 10,-2 -1,2 -2,3 -2,5 -4,-1 -8,1 -8,4 0,5 0,10 0,15 -1,3 -4,3 -6,3 0,-9 0,-18 0,-27z"/>
   <g>
    <path class="fil0" d="M121 19c10,-4 20,6 18,16 -2,10 -16,15 -23,8 -8,-7 -5,-22 5,-24l0 0zm3 5c-4,1 -6,4 -7,7 -1,5 3,9 8,9 4,0 8,-3 8,-7 0,-5 -5,-10 -9,-9z"/>
   </g>
   <g>
    <path class="fil0" d="M143 19c2,0 4,0 6,0 0,0 0,2 0,2 5,-4 14,-3 18,2 5,5 5,14 -1,19 -4,5 -12,5 -17,2 0,3 0,6 0,9 -1,3 -4,3 -6,3 0,-13 0,-25 0,-37l0 0zm13 5c-6,1 -9,8 -6,12 3,5 11,5 13,0 4,-5 -1,-12 -7,-12z"/>
   </g>
   <path class="fil0" d="M181 20c5,-3 12,-2 16,2 -1,1 -2,3 -4,4 -4,-3 -10,-2 -12,3 -2,5 2,11 7,11 2,0 4,-1 6,-1 2,1 3,2 4,4 -7,6 -19,4 -22,-5 -4,-6 -1,-14 5,-18z"/>
   <g>
    <path class="fil0" d="M198 37c-3,-9 4,-19 13,-19 7,0 14,6 15,13 0,5 0,10 0,15 -3,0 -5,0 -7,-2 -7,5 -18,1 -21,-7l0 0zm13 -13c-6,1 -9,8 -6,13 4,5 12,4 14,-1 2,-6 -2,-12 -8,-12z"/>
   </g>
   <path class="fil0" d="M230 19c2,0 4,0 6,0 0,0 0,2 0,2 3,-4 10,-3 14,1 5,-6 15,-4 17,3 1,6 0,13 0,19 0,2 -3,2 -6,2 0,-6 1,-12 0,-18 -1,-5 -8,-5 -9,0 0,6 0,12 0,18 -2,0 -4,0 -6,0 0,-6 0,-13 -1,-19 -1,-4 -8,-3 -8,1 -1,6 -1,12 -1,18 -2,0 -4,0 -6,0 0,-9 0,-18 0,-27z"/>
  </g>
 </g>
</svg>
