<?xml version="1.0" encoding="utf-8"?><!DOCTYPE svg PUBLIC "-//W3C//DTD SVG 1.1//EN" "http://www.w3.org/Graphics/SVG/1.1/DTD/svg11.dtd"><svg xmlns="http://www.w3.org/2000/svg" xml:space="preserve" width="1190.549px" height="841.891px" x="0px" y="0px" version="1.1" viewBox="0 0 1190.549 841.891"><path fill="#949A9F" fill-rule="evenodd" d="m267.682 703.17-27.24 88.561-27.56-88.561h-24.15l-27.25 88.561-27.56-88.561h-33.13l47.69 135h25.69l26.63-84.84 26.94 84.84h25.39l47.68-135h-33.13zm148.32 38.71 16.101 55.42h-32.821l16.72-55.42zm29.101 96.29h34.369l-48.92-135h-28.8l-48.3 135h33.13l5.27-16.41h47.99l5.261 16.41zm214.269-135h-36.23l-28.789 53.26-28.801-53.26h-36.54l49.54 87.01v47.99h31.59v-47.99l49.23-87.01zm212.41 135v-135h-35.301l-35.609 94.13-36.23-94.13h-35.91v135h30.34v-83.6l30.031 83.6h23.229l29.101-83.6v83.6h30.349zm186.39-67.5c0 22.301-15.17 43.04-39.63 42.73-24.77 0-39.63-20.74-39.63-42.73 0-21.98 14.86-42.72 39.63-42.72 24.46 0 39.63 20.43 39.63 42.72zm-111.149 0c0 37.16 26.619 71.221 71.52 70.91 44.59 0 71.22-34.061 71.22-70.91 0-36.84-26.319-70.9-71.22-70.9s-71.52 33.75-71.52 70.9z" clip-rule="evenodd"/><path fill="#0078FF" fill-rule="evenodd" d="m670.358 131.67-151.89-87.42-202.94 352.619 151.89 87.42 202.94-352.619zm50.719 264.939 151.89 87.411 202.94-352.62-151.89-87.41-202.94 352.619z" clip-rule="evenodd"/><path fill="#00E89D" fill-rule="evenodd" d="M1087.587 87.869c0-48.31-39.01-87.63-87.63-87.63-48.3 0-87.62 39.32-87.62 87.63 0 48.3 39.32 87.62 87.62 87.62 48.311 0 87.63-39.32 87.63-87.62zm-696.05 440.289c14.86 0 29.72-3.709 43.649-11.76 41.811-24.15 56.36-77.721 32.211-119.83L264.587 44.209c-24.149-42.11-77.72-56.36-119.83-32.2-42.109 24.15-56.35 77.71-32.199 119.51L315.368 484.2c16.41 28.169 45.819 43.958 76.169 43.958zm405.61 0c14.871 0 30.041-3.709 43.66-11.76 41.801-24.15 56.36-77.721 32.2-119.83l-202.8-352.669c-24.16-41.8-77.72-56.35-119.83-32.2-41.8 24.15-56.36 77.71-32.2 119.82L720.988 484.2c16.409 28.169 45.819 43.958 76.159 43.958z" clip-rule="evenodd"/></svg>