<?xml version="1.0" encoding="UTF-8" standalone="no"?>
<svg
   xmlns:svg="http://www.w3.org/2000/svg"
   xmlns="http://www.w3.org/2000/svg"
   xmlns:xlink="http://www.w3.org/1999/xlink"
   version="1.1"
   width="303.70099"
   height="166.89999"
   viewBox="0 0 303.701 166.9"
   id="VARG">
  <path
     d="m 42.759,69.892 -0.298,-6.296 c -0.699,0.896 -5.9,7.697 -17.585,7.697 -9.691,0 -22.482,-6.297 -22.482,-25.584 0,-12.384 7.993,-25.273 23.781,-25.273 10.193,0 14.788,5.894 15.689,6.989 V 2.142 h 11.987 v 67.75 H 42.759 z M 28.375,30.222 c -8.101,0 -13.588,6.398 -13.588,15.486 0,10.193 5.595,15.696 13.486,15.696 7.589,0 13.791,-5.7 13.791,-15.696 -10e-4,-9.593 -5.9,-15.486 -13.689,-15.486"
     id="path2970"
     style="fill:#17140f" />
  <path
     d="m 154.866,69.892 -0.295,-6.201 c -0.302,0.505 -4.998,7.602 -15.693,7.602 -5.693,0 -9.891,-1.702 -12.886,-4.595 -4.5,-4.5 -5.096,-9.99 -5.096,-16.588 V 22.131 h 11.987 v 27.077 c 0,3.801 0.194,6.891 2.496,9.094 1.702,1.702 4.096,2.597 7.3,2.597 2.496,0 5.69,-0.896 7.891,-3.102 2.601,-2.594 3.096,-5.992 3.293,-10.184 0.111,-1.804 0.111,-3.601 0.111,-5.503 V 22.131 h 11.99 v 47.761 h -11.098 z"
     id="path2972"
     style="fill:#17140f" />
  <path
     d="m 203.523,71.292 c -10.895,0 -15.684,-6.398 -16.188,-7.097 l -0.295,5.696 H 175.948 V 2.142 h 11.99 V 28.03 c 0.604,-0.8 5.896,-7.595 17.08,-7.595 9.897,0 22.387,6.795 22.387,25.578 0,12.692 -8.291,25.279 -23.882,25.279 m -1.994,-40.861 c -7.694,0 -13.788,5.887 -13.788,15.674 0,9.5 5.891,15.394 13.689,15.394 7.989,0 13.584,-6.198 13.584,-15.394 0,-9.99 -5.496,-15.674 -13.485,-15.674"
     id="path2974"
     style="fill:#17140f" />
  <rect
     width="12.003"
     height="67.75"
     x="234.54401"
     y="2.142"
     id="rect2976"
     style="fill:#17140f" />
  <path
     d="m 266.422,49.712 c 0,5.293 3.902,12.184 13.388,12.184 8.297,0 13.092,-4.798 14.489,-6.291 l 6.696,6.195 c -3.2,3.699 -9.891,9.587 -21.579,9.587 -17.191,0 -25.286,-11.788 -25.286,-25.283 0,-13.28 8.396,-25.67 25.076,-25.67 4.303,0 10.803,0.896 15.991,6.093 6.396,6.398 7.195,14.579 7.195,23.184 h -35.97 z m 12.49,-20.189 c -9.491,0 -12.286,8.799 -12.286,11.584 h 23.98 c 0,-3.388 -2.499,-11.584 -11.694,-11.584"
     id="path2978"
     style="fill:#17140f" />
  <path
     d="m 28.174,165.7 c -16.785,0 -25.781,-11.511 -25.781,-25.495 0,-13.086 8.491,-25.47 26.077,-25.47 14.194,0 20.288,8.789 20.786,9.59 l -7.291,6.389 c -0.81,-0.701 -5.201,-6.094 -13.092,-6.094 -9.492,0 -14.086,7.596 -14.086,15.684 0,8.101 4.493,15.505 13.889,15.505 8.189,0 12.587,-5.207 13.584,-6.407 2.4,2.104 4.789,4.186 7.199,6.192 -0.403,0.701 -6.602,10.106 -21.285,10.106"
     id="path2980"
     style="fill:#17140f" />
  <rect
     width="11.99"
     height="66.396004"
     x="57.044998"
     y="97.795998"
     id="rect2982"
     style="fill:#17140f" />
  <rect
     width="11.99"
     height="47.764999"
     x="79.375999"
     y="116.428"
     id="rect2984"
     style="fill:#17140f" />
  <use
     transform="translate(96.917,0)"
     id="use3819"
     xlink:href="#path2980" />
  <path
     d="M 185.593,164.192 165.508,141.91 v 22.282 h -11.99 V 97.796 h 11.99 v 38.913 c 6.69,-6.795 13.394,-13.578 20.085,-20.281 h 14.581 c -7.694,7.503 -15.376,14.988 -22.978,22.584 l 23.482,25.181 h -15.085 z"
     id="path2988"
     style="fill:#17140f" />
  <path
     d="m 87.673,45.911 c 9.707,0 18.176,5.275 22.709,13.117 2.237,-3.859 3.521,-8.334 3.521,-13.117 0,-14.483 -11.747,-26.233 -26.23,-26.233 -14.493,0 -26.228,11.75 -26.228,26.233 0,4.783 1.28,9.257 3.518,13.117 4.537,-7.842 13.003,-13.117 22.71,-13.117"
     id="path2990"
     style="fill:#bfd531" />
  <path
     d="m 87.673,72.145 c -9.707,0 -18.173,-5.275 -22.709,-13.117 -2.238,3.856 -3.518,8.331 -3.518,13.117 0,14.486 11.735,26.225 26.228,26.225 14.483,0 26.23,-11.738 26.23,-26.225 0,-4.786 -1.283,-9.26 -3.521,-13.117 -4.533,7.842 -13.003,13.117 -22.71,13.117"
     id="path2992"
     style="fill:#4aa948" />
  <path
     d="m 87.673,72.145 c 9.707,0 18.176,-5.275 22.709,-13.117 -4.533,-7.842 -13.003,-13.117 -22.709,-13.117 -9.707,0 -18.173,5.275 -22.709,13.117 4.536,7.842 13.002,13.117 22.709,13.117"
     id="path2994"
     style="fill:#00703c" />
</svg>