<?xml version="1.0" encoding="utf-8"?>
<!-- Generator: Adobe Illustrator 15.0.0, SVG Export Plug-In . SVG Version: 6.00 Build 0)  -->
<!DOCTYPE svg PUBLIC "-//W3C//DTD SVG 1.1//EN" "http://www.w3.org/Graphics/SVG/1.1/DTD/svg11.dtd">
<svg version="1.1" id="Layer_1" xmlns="http://www.w3.org/2000/svg" xmlns:xlink="http://www.w3.org/1999/xlink" x="0px" y="0px"
	 width="142px" height="41px" viewBox="0 0 142 41" enable-background="new 0 0 142 41" xml:space="preserve">
<g>
	<g>
		<path fill="#359F47" d="M43.989,0h1.465v18.037h-1.465v-1.519c-0.81,1.099-2.378,1.832-3.737,1.832c-3.112,0-5.07-2.222-5.07-6.64
			s2.012-6.614,5.07-6.614c1.41,0,2.822,0.602,3.737,1.594V0z M43.989,8.495c-0.626-1.202-2.038-2.038-3.607-2.038
			c-2.195,0-3.711,1.646-3.711,5.254c0,3.764,1.411,5.28,3.686,5.28c1.49,0,3.007-1.099,3.633-2.3V8.495z"/>
		<path fill="#359F47" d="M52.456,5.097c3.556,0,5.542,2.641,5.542,6.641c0,3.946-1.96,6.613-5.516,6.613s-5.515-2.693-5.515-6.665
			C46.967,7.712,48.901,5.097,52.456,5.097z M56.534,11.711c0-3.061-1.543-5.254-4.078-5.254c-2.536,0-4.026,2.142-4.026,5.229
			c0,3.082,1.542,5.306,4.079,5.306C55.043,16.991,56.534,14.794,56.534,11.711z"/>
		<path fill="#359F47" d="M63.744,18.351c-2.744,0-4.233-1.256-4.233-3.896V5.413h1.463v8.832c0,1.987,1.02,2.746,2.98,2.746
			c1.594,0,3.11-1.177,3.711-2.484V5.413h1.465v12.624h-1.465v-1.698C66.88,17.408,65.208,18.351,63.744,18.351z"/>
		<path fill="#359F47" d="M72.861,18.037h-1.46V0h1.46v6.69c0.918-0.992,2.33-1.594,3.74-1.594c3.059,0,5.072,2.196,5.072,6.614
			s-1.961,6.64-5.072,6.64c-1.359,0-2.928-0.733-3.74-1.832V18.037z M72.861,14.691c0.604,1.201,2.174,2.3,3.639,2.3
			c2.271,0,3.684-1.517,3.684-5.28c0-3.607-1.518-5.254-3.713-5.254c-1.568,0-3.006,0.836-3.609,2.038V14.691z"/>
		<path fill="#359F47" d="M83.711,0h1.465v18.037h-1.465V0z"/>
		<path fill="#359F47" d="M92.465,16.991c1.779,0,3.057-0.915,3.426-3.32l1.463,0.235c-0.443,3.06-2.354,4.444-4.889,4.444
			c-3.266,0-5.254-2.222-5.254-6.745c0-3.999,1.752-6.509,5.1-6.509c3.5,0,5.068,2.797,5.068,6.431v0.418h-8.68
			C88.699,15.449,90.215,16.991,92.465,16.991z M95.811,10.639v-0.052c-0.104-2.354-1.305-4.13-3.5-4.13
			c-2.197,0-3.451,1.618-3.611,4.182H95.811z"/>
		<path fill="#359F47" d="M100.199,11.711c0,2.955,1.098,5.28,3.869,5.28c1.832,0,3.295-0.968,3.684-3.346l1.439,0.232
			c-0.42,3.088-2.664,4.473-5.123,4.473c-3.502,0-5.332-2.589-5.332-6.613c0-4.157,1.805-6.641,5.279-6.641
			c2.59,0,4.576,1.334,5.1,4.366l-1.436,0.234c-0.424-2.404-1.859-3.24-3.688-3.24C101.195,6.457,100.199,8.757,100.199,11.711z"/>
		<path fill="#359F47" d="M111.176,0h1.465v18.037h-1.465V0z"/>
		<path fill="#359F47" d="M115.436,0.783h1.463v2.562h-1.463V0.783z M115.436,5.413h1.463v12.624h-1.463V5.413z"/>
		<path fill="#359F47" d="M120.402,11.711c0,2.955,1.098,5.28,3.867,5.28c1.83,0,3.293-0.968,3.686-3.346l1.439,0.232
			c-0.418,3.088-2.666,4.473-5.125,4.473c-3.502,0-5.33-2.589-5.33-6.613c0-4.157,1.803-6.641,5.279-6.641
			c2.588,0,4.574,1.334,5.098,4.366l-1.439,0.234c-0.418-2.404-1.855-3.24-3.686-3.24C121.395,6.457,120.402,8.757,120.402,11.711z"
			/>
		<path fill="#359F47" d="M141.234,18.037h-1.676l-3.867-6.848l-2.852,3.135v3.713h-1.463V0h1.463v12.442l6.326-7.029h1.779
			l-4.234,4.624L141.234,18.037z"/>
	</g>
	<g>
		<g>
			<path fill="#818181" d="M36.511,32.467h-0.973v-7.381h0.973v2.672c0.396-0.449,1.026-0.715,1.659-0.715
				c1.369,0,2.352,0.93,2.352,2.77c0,1.85-0.962,2.793-2.352,2.793c-0.644,0-1.286-0.289-1.659-0.77V32.467z M36.511,30.83
				c0.234,0.525,0.835,0.961,1.488,0.961c0.929,0,1.529-0.65,1.529-1.979c0-1.283-0.622-1.955-1.529-1.955
				c-0.675,0-1.254,0.363-1.488,0.875V30.83z"/>
			<path fill="#818181" d="M44.726,27.184h1.038l-1.724,5.145c-0.448,1.326-1.015,2.094-2.353,2.094c-0.226,0-0.47-0.02-0.598-0.059
				v-0.846c0.117,0.051,0.32,0.072,0.49,0.072c0.685,0,1.05-0.299,1.284-0.836l0.106-0.244L40.8,27.184h1.069l1.583,4.203
				L44.726,27.184z"/>
		</g>
		<g>
			<path fill="#818181" d="M81.617,31.682l-0.562,0.527c-0.131,0.07-0.258,0.15-0.387,0.211c-0.381,0.174-0.781,0.221-1.131,0.221
				c-0.377,0-0.957-0.023-1.553-0.455c-0.83-0.582-1.189-1.586-1.189-2.463c0-1.811,1.469-2.699,2.674-2.699
				c0.418,0,0.85,0.104,1.199,0.328c0.584,0.383,0.736,0.887,0.82,1.158l-2.746,1.107l-0.896,0.068
				c0.289,1.482,1.295,2.35,2.406,2.35c0.549,0,0.961-0.182,1.342-0.373C81.594,31.662,81.668,31.625,81.617,31.682z M79.953,28.729
				c0.227-0.084,0.344-0.148,0.344-0.314c0-0.469-0.525-1.006-1.156-1.006c-0.463,0-1.342,0.363-1.342,1.625
				c0,0.199,0.02,0.412,0.031,0.621L79.953,28.729z"/>
			<path fill="#818181" d="M75.873,31.588c0,0.459,0.08,0.531,0.467,0.566c0.197,0.018,0.402,0.031,0.598,0.055l-0.434,0.258h-2.062
				c0.271-0.348,0.32-0.385,0.32-0.619v-0.26l-0.004-6.945h-0.914l0.881-0.42h1.668c-0.359,0.211-0.471,0.334-0.52,0.744V31.588z"/>
			<path fill="#818181" d="M72.684,27.596c0.268,0.223,0.824,0.688,0.824,1.578c0,0.861-0.49,1.273-0.979,1.658
				c-0.154,0.15-0.328,0.316-0.328,0.57c0,0.256,0.174,0.398,0.311,0.504l0.412,0.328c0.518,0.432,0.986,0.828,0.986,1.637
				c0,1.098-1.064,2.203-3.078,2.203c-1.692,0-2.508-0.807-2.508-1.672c0-0.416,0.211-1.012,0.899-1.42
				c0.727-0.447,1.707-0.504,2.229-0.539c-0.158-0.209-0.349-0.428-0.349-0.793c0-0.197,0.058-0.316,0.116-0.455
				c-0.13,0.01-0.256,0.023-0.374,0.023c-1.236,0-1.94-0.926-1.94-1.836c0-0.537,0.247-1.129,0.752-1.564
				c0.666-0.549,1.46-0.639,2.089-0.639h2.409l-0.754,0.416H72.684z M71.85,32.781c-0.092-0.01-0.153-0.01-0.265-0.01
				c-0.108,0-0.738,0.023-1.226,0.186c-0.259,0.092-1.005,0.373-1.005,1.201c0,0.83,0.802,1.426,2.054,1.426
				c1.121,0,1.714-0.531,1.714-1.26C73.123,33.727,72.738,33.414,71.85,32.781z M72.193,30.562c0.268-0.27,0.287-0.639,0.287-0.855
				c0-0.84-0.497-2.145-1.469-2.145c-0.307,0-0.632,0.148-0.816,0.383c-0.199,0.246-0.254,0.564-0.254,0.865
				c0,0.779,0.449,2.08,1.456,2.08C71.687,30.891,72.002,30.752,72.193,30.562z"/>
			<path fill="#818181" d="M65.441,32.617c-1.857,0-2.848-1.449-2.848-2.754c0-1.531,1.245-2.84,3.022-2.84
				c1.714,0,2.793,1.342,2.793,2.758C68.409,31.16,67.343,32.617,65.441,32.617z M66.901,31.672c0.276-0.375,0.351-0.84,0.351-1.297
				c0-1.025-0.493-2.988-1.938-2.988c-0.386,0-0.771,0.15-1.052,0.398c-0.456,0.406-0.54,0.922-0.54,1.422
				c0,1.156,0.57,3.061,1.99,3.061C66.162,32.268,66.631,32.047,66.901,31.672z"/>
			<path fill="#818181" d="M59.231,32.617c-1.862,0-2.854-1.449-2.854-2.754c0-1.531,1.25-2.84,3.025-2.84
				c1.719,0,2.792,1.342,2.792,2.758C62.194,31.16,61.13,32.617,59.231,32.617z M60.687,31.672c0.281-0.375,0.346-0.84,0.346-1.297
				c0-1.025-0.487-2.988-1.936-2.988c-0.385,0-0.771,0.15-1.049,0.398c-0.458,0.406-0.535,0.922-0.535,1.422
				c0,1.156,0.567,3.061,1.979,3.061C59.95,32.268,60.416,32.047,60.687,31.672z"/>
			<path fill="#818181" d="M55.635,32.209l-1.564,0.361c-0.64,0.104-1.208,0.188-1.812,0.188c-3.021,0-4.17-2.223-4.17-3.961
				c0-2.125,1.634-4.096,4.425-4.096c0.589,0,1.159,0.084,1.676,0.229c0.82,0.232,1.206,0.516,1.445,0.678l-0.912,0.867
				l-0.382,0.088l0.274-0.439c-0.373-0.365-1.05-1.027-2.34-1.027c-1.733,0-3.037,1.312-3.037,3.229c0,2.057,1.49,3.998,3.873,3.998
				c0.705,0,1.065-0.146,1.396-0.275v-1.76l-1.658,0.086l0.882-0.473h2.321l-0.285,0.275c-0.079,0.064-0.09,0.082-0.111,0.174
				c-0.01,0.1-0.021,0.418-0.021,0.525V32.209z"/>
			<g>
				<path fill="#818181" d="M82.154,27.172v0.719h-0.086v-0.719h-0.242v-0.074h0.566v0.074H82.154z"/>
				<path fill="#818181" d="M83.131,27.891V27.17h-0.006l-0.223,0.721h-0.064l-0.223-0.721l0,0v0.721h-0.084v-0.793h0.133
					l0.207,0.641h0.004l0.191-0.641h0.143v0.793H83.131z"/>
			</g>
		</g>
	</g>
	<g>
		<path fill="#B9D532" d="M13.924,13.588c5.027,0,9.391,2.727,11.734,6.773c1.164-1.992,1.831-4.31,1.831-6.773
			c0-7.482-6.073-13.555-13.565-13.555c-7.477,0-13.55,6.072-13.55,13.555c0,2.464,0.672,4.781,1.824,6.773
			C4.543,16.314,8.917,13.588,13.924,13.588z"/>
		<path fill="#359F47" d="M13.924,27.139c-5.008,0-9.381-2.725-11.726-6.777c-1.152,1.994-1.824,4.303-1.824,6.777
			c0,7.479,6.073,13.549,13.55,13.549c7.492,0,13.565-6.07,13.565-13.549c0-2.475-0.667-4.783-1.831-6.777
			C23.315,24.414,18.952,27.139,13.924,27.139z"/>
		<path fill="#036C40" d="M13.924,27.139c5.027,0,9.391-2.725,11.734-6.777c-2.344-4.047-6.707-6.773-11.734-6.773
			c-5.008,0-9.381,2.727-11.726,6.773C4.543,24.414,8.917,27.139,13.924,27.139z"/>
	</g>
</g>
</svg>