<svg class="logo__3dyGg" width="190" height="44" viewBox="0 0 190 44" fill="none" xmlns="http://www.w3.org/2000/svg">
  <path fill-rule="evenodd" clip-rule="evenodd" d="M6.10352e-05 20.0242C6.10352e-05 11.7865 6.9095 5.07811 15.1621 5.07811C18.9918 5.01523 22.685 6.49931 25.4069 9.19558L22.5126 12.077C20.5415 10.1753 17.9005 9.12752 15.1621 9.16138C9.15184 9.16138 4.45366 14.0019 4.45366 20.0242C4.45366 26.0465 9.14355 30.8843 15.1621 30.8843C19.0609 30.8843 21.2808 29.318 22.7033 27.8943C23.8703 26.7267 24.6327 25.0471 24.926 22.7692H15.1621V18.6749H28.896C29.0514 19.5198 29.1246 20.3779 29.1146 21.2374C29.1146 24.2982 28.2783 28.0881 25.5806 30.7872C22.951 33.5094 19.5987 34.953 15.1621 34.953C6.9095 34.953 6.10352e-05 28.2619 6.10352e-05 20.0242Z" fill="#5f6368"></path>
  <path fill-rule="evenodd" clip-rule="evenodd" d="M40.2047 15.7219C34.8861 15.7219 30.552 19.7678 30.552 25.3431C30.552 30.9184 34.8861 34.953 40.2047 34.953C45.5233 34.953 49.8577 30.8701 49.8577 25.3317C49.8577 19.7934 45.5233 15.7219 40.2047 15.7219ZM40.2047 31.1744C37.2904 31.1744 34.7779 28.7687 34.7779 25.3431C34.7779 21.918 37.2904 19.5115 40.2047 19.5115C43.1189 19.5115 45.6314 21.8806 45.6314 25.3431C45.6314 28.8053 43.1189 31.1772 40.2047 31.1772V31.1744Z" fill="#5f6368"></path>
  <path fill-rule="evenodd" clip-rule="evenodd" d="M61.2634 15.7219C55.9448 15.7219 51.6104 19.7678 51.6104 25.3431C51.6104 30.9184 55.9448 34.953 61.2634 34.953C66.5821 34.953 70.9161 30.8701 70.9161 25.3317C70.9161 19.7934 66.5821 15.7219 61.2634 15.7219ZM61.2634 31.1744C58.3492 31.1744 55.8367 28.7687 55.8367 25.3431C55.8367 21.918 58.3492 19.5115 61.2634 19.5115C64.1777 19.5115 66.6902 21.8806 66.6902 25.3431C66.6902 28.8053 64.1777 31.1772 61.2634 31.1772V31.1744Z" fill="#5f6368"></path><mask id="1603993435841-9666062033" mask-type="alpha" maskUnits="userSpaceOnUse" x="0" y="0" width="190" height="44">
  <path fill-rule="evenodd" clip-rule="evenodd" d="M0 43.6091H189.919V0H0V43.6091Z" fill="white"></path></mask>
  <g mask="url(#1603993435841-9666062033)">
    <path fill-rule="evenodd" clip-rule="evenodd" d="M94.032 34.3834H98.258V6.10039H94.032V34.3834Z" fill="#5f6368"></path>
    <path fill-rule="evenodd" clip-rule="evenodd" d="M94.032 34.3834H98.258V6.10039H94.032V34.3834Z" fill="#5f6368"></path>
    <path fill-rule="evenodd" clip-rule="evenodd" d="M109.844 31.1773C107.695 31.1773 106.164 30.192 105.182 28.262L118.042 22.9399L117.609 21.8552C116.807 19.7051 114.368 15.733 109.376 15.733C104.385 15.733 100.307 19.6339 100.307 25.3546C100.307 30.7475 104.388 34.9759 109.852 34.9759C113.071 34.9925 116.083 33.3871 117.866 30.7047L114.587 28.518C113.486 30.1126 111.992 31.1773 109.844 31.1773ZM109.516 19.4405C111.192 19.4405 112.612 20.2775 113.085 21.4821L104.488 25.0527C104.377 21.3339 107.365 19.4405 109.513 19.4405H109.516Z" fill="#5f6368"></path>
    <path fill-rule="evenodd" clip-rule="evenodd" d="M87.1114 16.3055V17.8687H86.9663C86.0184 16.7297 84.1972 15.7189 81.9037 15.7189C77.0943 15.7189 72.6863 19.9473 72.6863 25.3775C72.6863 30.8074 77.0943 34.9528 81.9037 34.9528C84.1972 34.9528 86.0184 33.9334 86.9663 32.7661H87.1114V34.15C87.1114 37.8318 85.1451 39.7992 81.989 39.7992C79.4023 39.7992 77.8 37.94 77.1513 36.3823L73.4718 37.9144C74.8889 41.3783 78.2681 43.6324 82.0087 43.6089C86.9632 43.6089 91.1526 40.6936 91.1526 33.5862V16.3055H87.1114ZM82.2737 31.1773C79.3598 31.1773 76.9178 28.7346 76.9178 25.3827C76.9178 22.0314 79.3598 19.5145 82.2737 19.5145C85.1879 19.5145 87.3957 21.9917 87.3957 25.3827C87.3957 28.774 85.1451 31.1773 82.2678 31.1773H82.2737Z" fill="#5f6368"></path><path fill-rule="evenodd" clip-rule="evenodd" d="M131.332 34.4653H145.858V5.41362H131.332V34.4653Z" fill="#1A73E8"></path>
    <path fill-rule="evenodd" clip-rule="evenodd" d="M174.909 4.92946C166.619 4.92946 159.899 11.6496 159.899 19.9391C159.899 28.229 166.619 34.9491 174.909 34.9491C183.199 34.9491 189.919 28.229 189.919 19.9391C189.919 11.6496 183.199 4.92946 174.909 4.92946Z" fill="#1A73E8"></path>
    <path fill-rule="evenodd" clip-rule="evenodd" d="M150.628 40.7653L148.572 40.3186L157.337 -7.62939e-05L159.393 0.446251L150.628 40.7653Z" fill="#1A73E8"></path>
  </g>
</svg>
