<svg width="154" height="64" viewBox="0 0 154 64" fill="none" xmlns="http://www.w3.org/2000/svg">
<g clip-path="url(#clip0_3949_6913)">
<path d="M20 30.7235C20 25.0386 24.768 20.4086 30.4633 20.4086C31.7722 20.3867 33.0723 20.6268 34.2871 21.1148C35.5018 21.6028 36.6067 22.3288 37.5367 23.2502L35.5387 25.2386C34.1782 23.9273 32.3554 23.2055 30.4659 23.2301C26.318 23.2301 23.0756 26.5703 23.0756 30.727C23.0756 34.8836 26.3128 38.2221 30.4659 38.2221C33.1564 38.2221 34.689 37.141 35.6705 36.1586C36.4757 35.3526 37.0023 34.1929 37.204 32.621H30.4633V29.7917H39.9416C40.0491 30.3752 40.0997 30.9677 40.0927 31.5609C40.0927 33.6733 39.5155 36.2887 37.6537 38.1514C35.8391 40.0297 33.525 41.0261 30.4633 41.0261C24.768 41.0261 20 36.4083 20 30.7217" fill="#202124"/>
<path d="M47.7491 38.4186C45.7406 38.4186 44.0046 36.7594 44.0046 34.3937C44.0046 32.0281 45.738 30.3698 47.7491 30.3698C49.7602 30.3698 51.491 32.0045 51.491 34.3972C51.491 36.79 49.7576 38.4203 47.7491 38.4203V38.4186ZM47.7491 27.7561C44.0814 27.7561 41.0879 30.5506 41.0879 34.3929C41.0879 38.2352 44.0788 41.0252 47.7491 41.0252C51.4194 41.0252 54.4111 38.2072 54.4111 34.3885C54.4111 30.5698 51.4167 27.7544 47.7491 27.7544V27.7561Z" fill="#202124"/>
<path d="M62.2793 38.4186C60.2708 38.4186 58.5339 36.7594 58.5339 34.3937C58.5339 32.0281 60.2681 30.3698 62.2793 30.3698C64.2904 30.3698 66.0246 32.0045 66.0246 34.3972C66.0246 36.79 64.2904 38.4238 62.2793 38.4238V38.4186ZM62.2793 27.7596C58.6116 27.7596 55.6172 30.554 55.6172 34.3964C55.6172 38.2387 58.609 41.0287 62.2793 41.0287C65.9495 41.0287 68.9413 38.2107 68.9413 34.392C68.9413 30.5733 65.9495 27.7544 62.2793 27.7544V27.7596Z" fill="#202124"/>
<path d="M87.8112 21.1143H84.8945V40.6332H87.8112V21.1143Z" fill="#202124"/>
<path d="M87.8112 21.1143H84.8945V40.6332H87.8112V21.1143Z" fill="#202124"/>
<path d="M95.5801 30.3207C96.7372 30.3207 97.717 30.8979 98.0427 31.7292L92.1107 34.1935C92.0339 31.627 94.0965 30.3207 95.5793 30.3207H95.5801ZM95.8055 38.4201C94.3209 38.4201 93.266 37.7407 92.5884 36.4116L101.464 32.7378L101.165 31.9894C100.612 30.5049 98.9291 27.7646 95.4841 27.7646C92.0391 27.7646 89.2246 30.4569 89.2246 34.4014C89.2246 38.124 92.0409 41.0381 95.8116 41.0381C96.9056 41.0437 97.9838 40.7774 98.9493 40.2629C99.9148 39.7484 100.737 39.002 101.343 38.0909L99.0802 36.5819C98.3196 37.6857 97.2891 38.4201 95.8063 38.4201H95.8055Z" fill="#202124"/>
<path d="M76.7785 38.4205C74.7701 38.4205 73.0829 36.7351 73.0829 34.4219C73.0829 32.1086 74.7674 30.3717 76.7785 30.3717C78.7896 30.3717 80.3135 32.0815 80.3135 34.4219C80.3135 36.7622 78.7608 38.4205 76.7751 38.4205H76.7785ZM80.1144 28.1571V29.2365H80.0139C79.3599 28.4506 78.1033 27.752 76.5209 27.752C73.2026 27.752 70.1602 30.6704 70.1602 34.4184C70.1602 38.1664 73.2017 41.0263 76.5209 41.0263C78.1041 41.0263 79.3608 40.3277 80.0139 39.5173H80.1144V40.4726C80.1144 43.0129 78.7573 44.3708 76.5786 44.3708C74.7936 44.3708 73.6881 43.088 73.2401 42.0131L70.7007 43.0706C71.1784 44.2388 71.9949 45.2373 73.0449 45.9376C74.0949 46.638 75.3304 47.008 76.5925 47.0002C80.0122 47.0002 82.9027 44.9917 82.9027 40.0832V28.1571H80.1144Z" fill="#202124"/>
<path d="M119.972 21.0854H110.129V40.6629H119.972V21.0854Z" fill="#3D8BFF"/>
<path d="M138.23 40.9728C143.808 40.9728 148.329 36.4512 148.329 30.8736C148.329 25.296 143.808 20.7744 138.23 20.7744C132.652 20.7744 128.131 25.296 128.131 30.8736C128.131 36.4512 132.652 40.9728 138.23 40.9728Z" fill="#3D8BFF"/>
<path d="M123.2 42.7473H121.303L126.703 19H128.601L123.2 42.7473Z" fill="#202124"/>
</g>
<defs>
<clipPath id="clip0_3949_6913">
<rect width="128.329" height="28" fill="white" transform="translate(20 19)"/>
</clipPath>
</defs>
</svg>
