<svg enable-background="new 0 0 909.4 124" viewBox="0 0 909.4 124" xmlns="http://www.w3.org/2000/svg"><g fill="#5f6368"><path d="m504.1 98.8v-65.9h20.2c10.1 0 18.2 3 24.3 9.2 6.1 6.1 9.1 14 9.1 23.8s-3 17.7-9.1 23.8-14.2 9.2-24.3 9.2h-20.2zm8.5-8.1h11.7c7.6 0 13.6-2.2 18.1-6.5s6.7-10.5 6.7-18.3-2.2-13.9-6.7-18.3-10.6-6.6-18.2-6.6h-11.7v49.7z"/><path d="m568.8 59.1c9.2-9.1 24.1-9.1 33.3 0 4.4 4.6 6.7 10.8 6.5 17.2.2 6.4-2.2 12.5-6.6 17.2-9.2 9.1-24.1 9.1-33.3 0-4.4-4.6-6.7-10.8-6.5-17.2-.1-6.4 2.2-12.6 6.6-17.2zm6.3 29c5.4 5.7 14.4 6 20.1.6.2-.2.4-.4.6-.6 2.9-3 4.4-6.9 4.4-11.8s-1.5-8.8-4.4-11.8c-5.4-5.7-14.4-6-20.1-.6-.2.2-.4.4-.6.6-2.9 3-4.4 6.9-4.4 11.8.1 4.9 1.5 8.8 4.4 11.8z"/><path d="m614.7 98.8v-45.1h8.1v6.3h.3c1.5-2.3 3.6-4.2 6-5.5 2.4-1.4 5.2-2.2 8-2.2 7 0 11.7 2.9 14.3 8.6 3.3-5.5 9.3-8.8 15.7-8.6 5.3 0 9.4 1.7 12.1 5.1s4 8 4 13.8v27.6h-8.5v-26.3c0-4.5-.8-7.8-2.5-9.7s-4.2-2.9-7.5-2.9-6.3 1.6-8.2 4.2c-2.2 2.7-3.4 6.2-3.3 9.7v24.9h-8.5v-26.2c0-4.5-.8-7.8-2.5-9.7s-4.2-2.9-7.5-2.9-6.3 1.6-8.2 4.2c-2.2 2.8-3.3 6.2-3.3 9.7v24.9h-8.5z"/><path d="m705.4 100.3c-4.4.1-8.6-1.3-12-4.1-3.2-2.7-5-6.8-4.8-10.9-.2-4.6 2-8.9 5.7-11.5 4.1-2.9 9.1-4.4 14.1-4.2 5 0 9 .9 12.2 2.8v-1.3c.1-3-1.1-6-3.4-8s-5.3-3.1-8.4-3c-2.3 0-4.6.6-6.7 1.8-1.9 1.1-3.4 2.8-4.1 4.8l-7.7-3.3c1.3-3 3.5-5.6 6.2-7.5 3.1-2.3 7.1-3.5 12.1-3.5 5.8 0 10.6 1.7 14.3 5.1 3.8 3.4 5.7 8.1 5.7 14.3v27.3h-8.1v-6.3h-.4c-3.2 4.9-8.2 7.5-14.7 7.5zm1.4-7.8c3.6 0 7-1.4 9.5-3.9 2.7-2.3 4.3-5.7 4.3-9.2-2.4-2-6-3-10.8-3-4.1 0-7.2.9-9.3 2.7-1.9 1.5-3.1 3.8-3.1 6.3 0 2.1 1 4.1 2.8 5.2 2 1.3 4.3 2 6.6 1.9z"/><path d="m745.4 42.4c-2.5 2.2-6.3 1.9-8.5-.7-1.9-2.2-1.9-5.6 0-7.8 2.5-2.2 6.3-1.9 8.5.7 1.9 2.2 1.9 5.6 0 7.8zm0 56.4h-8.5v-45.1h8.5z"/><path d="m762.3 53.7v6.3h.4c1.4-2.3 3.4-4.2 5.8-5.5 2.6-1.5 5.5-2.3 8.5-2.2 5.6 0 9.8 1.7 12.8 5.2 2.9 3.4 4.4 8 4.4 13.8v27.6h-8.5v-26.4c0-8.3-3.7-12.5-11.1-12.5-3.4-.1-6.5 1.5-8.5 4.2-2.2 2.8-3.4 6.2-3.3 9.7v24.9h-8.5v-45.1z"/><path d="m818.7 100.3c-5 0-9.2-1.2-12.5-3.7-3.2-2.3-5.7-5.5-7.2-9.2l7.5-3.1c2.4 5.6 6.5 8.5 12.2 8.5 2.3.1 4.5-.5 6.5-1.7 1.6-1 2.5-2.7 2.5-4.6 0-2.9-2.1-4.9-6.2-6l-9.1-2.2c-3-.8-5.8-2.2-8.2-4.2-2.5-2-4-5.1-3.9-8.3 0-3.9 2-7.6 5.3-9.7 3.7-2.5 8.1-3.8 12.6-3.7 3.7-.1 7.4.9 10.7 2.7 3.1 1.7 5.4 4.5 6.7 7.8l-7.4 3c-1.7-4-5.1-6-10.3-6-2.2-.1-4.4.5-6.3 1.6-1.6.8-2.6 2.5-2.6 4.2 0 2.6 2 4.3 6 5.2l8.9 2.2c4.2 1 7.4 2.7 9.4 5.1 2 2.2 3 5.1 3 8.1 0 4-1.8 7.7-5 10.1-3.1 2.5-7.4 3.9-12.6 3.9z"/><path d="m218.8 100.3c-20.5 0-37.8-16.7-37.8-37.2s17.2-37.2 37.8-37.2c9.5-.2 18.7 3.5 25.5 10.2l-7.2 7.2c-4.9-4.7-11.5-7.3-18.3-7.2-14.7 0-26.7 12-26.7 26.7v.3c-.2 14.7 11.6 26.9 26.3 27.1h.4c9.7 0 15.2-3.9 18.8-7.4 2.9-2.9 4.8-7.1 5.5-12.8h-24.6v-10.3h34.5c.4 2.1.6 4.2.5 6.4 0 7.6-2.1 17.1-8.8 23.8-6.4 6.7-14.8 10.4-25.9 10.4z"/><path d="m305.2 76.3c0 13.3-10.7 24-24 24s-24-10.7-24-24 10.7-24 24-24c13.1-.2 23.8 10.3 24 23.3zm-10.5 0c0-8.6-6.2-14.5-13.5-14.5s-13.5 5.9-13.5 14.5 6.3 14.5 13.5 14.5 13.5-6 13.5-14.5z"/><path d="m357.5 76.3c0 13.3-10.7 24-24 24s-24-10.7-24-24 10.7-24 24-24c13.1-.2 23.8 10.3 24 23.3zm-10.5 0c0-8.6-6.2-14.5-13.5-14.5s-13.5 5.8-13.5 14.5 6.2 14.5 13.5 14.5 13.5-6 13.5-14.5z"/><path d="m407.6 53.8v43.1c0 17.7-10.4 25-22.8 25-9.3 0-17.7-5.6-21.2-14.2l9.2-3.8c1.6 3.9 5.6 8.5 12.1 8.5 7.9 0 12.8-4.9 12.8-14.1v-3.5h-.4c-3.2 3.6-7.8 5.6-12.6 5.4-12 0-23-10.4-23-23.9s11-24.1 23-24.1c4.8-.1 9.4 1.8 12.6 5.3h.4v-3.9h9.9zm-9.3 22.6c0-8.4-5.6-14.6-12.8-14.6s-13.3 6.2-13.3 14.6 6.1 14.4 13.3 14.4 12.8-6.1 12.8-14.4z"/><path d="m425.7 28.3v70.5h-10.6v-70.5z"/><path d="m466.5 84.2 8.2 5.4c-4.5 6.7-12 10.7-20 10.6-13.6 0-23.8-10.5-23.8-24 0-14.3 10.3-24 22.6-24s18.5 10 20.5 15.3l1.1 2.8-32 13.3c2.5 4.8 6.3 7.3 11.6 7.3s9-2.7 11.8-6.7zm-25.2-8.6 21.4-8.9c-1.2-3-4.7-5.1-8.9-5.1-7.3.3-12.9 6.5-12.5 13.7z"/></g><path d="m128.5 0c2.5 0 4.6 2 4.6 4.6 0 .6-.1 1.2-.4 1.8l-46.4 110.9c-1.8 4.1-5.8 6.7-10.2 6.7h-31.7c-2.5.1-4.6-1.9-4.6-4.4 0-.6.1-1.3.3-1.8l3.6-8.7 7.9-46.2 23-28 11.8-28.2c1.8-4.1 5-6.7 9.5-6.7z" fill="#4285f4"/><path d="m74.9 34.4c-17.3-17.1-45.2-16.8-62.2.5s-16.9 45.1.4 62.2c8.1 8 19 12.5 30.4 12.7.1-.3 21.3-33.6 21.3-33.6s10.1-41.8 10.1-41.8z" fill="#fbbc04"/><path d="m74.9 34.4s-31.4 75.3-31.4 75.3h1.1c24.2-.2 43.7-20 43.6-44.2-.1-11.7-4.9-22.9-13.3-31.1z" fill="#ea4335"/><path d="m854.5 94.7h6.4c.9 0 1.7.2 2.5.7s1.4 1.1 1.9 1.9.7 1.7.7 2.8c0 1-.2 1.8-.7 2.5-.4.7-1 1.3-1.8 1.7v.1c.9.3 1.6.9 2.2 1.7s.8 1.8.8 2.9-.2 2.1-.7 2.9c-.5.9-1.1 1.5-2 2-.8.5-1.7.7-2.6.7h-6.7zm6.4 8.7c.6 0 1.1-.2 1.6-.5s.8-.7 1.1-1.2c.2-.5.4-1 .4-1.5s-.1-1-.4-1.5c-.2-.5-.6-.9-1-1.2s-1-.5-1.5-.5h-4.4v6.4zm.4 9c.6 0 1.1-.2 1.6-.5s.8-.8 1.1-1.3.4-1.1.4-1.6c0-.6-.1-1.1-.4-1.6s-.6-1-1.1-1.3-1-.5-1.7-.5h-4.7v6.8z" fill="#5f6368"/><path d="m869.7 94.7h10.3v2.3h-8.2v6.6h7.4v2.2h-7.4v6.6h8.2v2.3h-10.3z" fill="#5f6368"/><path d="m887.1 97h-5v-2.3h12.1v2.3h-5v17.7h-2.1z" fill="#5f6368"/><path d="m899.9 94.7h2.4l6.8 20h-2.3l-1.8-5.5h-7.7l-1.8 5.5h-2.3zm4.3 12.3-2.4-7.2-.7-2.2h-.1l-.7 2.2-2.3 7.2z" fill="#5f6368"/></svg>