<?xml version="1.0" encoding="UTF-8" standalone="no"?>
<!DOCTYPE svg PUBLIC "-//W3C//DTD SVG 1.1//EN" "http://www.w3.org/Graphics/SVG/1.1/DTD/svg11.dtd">
<svg width="100%" height="100%" viewBox="0 0 837 124" version="1.1" xmlns="http://www.w3.org/2000/svg" xmlns:xlink="http://www.w3.org/1999/xlink" xml:space="preserve" xmlns:serif="http://www.serif.com/" style="fill-rule:evenodd;clip-rule:evenodd;stroke-linejoin:round;stroke-miterlimit:2;">
    <g transform="matrix(1,0,0,1,-15.2536,-8)">
        <g transform="matrix(1,0,0,1,12.2564,1)">
            <path d="M506.8,106.02L506.8,40.15L526.94,40.15C537.05,40.15 545.14,43.2 551.21,49.3C557.28,55.4 560.31,63.33 560.31,73.08C560.31,82.83 557.28,90.76 551.21,96.86C545.14,102.96 537.05,106.01 526.94,106.01L506.8,106.01L506.8,106.02ZM515.26,97.93L526.94,97.93C534.54,97.93 540.56,95.75 545.01,91.4C549.45,87.05 551.68,80.94 551.68,73.09C551.68,65.3 549.46,59.21 545.01,54.83C540.57,50.45 534.54,48.25 526.94,48.25L515.26,48.25L515.26,97.93Z" style="fill:rgb(95,99,104);fill-rule:nonzero;"/>
        </g>
        <g transform="matrix(1,0,0,1,12.2564,1)">
            <path d="M571.49,66.32C575.84,61.75 581.39,59.47 588.13,59.47C594.87,59.47 600.42,61.76 604.77,66.32C609.12,70.89 611.3,76.61 611.3,83.48C611.3,90.35 609.12,96.07 604.77,100.64C600.42,105.21 594.87,107.49 588.13,107.49C581.39,107.49 575.84,105.21 571.49,100.64C567.14,96.07 564.96,90.35 564.96,83.48C564.96,76.61 567.14,70.89 571.49,66.32ZM577.79,95.3C580.7,98.28 584.15,99.76 588.13,99.76C592.11,99.76 595.56,98.27 598.47,95.3C601.38,92.33 602.84,88.39 602.84,83.48C602.84,78.57 601.38,74.63 598.47,71.66C595.56,68.69 592.11,67.2 588.13,67.2C584.15,67.2 580.7,68.69 577.79,71.66C574.88,74.64 573.42,78.58 573.42,83.48C573.42,88.39 574.88,92.33 577.79,95.3Z" style="fill:rgb(95,99,104);fill-rule:nonzero;"/>
        </g>
        <g transform="matrix(1,0,0,1,12.2564,1)">
            <path d="M617.3,106.02L617.3,60.94L625.39,60.94L625.39,67.2L625.76,67.2C627.05,65.05 629.02,63.23 631.69,61.73C634.36,60.23 637.01,59.48 639.64,59.48C646.63,59.48 651.38,62.36 653.89,68.13C657.57,62.37 662.81,59.48 669.61,59.48C674.94,59.48 678.96,61.18 681.65,64.59C684.35,67.99 685.7,72.61 685.7,78.44L685.7,106.04L677.24,106.04L677.24,79.71C677.24,75.17 676.41,71.95 674.76,70.05C673.1,68.15 670.59,67.2 667.22,67.2C663.91,67.2 661.17,68.61 658.99,71.43C656.81,74.25 655.73,77.47 655.73,81.09L655.73,106.02L647.27,106.02L647.27,79.71C647.27,75.17 646.44,71.95 644.79,70.05C643.13,68.15 640.62,67.2 637.25,67.2C633.94,67.2 631.2,68.61 629.02,71.43C626.84,74.25 625.76,77.47 625.76,81.09L625.76,106.02L617.3,106.02Z" style="fill:rgb(95,99,104);fill-rule:nonzero;"/>
        </g>
        <g transform="matrix(1,0,0,1,12.2564,1)">
            <path d="M708.03,107.49C703.25,107.49 699.25,106.11 696.03,103.35C692.81,100.59 691.2,96.94 691.2,92.4C691.2,87.49 693.1,83.65 696.9,80.85C700.7,78.06 705.39,76.66 710.97,76.66C715.93,76.66 720.01,77.58 723.2,79.42L723.2,78.13C723.2,74.82 722.06,72.17 719.8,70.17C717.53,68.18 714.74,67.18 711.43,67.18C708.98,67.18 706.76,67.76 704.76,68.93C702.77,70.1 701.4,71.69 700.67,73.71L692.95,70.4C693.99,67.7 696.04,65.2 699.11,62.9C702.17,60.6 706.22,59.45 711.25,59.45C717.01,59.45 721.79,61.14 725.59,64.51C729.39,67.88 731.29,72.64 731.29,78.77L731.29,106L723.2,106L723.2,99.74L722.83,99.74C719.46,104.92 714.53,107.49 708.03,107.49ZM709.41,99.77C712.9,99.77 716.08,98.47 718.93,95.86C721.78,93.25 723.2,90.17 723.2,86.61C720.81,84.65 717.22,83.67 712.44,83.67C708.33,83.67 705.24,84.56 703.15,86.34C701.07,88.12 700.02,90.2 700.02,92.6C700.02,94.81 700.97,96.56 702.87,97.84C704.78,99.12 706.96,99.77 709.41,99.77Z" style="fill:rgb(95,99,104);fill-rule:nonzero;"/>
        </g>
        <g transform="matrix(1,0,0,1,12.2564,1)">
            <path d="M747.92,49.63C746.76,50.8 745.35,51.38 743.69,51.38C742.03,51.38 740.62,50.8 739.46,49.63C738.3,48.47 737.71,47.05 737.71,45.4C737.71,43.74 738.29,42.33 739.46,41.17C740.62,40.01 742.03,39.42 743.69,39.42C745.35,39.42 746.75,40 747.92,41.17C749.08,42.34 749.67,43.75 749.67,45.4C749.67,47.05 749.09,48.46 747.92,49.63ZM747.92,106.02L739.46,106.02L739.46,60.94L747.92,60.94L747.92,106.02Z" style="fill:rgb(95,99,104);fill-rule:nonzero;"/>
        </g>
        <g transform="matrix(1,0,0,1,12.2564,1)">
            <path d="M764.82,60.94L764.82,67.2L765.19,67.2C766.41,65.05 768.35,63.23 770.98,61.73C773.62,60.23 776.43,59.48 779.44,59.48C785.02,59.48 789.28,61.2 792.22,64.63C795.16,68.07 796.63,72.67 796.63,78.43L796.63,106.03L788.17,106.03L788.17,79.71C788.17,71.37 784.46,67.2 777.05,67.2C773.56,67.2 770.71,68.6 768.5,71.39C766.29,74.18 765.19,77.42 765.19,81.1L765.19,106.03L756.73,106.03L756.73,60.94L764.82,60.94Z" style="fill:rgb(95,99,104);fill-rule:nonzero;"/>
        </g>
        <g transform="matrix(1,0,0,1,12.2564,1)">
            <path d="M821.26,107.49C816.23,107.49 812.08,106.26 808.8,103.81C805.52,101.36 803.11,98.29 801.58,94.61L809.12,91.48C811.51,97.12 815.59,99.94 821.35,99.94C823.98,99.94 826.14,99.36 827.83,98.19C829.52,97.03 830.36,95.49 830.36,93.59C830.36,90.65 828.31,88.65 824.2,87.61L815.1,85.4C812.22,84.66 809.49,83.27 806.92,81.21C804.35,79.16 803.06,76.38 803.06,72.88C803.06,68.89 804.82,65.66 808.35,63.17C811.87,60.69 816.06,59.44 820.9,59.44C824.88,59.44 828.44,60.35 831.57,62.15C834.7,63.96 836.93,66.55 838.28,69.92L830.92,72.96C829.27,68.97 825.83,66.98 820.62,66.98C818.11,66.98 815.99,67.5 814.28,68.54C812.56,69.58 811.71,70.99 811.71,72.77C811.71,75.35 813.7,77.09 817.69,78.01L826.61,80.13C830.84,81.11 833.96,82.8 835.99,85.19C838.01,87.58 839.02,90.28 839.02,93.29C839.02,97.34 837.36,100.71 834.05,103.41C830.72,106.14 826.46,107.49 821.26,107.49Z" style="fill:rgb(95,99,104);fill-rule:nonzero;"/>
        </g>
        <g transform="matrix(1,0,0,1,12.2564,1)">
            <path d="M221.73,107.48C201.23,107.48 184,90.77 184,70.24C184,49.71 201.23,33 221.73,33C233.07,33 241.14,37.45 247.22,43.26L240.05,50.43C235.7,46.34 229.8,43.16 221.73,43.16C206.76,43.16 195.06,55.24 195.06,70.23C195.06,85.22 206.76,97.29 221.73,97.29C231.44,97.29 236.97,93.39 240.51,89.84C243.41,86.93 245.32,82.76 246.04,77.03L221.47,77.03L221.47,66.88L255.93,66.88C256.29,68.7 256.47,70.88 256.47,73.24C256.47,80.87 254.38,90.32 247.67,97.04C241.14,103.84 232.8,107.48 221.73,107.48Z" style="fill:rgb(95,99,104);fill-rule:nonzero;"/>
        </g>
        <g transform="matrix(1,0,0,1,12.2564,1)">
            <path d="M308.08,83.5C308.08,97.31 297.3,107.48 284.07,107.48C270.84,107.48 260.06,97.31 260.06,83.5C260.06,69.6 270.84,59.52 284.07,59.52C297.3,59.52 308.08,69.6 308.08,83.5ZM297.57,83.5C297.57,74.87 291.32,68.97 284.07,68.97C276.82,68.97 270.57,74.87 270.57,83.5C270.57,92.04 276.82,98.03 284.07,98.03C291.32,98.03 297.57,92.03 297.57,83.5Z" style="fill:rgb(95,99,104);fill-rule:nonzero;"/>
        </g>
        <g transform="matrix(1,0,0,1,12.2564,1)">
            <path d="M360.34,83.5C360.34,97.31 349.56,107.48 336.33,107.48C323.1,107.48 312.32,97.3 312.32,83.5C312.32,69.6 323.1,59.52 336.33,59.52C349.56,59.52 360.34,69.6 360.34,83.5ZM349.83,83.5C349.83,74.87 343.58,68.97 336.33,68.97C329.08,68.97 322.83,74.87 322.83,83.5C322.83,92.04 329.08,98.03 336.33,98.03C343.58,98.03 349.83,92.03 349.83,83.5Z" style="fill:rgb(95,99,104);fill-rule:nonzero;"/>
        </g>
        <g transform="matrix(1,0,0,1,12.2564,1)">
            <path d="M410.33,60.97L410.33,104.02C410.33,121.73 399.9,129 387.56,129C375.95,129 368.97,121.19 366.34,114.83L375.5,111.02C377.13,114.93 381.12,119.56 387.56,119.56C395.45,119.56 400.35,114.66 400.35,105.48L400.35,102.03L399.99,102.03C397.63,104.94 393.1,107.48 387.38,107.48C375.41,107.48 364.43,97.04 364.43,83.59C364.43,70.06 375.41,59.52 387.38,59.52C393.09,59.52 397.63,62.06 399.99,64.88L400.35,64.88L400.35,60.97L410.33,60.97ZM401.07,83.59C401.07,75.14 395.45,68.97 388.28,68.97C381.02,68.97 374.95,75.15 374.95,83.59C374.95,91.95 381.03,98.03 388.28,98.03C395.45,98.03 401.07,91.94 401.07,83.59Z" style="fill:rgb(95,99,104);fill-rule:nonzero;"/>
        </g>
        <g transform="matrix(1,0,0,1,12.2564,1)">
            <rect x="417.9" y="35.54" width="10.52" height="70.48" style="fill:rgb(95,99,104);fill-rule:nonzero;"/>
        </g>
        <g transform="matrix(1,0,0,1,12.2564,1)">
            <path d="M469.2,91.4L477.36,96.85C474.73,100.76 468.38,107.48 457.41,107.48C443.8,107.48 433.65,96.94 433.65,83.5C433.65,69.24 443.9,59.52 456.24,59.52C468.67,59.52 474.74,69.42 476.74,74.78L477.83,77.5L445.8,90.76C448.25,95.57 452.06,98.03 457.41,98.03C462.76,98.03 466.48,95.4 469.2,91.4ZM444.07,82.77L465.48,73.87C464.3,70.87 460.76,68.78 456.59,68.78C451.24,68.78 443.8,73.51 444.07,82.77Z" style="fill:rgb(95,99,104);fill-rule:nonzero;"/>
        </g>
    </g>
    <g transform="matrix(1,0,0,1,-2.99723,-7)">
        <path d="M131.41,7C134.7,7 136.92,10.36 135.62,13.38L89.25,124.31C87.49,128.37 83.48,131 79.05,131L47.36,131C44.07,131 41.77,127.75 43.08,124.73L46.71,116.02L54.63,69.77L77.64,41.8L89.36,13.69C91.11,9.63 94.39,7 98.82,7L131.41,7Z" style="fill:rgb(66,133,244);fill-rule:nonzero;"/>
    </g>
    <g transform="matrix(1,0,0,1,-2.99723,-7)">
        <path d="M77.8,41.41C69.74,33.58 58.7,28.81 46.56,28.94C22.24,29.21 2.73,49.09 3,73.34C3.26,97.21 22.59,116.41 46.4,116.75C46.51,116.45 67.7,83.19 67.7,83.19C67.7,83.19 77.8,41.43 77.8,41.41Z" style="fill:rgb(251,188,4);fill-rule:nonzero;"/>
    </g>
    <g transform="matrix(1,0,0,1,-2.99723,-7)">
        <path d="M77.8,41.41C77.8,41.41 46.37,116.76 46.4,116.76C46.78,116.77 47.16,116.77 47.54,116.76C71.87,116.49 91.37,96.62 91.1,72.36C90.97,60.22 85.89,49.28 77.8,41.41Z" style="fill:rgb(234,67,53);fill-rule:nonzero;"/>
    </g>
</svg>
