<?xml version="1.0" encoding="UTF-8" standalone="no"?>
<!-- Created with Inkscape (http://www.inkscape.org/) -->

<svg
   xmlns:dc="http://purl.org/dc/elements/1.1/"
   xmlns:cc="http://creativecommons.org/ns#"
   xmlns:rdf="http://www.w3.org/1999/02/22-rdf-syntax-ns#"
   xmlns:svg="http://www.w3.org/2000/svg"
   xmlns="http://www.w3.org/2000/svg"
   xmlns:sodipodi="http://sodipodi.sourceforge.net/DTD/sodipodi-0.dtd"
   xmlns:inkscape="http://www.inkscape.org/namespaces/inkscape"
   width="145.79997"
   height="33.799992"
   viewBox="0 0 38.576244 8.9429147"
   version="1.1"
   id="svg1971"
   inkscape:version="0.92.0 r15299"
   sodipodi:docname="zagat.svg">
  <defs
     id="defs1965" />
  <sodipodi:namedview
     id="base"
     pagecolor="#ffffff"
     bordercolor="#666666"
     borderopacity="1.0"
     inkscape:pageopacity="0.0"
     inkscape:pageshadow="2"
     inkscape:zoom="6.1947523"
     inkscape:cx="72.399989"
     inkscape:cy="16.399994"
     inkscape:document-units="mm"
     inkscape:current-layer="layer1"
     showgrid="false"
     fit-margin-top="0"
     fit-margin-left="0"
     fit-margin-right="0"
     fit-margin-bottom="0"
     units="px"
     inkscape:window-width="1280"
     inkscape:window-height="744"
     inkscape:window-x="-4"
     inkscape:window-y="-4"
     inkscape:window-maximized="1" />
  <metadata
     id="metadata1968">
    <rdf:RDF>
      <cc:Work
         rdf:about="">
        <dc:format>image/svg+xml</dc:format>
        <dc:type
           rdf:resource="http://purl.org/dc/dcmitype/StillImage" />
        <dc:title></dc:title>
      </cc:Work>
    </rdf:RDF>
  </metadata>
  <g
     inkscape:label="Layer 1"
     inkscape:groupmode="layer"
     id="layer1"
     transform="translate(6.6826162,-144.22959)">
    <g
       id="g2016"
       transform="translate(0.13229077,-0.13228693)">
      <path
         inkscape:connector-curvature="0"
         d="m 3.0011338,151.71729 -0.6085398,1.24354 h 0.6085398 l 0.37041,-0.74083 h 2.9898 l 0.34395,0.74083 h 0.635 l -0.60854,-1.24354 h -3.73062"
         id="path1864"
         style="fill:#b70038;fill-opacity:1;stroke-width:0.26458332" />
      <path
         inkscape:connector-curvature="0"
         d="m 4.8267538,144.49417 -4.25978981,8.46666 H 1.201964 l 3.6777098,-7.43479 3.67771,7.43479 h 0.66146 l -4.28625,-8.46666 h -0.10584"
         id="path1866"
         style="fill:#b70038;fill-opacity:1;stroke-width:0.26458332" />
      <path
         inkscape:connector-curvature="0"
         d="m -6.2063662,146.45208 v 0.52917 h 2.6458302 l -3.1220802,5.87375 v 0.10583 h 6.53521019 v -0.5027 H -5.8624062 l 3.2014501,-6.00605 h -3.5454101"
         id="path1868"
         style="fill:#b70038;fill-opacity:1;stroke-width:0.26458332" />
      <path
         inkscape:connector-curvature="0"
         d="m -6.2063662,145.44667 h 5.26521019 l -3.20146019,6.00604 h 3.99521019 v -0.52917 H -3.2694962 l 3.14854009,-5.90021 V 144.9175 H -6.2063662 v 0.52917"
         id="path1870"
         style="fill:#b70038;fill-opacity:1;stroke-width:0.26458332" />
      <path
         inkscape:connector-curvature="0"
         d="m 4.8796738,148.80688 0.68792,1.56104 h -1.4023 z m -1.45521,1.98437 h 2.88396 l -1.42875,-2.93687 z"
         id="path1872"
         style="fill:#b70038;fill-opacity:1;stroke-width:0.26458332" />
      <path
         inkscape:connector-curvature="0"
         d="m 17.526754,148.19833 h -4.7625 v 0.50271 h 4.23334 v 0.18521 c 0,2.09021 -1.48167,3.75708 -3.57188,3.75708 -2.03729,0 -3.6247902,-1.61395 -3.6247902,-3.70416 0,-2.09021 1.6404202,-3.70417 3.7570802,-3.70417 0.9525,0 1.87854,0.29104 2.64584,0.89958 l 0.23812,-0.5027 c -0.82021,-0.60855 -1.82562,-0.89959 -2.88396,-0.89959 -2.43416,0 -4.3391602,1.82563 -4.3391602,4.20688 0,2.38125 1.8520802,4.20687 4.2068702,4.23333 2.46063,0 4.10104,-1.905 4.10104,-4.36562 v -0.60855"
         id="path1874"
         style="fill:#b70038;fill-opacity:1;stroke-width:0.26458332" />
      <path
         inkscape:connector-curvature="0"
         d="m 29.089045,146.45208 v 6.50875 h 0.555631 v -5.97958 h 1.984369 v -0.52917 h -2.54"
         id="path1876"
         style="fill:#b70038;fill-opacity:1;stroke-width:0.26458332" />
      <path
         inkscape:connector-curvature="0"
         d="m 25.437795,146.98125 h 1.984381 v 5.97958 h 0.555619 v -6.50875 h -2.54 v 0.52917"
         id="path1878"
         style="fill:#b70038;fill-opacity:1;stroke-width:0.26458332" />
      <path
         inkscape:connector-curvature="0"
         d="m 25.437795,144.9175 h 6.19125 v 0.52917 h -6.19125 z"
         id="path1880"
         style="fill:#b70038;fill-opacity:1;stroke-width:0.26458332" />
      <path
         inkscape:connector-curvature="0"
         d="m 13.558004,146.84896 c 0.71438,0 1.37584,0.26458 1.905,0.76729 l 0.23813,-0.50271 c -0.55563,-0.50271 -1.32292,-0.79375 -2.14313,-0.79375 -1.48166,0 -2.61937,1.13771 -2.61937,2.61938 0,1.50812 1.08479,2.67229 2.48708,2.67229 1.32292,0 2.24896,-0.82021 2.32833,-2.06375 h -2.98979 v 0.50271 h 2.35479 c -0.23812,0.68791 -0.89958,1.05833 -1.69333,1.05833 -1.08479,0 -1.93146,-0.9525 -1.93146,-2.16958 0,-1.19063 0.89959,-2.09021 2.06375,-2.09021"
         id="path1882"
         style="fill:#b70038;fill-opacity:1;stroke-width:0.26458332" />
      <path
         inkscape:connector-curvature="0"
         d="m 21.733634,144.49417 -4.25979,8.46666 h 0.635 l 3.677701,-7.43479 3.677709,7.43479 h 0.661461 l -4.28625,-8.46666 h -0.105831"
         id="path1884"
         style="fill:#b70038;fill-opacity:1;stroke-width:0.26458332" />
      <path
         inkscape:connector-curvature="0"
         d="m 19.908004,151.71729 -0.60854,1.24354 h 0.60854 L 20.278423,152.22 h 2.989792 l 0.343958,0.74083 h 0.635 l -0.608539,-1.24354 h -3.73063"
         id="path1886"
         style="fill:#b70038;fill-opacity:1;stroke-width:0.26458332" />
      <path
         inkscape:connector-curvature="0"
         d="m 21.786545,148.80688 0.68792,1.56104 h -1.402292 z m -1.4552,1.98437 h 2.88395 l -1.42875,-2.93687 z"
         id="path1888"
         style="fill:#b70038;fill-opacity:1;stroke-width:0.26458332" />
    </g>
  </g>
</svg>
