<?xml version="1.0" encoding="UTF-8" standalone="no"?>
<svg
   xmlns:dc="http://purl.org/dc/elements/1.1/"
   xmlns:cc="http://creativecommons.org/ns#"
   xmlns:rdf="http://www.w3.org/1999/02/22-rdf-syntax-ns#"
   xmlns:svg="http://www.w3.org/2000/svg"
   xmlns="http://www.w3.org/2000/svg"
   xmlns:sodipodi="http://sodipodi.sourceforge.net/DTD/sodipodi-0.dtd"
   xmlns:inkscape="http://www.inkscape.org/namespaces/inkscape"
   version="1.1"
   id="svg10"
   width="824"
   height="100"
   viewBox="0 0 824 100"
   sodipodi:docname="Google_for_Education_logo.svg"
   inkscape:version="1.0 (4035a4f, 2020-05-01)">
  <metadata
     id="metadata16">
    <rdf:RDF>
      <cc:Work
         rdf:about="">
        <dc:format>image/svg+xml</dc:format>
        <dc:type
           rdf:resource="http://purl.org/dc/dcmitype/StillImage" />
        <dc:title />
      </cc:Work>
    </rdf:RDF>
  </metadata>
  <defs
     id="defs14">
    <rect
       x="74.790557"
       y="-300.90154"
       width="340.90579"
       height="69.572611"
       id="rect837" />
  </defs>
  <sodipodi:namedview
     pagecolor="#ffffff"
     bordercolor="#666666"
     borderopacity="1"
     objecttolerance="10"
     gridtolerance="10"
     guidetolerance="10"
     inkscape:pageopacity="0"
     inkscape:pageshadow="2"
     inkscape:window-width="1235"
     inkscape:window-height="747"
     id="namedview12"
     showgrid="false"
     inkscape:zoom="1.0878167"
     inkscape:cx="267.52699"
     inkscape:cy="39.247476"
     inkscape:window-x="45"
     inkscape:window-y="25"
     inkscape:window-maximized="1"
     inkscape:current-layer="svg10"
     inkscape:document-rotation="0"
     showguides="true" />
  <g
     inkscape:label="for Education"
     aria-label="for Education"
     id="text843"
     style="font-style:normal;font-weight:normal;font-size:40px;line-height:1.25;font-family:sans-serif;display:inline;fill:#000000;fill-opacity:0.541176;stroke:none"
     transform="matrix(2.2655703,0,0,2.2655691,-435.87776,643.04849)">
    <g
       style="fill:#000000;fill-opacity:0.541176"
       id="g873"
       inkscape:label="for">
      <path
         id="path845"
         style="font-style:normal;font-variant:normal;font-weight:normal;font-stretch:normal;font-family:'Product Sans';-inkscape-font-specification:'Product Sans';fill:#000000;fill-opacity:0.541176"
         d="m 341.74991,-279.4214 q 2,0 3.28,0.68 l -1,3.24 q -0.96,-0.48 -2.16,-0.48 -1.36,0 -2.24,0.96 -0.84,0.92 -0.84,2.48 v 2.48 h 5.12 v 3.36 h -5.12 v 16.24 h -3.68 v -16.24 h -3.68 v -3.36 h 3.68 v -2.84 q 0,-2.92 1.84,-4.72 1.88,-1.8 4.8,-1.8 z" />
      <path
         id="path847"
         style="font-style:normal;font-variant:normal;font-weight:normal;font-stretch:normal;font-family:'Product Sans';-inkscape-font-specification:'Product Sans';fill:#000000;fill-opacity:0.541176"
         d="m 344.67161,-260.2613 q 0,-4.52 2.84,-7.48 2.88,-2.96 7.24,-2.96 4.36,0 7.2,2.96 2.88,2.96 2.88,7.48 0,4.56 -2.88,7.48 -2.84,2.96 -7.2,2.96 -4.36,0 -7.24,-2.96 -2.84,-2.96 -2.84,-7.48 z m 3.68,0 q 0,3.16 1.84,5.12 1.84,1.96 4.56,1.96 2.72,0 4.56,-1.96 1.84,-1.96 1.84,-5.12 0,-3.12 -1.84,-5.08 -1.88,-2 -4.56,-2 -2.68,0 -4.56,2 -1.84,1.96 -1.84,5.08 z" />
      <path
         id="path849"
         style="font-style:normal;font-variant:normal;font-weight:normal;font-stretch:normal;font-family:'Product Sans';-inkscape-font-specification:'Product Sans';fill:#000000;fill-opacity:0.541176"
         d="m 371.30389,-250.4614 h -3.68 v -19.6 h 3.52 v 3.2 h 0.16 q 0.56,-1.56 2.28,-2.64 1.76,-1.12 3.44,-1.12 1.6,0 2.72,0.48 l -1.12,3.56 q -0.68,-0.28 -2.16,-0.28 -2.08,0 -3.64,1.68 -1.52,1.68 -1.52,3.92 z" />
    </g>
    <g
       style="fill:#000000;fill-opacity:0.541176"
       id="g884"
       inkscape:label="Education"
       transform="translate(-2.1213847)">
      <path
         id="path851"
         style="font-style:normal;font-variant:normal;font-weight:normal;font-stretch:normal;font-family:'Product Sans';-inkscape-font-specification:'Product Sans';fill:#000000;fill-opacity:0.541176"
         d="m 408.97616,-279.1014 v 3.52 h -13.04 v 9.08 h 11.76 v 3.44 h -11.76 v 9.08 h 13.04 v 3.52 h -16.72 v -28.64 z" />
      <path
         id="path853"
         style="font-style:normal;font-variant:normal;font-weight:normal;font-stretch:normal;font-family:'Product Sans';-inkscape-font-specification:'Product Sans';fill:#000000;fill-opacity:0.541176"
         d="m 421.35366,-253.1814 q 2.72,0 4.44,-1.96 1.8,-1.96 1.8,-5.12 0,-3.08 -1.8,-5.08 -1.76,-2 -4.44,-2 -2.64,0 -4.44,2 -1.8,2 -1.8,5.08 0,3.12 1.8,5.08 1.8,2 4.44,2 z m -0.6,3.36 q -3.84,0 -6.6,-3.04 -2.72,-3.08 -2.72,-7.4 0,-4.32 2.72,-7.4 2.76,-3.04 6.6,-3.04 2.16,0 3.92,0.92 1.8,0.92 2.76,2.44 h 0.16 l -0.16,-2.72 v -9.04 h 3.68 v 28.64 h -3.52 v -2.72 h -0.16 q -0.96,1.52 -2.76,2.44 -1.76,0.92 -3.92,0.92 z" />
      <path
         id="path855"
         style="font-style:normal;font-variant:normal;font-weight:normal;font-stretch:normal;font-family:'Product Sans';-inkscape-font-specification:'Product Sans';fill:#000000;fill-opacity:0.541176;stroke-width:0.999996"
         d="m 451.98946,-250.46128 h -3.51997 v -2.72 h -0.16 q -0.83999,1.44 -2.59998,2.4 -1.71998,0.96 -3.59997,0.96 -3.59997,0 -5.55996,-2.04 -1.91998,-2.08 -1.91998,-5.88 v -12.32 h 3.67997 v 12.08 q 0.12,4.8 4.83996,4.8 2.19999,0 3.67997,-1.76 1.47999,-1.8 1.47999,-4.28 v -10.84 h 3.67997 z" />
      <path
         id="path857"
         style="font-style:normal;font-variant:normal;font-weight:normal;font-stretch:normal;font-family:'Product Sans';-inkscape-font-specification:'Product Sans';fill:#000000;fill-opacity:0.541176"
         d="m 465.01354,-249.8213 q -4.36,0 -7.24,-2.96 -2.84,-3.04 -2.84,-7.48 0,-4.52 2.84,-7.48 2.88,-2.96 7.24,-2.96 3,0 5.24,1.52 2.24,1.48 3.36,4.12 l -3.36,1.4 q -1.56,-3.68 -5.48,-3.68 -2.52,0 -4.36,2.04 -1.8,2.04 -1.8,5.04 0,3 1.8,5.04 1.84,2.04 4.36,2.04 4.04,0 5.68,-3.68 l 3.28,1.4 q -1.08,2.64 -3.4,4.16 -2.28,1.48 -5.32,1.48 z" />
      <path
         id="path859"
         style="font-style:normal;font-variant:normal;font-weight:normal;font-stretch:normal;font-family:'Product Sans';-inkscape-font-specification:'Product Sans';fill:#000000;fill-opacity:0.541176"
         d="m 479.03747,-256.4613 q 0,1.44 1.2,2.4 1.24,0.96 2.88,0.96 2.32,0 4.12,-1.72 1.84,-1.72 1.84,-4.04 -1.72,-1.36 -4.8,-1.36 -2.24,0 -3.76,1.08 -1.48,1.08 -1.48,2.68 z m 4.76,-14.24 q 4.08,0 6.44,2.2 2.36,2.16 2.36,5.96 v 12.08 h -3.52 v -2.72 h -0.16 q -2.28,3.36 -6.08,3.36 -3.24,0 -5.44,-1.92 -2.16,-1.92 -2.16,-4.8 0,-3.04 2.28,-4.84 2.32,-1.8 6.16,-1.8 3.28,0 5.4,1.2 v -0.84 q 0,-1.92 -1.52,-3.24 -1.52,-1.36 -3.56,-1.36 -3.08,0 -4.88,2.6 l -3.24,-2.04 q 2.68,-3.84 7.92,-3.84 z" />
      <path
         id="path861"
         style="font-style:normal;font-variant:normal;font-weight:normal;font-stretch:normal;font-family:'Product Sans';-inkscape-font-specification:'Product Sans';fill:#000000;fill-opacity:0.541176"
         d="m 503.69863,-250.14154 q -2.4,0 -4,-1.48 -1.56,-1.48 -1.6,-4.12 v -10.96 h -3.44 v -3.36 h 3.44 v -6 h 3.68 v 6 h 4.8 v 3.36 h -4.8 v 9.76 q 0,1.96 0.76,2.68 0.76,0.68 1.72,0.68 0.44,0 0.84,-0.08 0.44,-0.12 0.8,-0.28 l 1.16,3.28 q -1.44,0.52 -3.36,0.52 z" />
      <path
         id="path863"
         style="font-style:normal;font-variant:normal;font-weight:normal;font-stretch:normal;font-family:'Product Sans';-inkscape-font-specification:'Product Sans';fill:#000000;fill-opacity:0.541176"
         d="m 513.98311,-276.8214 q 0,1.08 -0.76,1.84 -0.76,0.76 -1.84,0.76 -1.08,0 -1.84,-0.76 -0.76,-0.76 -0.76,-1.84 0,-1.08 0.76,-1.84 0.76,-0.76 1.84,-0.76 1.08,0 1.84,0.76 0.76,0.76 0.76,1.84 z m -0.76,6.76 v 19.6 h -3.68 v -19.6 z" />
      <path
         id="path865"
         style="font-style:normal;font-variant:normal;font-weight:normal;font-stretch:normal;font-family:'Product Sans';-inkscape-font-specification:'Product Sans';fill:#000000;fill-opacity:0.541176"
         d="m 516.28674,-260.2613 q 0,-4.52 2.84,-7.48 2.88,-2.96 7.24,-2.96 4.36,0 7.2,2.96 2.88,2.96 2.88,7.48 0,4.56 -2.88,7.48 -2.84,2.96 -7.2,2.96 -4.36,0 -7.24,-2.96 -2.84,-2.96 -2.84,-7.48 z m 3.68,0 q 0,3.16 1.84,5.12 1.84,1.96 4.56,1.96 2.72,0 4.56,-1.96 1.84,-1.96 1.84,-5.12 0,-3.12 -1.84,-5.08 -1.88,-2 -4.56,-2 -2.68,0 -4.56,2 -1.84,1.96 -1.84,5.08 z" />
      <path
         inkscape:label="path867"
         id="path867"
         style="font-style:normal;font-variant:normal;font-weight:normal;font-stretch:normal;font-family:'Product Sans';-inkscape-font-specification:'Product Sans';fill:#000000;fill-opacity:0.541176"
         d="m 539.23902,-270.0613 h 3.52 v 2.72 h 0.16 q 0.84,-1.44 2.56,-2.4 1.76,-0.96 3.64,-0.96 3.6,0 5.52,2.08 1.96,2.04 1.96,5.84 v 12.32 h -3.68 v -12.08 q -0.12,-4.8 -4.84,-4.8 -2.2,0 -3.68,1.8 -1.48,1.76 -1.48,4.24 v 10.84 h -3.68 z" />
    </g>
  </g>
  <g
     inkscape:label="Google"
     transform="matrix(0.69853302,0,0,-0.69852941,1,3)"
     id="use2460">
    <path
       id="path3053"
       d="m 0.7,-52.6 c 0,29 24.3,52.5 53.3,52.5 16,0 27.4,-6.3 36,-14.5 L 79.8,-24.7 c -6.1,5.8 -14.4,10.3 -25.8,10.3 -21.1,0 -37.6,-17 -37.6,-38.1 0,-21.1 16.5,-38.1 37.6,-38.1 13.7,0 21.5,5.5 26.5,10.5 4.1,4.1 6.8,10 7.8,18 H 54 v 14.3 h 48.3 c 0.5,-2.6 0.8,-5.6 0.8,-9 0,-10.8 -2.9,-24.1 -12.4,-33.5 C 81.4,-99.9 69.6,-105 54,-105 25,-105 0.7,-81.5 0.7,-52.6 Z"
       fill="#4285f4" />
    <path
       id="path3055"
       d="m 142,-37.5 c -18.7,0 -33.9,-14.2 -33.9,-33.8 0,-19.5 15.2,-33.8 33.9,-33.8 18.7,0 33.9,14.3 33.9,33.8 0,19.6 -15.2,33.8 -33.9,33.8 z m 0,-54.2 c -10.2,0 -19.1,8.4 -19.1,20.5 0,12.2 8.8,20.5 19.1,20.5 10.2,0 19.1,-8.3 19.1,-20.5 0,-12.1 -8.9,-20.5 -19.1,-20.5 z"
       fill="#ea4335" />
    <path
       id="path3057"
       d="m 216,-37.5 c -18.7,0 -33.9,-14.2 -33.9,-33.8 0,-19.5 15.2,-33.8 33.9,-33.8 18.7,0 33.9,14.3 33.9,33.8 0,19.6 -15.2,33.8 -33.9,33.8 z m 0,-54.2 c -10.2,0 -19.1,8.4 -19.1,20.5 0,12.2 8.8,20.5 19.1,20.5 10.3,0 19.1,-8.3 19.1,-20.5 0,-12.1 -8.9,-20.5 -19.1,-20.5 z"
       fill="#fbbc05" />
    <path
       id="path3059"
       d="M 306.8,-39.5 V -45 h -0.5 c -3.3,4 -9.7,7.6 -17.8,7.6 -16.9,0 -32.4,-14.8 -32.4,-33.9 0,-18.9 15.5,-33.7 32.4,-33.7 8.1,0 14.5,3.6 17.8,7.7 h 0.5 v -4.9 c 0,-12.9 -6.9,-19.8 -18,-19.8 -9.1,0 -14.7,6.5 -17,12 l -12.9,-5.4 c 3.7,-9 13.6,-20 30,-20 17.4,0 32.1,10.2 32.1,35.2 v 60.7 z m -17,-52.2 c -10.2,0 -18.8,8.6 -18.8,20.4 0,11.9 8.6,20.6 18.8,20.6 10.1,0 18,-8.7 18,-20.6 0.1,-11.9 -7.9,-20.4 -18,-20.4 z"
       fill="#4285f4" />
    <polygon
       id="polygon3061"
       points="346,-103 331.2,-103 331.2,-3.7 346,-3.7 "
       fill="#34a853" />
    <path
       id="path3063"
       d="m 386.7,-91.7 c -7.6,0 -12.9,3.5 -16.4,10.2 l 45.2,18.7 -1.5,3.8 c -2.8,7.6 -11.4,21.5 -28.9,21.5 -17.4,0 -31.9,-13.7 -31.9,-33.8 0,-18.9 14.3,-33.8 33.5,-33.8 15.5,0 24.4,9.5 28.2,15 l -11.5,7.7 c -3.9,-5.6 -9.1,-9.3 -16.7,-9.3 z m -1.1,41.2 c 5.9,0 10.9,-2.9 12.5,-7.2 l -30.2,-12.5 c -0.4,13 10.1,19.7 17.7,19.7 z"
       fill="#ea4335" />
    <polygon
       id="polygon3065"
       points="0,-136 416,-136 416,0 0,0 "
       fill="none" />
  </g>
</svg>
