<?xml version="1.0" encoding="UTF-8" standalone="no"?>
<!-- Created with Inkscape (http://www.inkscape.org/) -->

<svg
   xmlns:dc="http://purl.org/dc/elements/1.1/"
   xmlns:cc="http://creativecommons.org/ns#"
   xmlns:rdf="http://www.w3.org/1999/02/22-rdf-syntax-ns#"
   xmlns:svg="http://www.w3.org/2000/svg"
   xmlns="http://www.w3.org/2000/svg"
   xmlns:xlink="http://www.w3.org/1999/xlink"
   xmlns:sodipodi="http://sodipodi.sourceforge.net/DTD/sodipodi-0.dtd"
   xmlns:inkscape="http://www.inkscape.org/namespaces/inkscape"
   width="554.02899"
   height="142.03252"
   id="svg3310"
   version="1.1"
   inkscape:version="0.48.3.1 r9886"
   sodipodi:docname="webm-2012.svg"
   x="0"
   y="0">
  <defs
     id="defs3312">
    <filter
       inkscape:collect="always"
       id="filter3731"
       color-interpolation-filters="sRGB">
      <feGaussianBlur
         inkscape:collect="always"
         stdDeviation="0.82730657"
         id="feGaussianBlur3733" />
    </filter>
    <linearGradient
       inkscape:collect="always"
       xlink:href="#linearGradient3600"
       id="linearGradient3946"
       gradientUnits="userSpaceOnUse"
       x1="20.256382"
       y1="2.546674"
       x2="20.256382"
       y2="46.881901" />
    <linearGradient
       id="linearGradient3600">
      <stop
         style="stop-color:#8ae234;stop-opacity:1;"
         offset="0"
         id="stop3602" />
      <stop
         style="stop-color:#4e9a06;stop-opacity:1;"
         offset="1"
         id="stop3604" />
    </linearGradient>
    <linearGradient
       inkscape:collect="always"
       xlink:href="#linearGradient3632"
       id="linearGradient3948"
       gradientUnits="userSpaceOnUse"
       gradientTransform="matrix(2.0097425,0,0,2.0097425,66.739845,64.493577)"
       x1="6.4826794"
       y1="4.543263"
       x2="25.363527"
       y2="35.227882" />
    <linearGradient
       id="linearGradient3632">
      <stop
         style="stop-color:#ffffff;stop-opacity:0.54901963;"
         offset="0"
         id="stop3634" />
      <stop
         style="stop-color:#ffffff;stop-opacity:0;"
         offset="1"
         id="stop3636" />
    </linearGradient>
    <linearGradient
       inkscape:collect="always"
       xlink:href="#linearGradient3600"
       id="linearGradient3037"
       gradientUnits="userSpaceOnUse"
       x1="20.256382"
       y1="2.546674"
       x2="20.256382"
       y2="46.881901" />
    <linearGradient
       inkscape:collect="always"
       xlink:href="#linearGradient3632"
       id="linearGradient3039"
       gradientUnits="userSpaceOnUse"
       gradientTransform="matrix(2.0097425,0,0,2.0097425,66.739845,64.493577)"
       x1="6.4826794"
       y1="4.543263"
       x2="25.363527"
       y2="35.227882" />
    <linearGradient
       inkscape:collect="always"
       xlink:href="#linearGradient3600"
       id="linearGradient3041"
       gradientUnits="userSpaceOnUse"
       x1="20.256382"
       y1="2.546674"
       x2="20.256382"
       y2="46.881901" />
    <linearGradient
       inkscape:collect="always"
       xlink:href="#linearGradient3632"
       id="linearGradient3043"
       gradientUnits="userSpaceOnUse"
       gradientTransform="matrix(2.0097425,0,0,2.0097425,66.739845,64.493577)"
       x1="6.4826794"
       y1="4.543263"
       x2="25.363527"
       y2="35.227882" />
    <linearGradient
       inkscape:collect="always"
       xlink:href="#linearGradient3632"
       id="linearGradient3050"
       gradientUnits="userSpaceOnUse"
       gradientTransform="matrix(2.0097425,0,0,2.0097425,409.81763,109.54288)"
       x1="6.4826794"
       y1="4.543263"
       x2="25.363527"
       y2="35.227882" />
  </defs>
  <sodipodi:namedview
     id="base"
     pagecolor="#ffffff"
     bordercolor="#666666"
     borderopacity="1.0"
     inkscape:pageopacity="0"
     inkscape:pageshadow="2"
     inkscape:zoom="1"
     inkscape:cx="274.29849"
     inkscape:cy="-37.555166"
     inkscape:document-units="px"
     inkscape:current-layer="layer1"
     showgrid="false"
     fit-margin-top="5"
     fit-margin-left="5"
     fit-margin-bottom="5"
     fit-margin-right="5"
     inkscape:window-width="999"
     inkscape:window-height="699"
     inkscape:window-x="1329"
     inkscape:window-y="547"
     inkscape:window-maximized="0" />
  <metadata
     id="metadata3315">
    <rdf:RDF>
      <cc:Work
         rdf:about="">
        <dc:format>image/svg+xml</dc:format>
        <dc:type
           rdf:resource="http://purl.org/dc/dcmitype/StillImage" />
        <dc:title></dc:title>
        <dc:date>2012</dc:date>
        <dc:creator>
          <cc:Agent>
            <dc:title>Lo</dc:title>
          </cc:Agent>
        </dc:creator>
      </cc:Work>
    </rdf:RDF>
  </metadata>
  <g
     inkscape:label="Layer 1"
     inkscape:groupmode="layer"
     id="layer1"
     transform="translate(-88.699789,-72.774496)">
    <path
       transform="matrix(2.117828,0,0,2.117828,417.08554,106.31419)"
       d="M 39.454098,24.714287 20.256381,35.798093 1.0586662,46.8819 l 0,-22.167614 0,-22.1676119 19.1977168,11.0838069 z"
       inkscape:randomized="0"
       inkscape:rounded="0"
       inkscape:flatsided="false"
       sodipodi:arg2="1.0471976"
       sodipodi:arg1="0"
       sodipodi:r2="12.798477"
       sodipodi:r1="25.596954"
       sodipodi:cy="24.714287"
       sodipodi:cx="13.857143"
       sodipodi:sides="3"
       id="path3124"
       style="fill:#000000;fill-opacity:0.2869955;stroke:none;filter:url(#filter3731)"
       sodipodi:type="star" />
    <path
       transform="matrix(1.9050074,0,0,1.9050074,419.91815,111.38148)"
       d="M 39.454098,24.714287 20.256381,35.798093 1.0586662,46.8819 l 0,-22.167614 0,-22.1676119 19.1977168,11.0838069 z"
       inkscape:randomized="0"
       inkscape:rounded="0"
       inkscape:flatsided="false"
       sodipodi:arg2="1.0471976"
       sodipodi:arg1="0"
       sodipodi:r2="12.798477"
       sodipodi:r1="25.596954"
       sodipodi:cy="24.714287"
       sodipodi:cx="13.857143"
       sodipodi:sides="3"
       id="path3126"
       style="fill:url(#linearGradient3041);fill-opacity:1;stroke:#366a04;stroke-width:1.05497885;stroke-linejoin:round;stroke-miterlimit:4;stroke-opacity:1;stroke-dasharray:none"
       sodipodi:type="star" />
    <path
       sodipodi:nodetypes="ccc"
       id="path3128"
       d="m 423.85102,196.24044 0,-76.5619 66.13433,38.18269"
       style="fill:none;stroke:url(#linearGradient3050);stroke-width:2.00984168;stroke-linecap:butt;stroke-linejoin:miter;stroke-miterlimit:4;stroke-opacity:1;stroke-dasharray:none"
       inkscape:connector-curvature="0" />
    <g
       style="font-size:181.19909668px;font-style:normal;font-variant:normal;font-weight:bold;font-stretch:normal;text-align:start;line-height:125%;letter-spacing:0px;word-spacing:0px;writing-mode:lr-tb;text-anchor:start;fill:#333333;fill-opacity:1;stroke:#292929;stroke-width:2.24540329;stroke-miterlimit:4;stroke-opacity:1;font-family:Istok Web;-inkscape-font-specification:Istok Web Bold"
       id="text3134">
      <path
         d="m 510.96998,205.73636 c -3.53906,0 -5.30858,-1.76952 -5.30857,-5.30857 l 0,-82.28279 c -10e-6,-3.53896 1.76951,-5.30848 5.30857,-5.30857 l 13.97923,0 c 3.53901,9e-5 5.30853,1.76961 5.30857,5.30857 l 0,5.13161 0.3539,0 c 1.7105,-3.77489 4.60072,-6.75358 8.67066,-8.93608 4.06985,-2.18232 7.87432,-3.27353 11.41342,-3.27362 7.07803,9e-5 12.56354,1.65165 16.45656,4.95466 3.95185,3.3032 6.66512,6.9897 8.1398,11.05952 l 0.35391,0 c 5.13152,-6.66512 9.76177,-11.00044 13.89075,-13.00599 4.18777,-2.00537 9.52582,-3.0081 16.01418,-3.00819 8.72952,9e-5 16.07303,2.89031 22.03055,8.67066 6.01624,5.78052 9.02442,16.33866 9.02456,31.67445 l 0,49.01577 c -1.4e-4,3.53905 -1.76966,5.30857 -5.30856,5.30857 l -14.15618,0 c -3.53917,0 -5.30869,-1.76952 -5.30857,-5.30857 l 0,-42.64549 c -1.2e-4,-12.85847 -0.88488,-20.96877 -2.65428,-24.33093 -1.71066,-3.36202 -4.77782,-5.04306 -9.20152,-5.04314 -4.12899,8e-5 -7.90397,2.41842 -11.32494,7.25504 -3.42117,4.83676 -5.13171,14.80506 -5.13162,29.90493 l 0,34.85959 c -9e-5,3.53905 -1.76961,5.30857 -5.30857,5.30857 l -14.15618,0 c -3.53911,0 -5.30863,-1.76952 -5.30856,-5.30857 l 0,-42.64549 c -7e-5,-12.85847 -0.88483,-20.96877 -2.65429,-24.33093 -1.7106,-3.36202 -4.77776,-5.04306 -9.20151,-5.04314 -4.12894,8e-5 -7.90391,2.41842 -11.32495,7.25504 -3.42111,4.77778 -5.13165,14.74608 -5.13161,29.90493 l 0,34.85959 c -4e-5,3.53905 -1.76956,5.30857 -5.30857,5.30857 l -14.15618,0"
         style="line-height:125%;font-family:Istok Web;-inkscape-font-specification:Istok Web Bold"
         id="path3055"
         inkscape:connector-curvature="0" />
    </g>
    <g
       style="font-size:181.19909668px;font-style:normal;font-variant:normal;font-weight:bold;font-stretch:normal;text-align:start;line-height:125%;letter-spacing:0px;word-spacing:0px;writing-mode:lr-tb;text-anchor:start;fill:#333333;fill-opacity:1;stroke:#292929;stroke-width:2.24499989;stroke-miterlimit:4;stroke-opacity:1;font-family:PT Sans;-inkscape-font-specification:PT Sans Bold"
       id="text3147">
      <path
         d="m 172.1943,115.13681 16.48912,46.38697 3.26158,15.03952 0.7248,0 2.53679,-15.22072 11.59674,-46.20577 21.56269,0 -27.90466,91.50554 -17.39511,0 -18.30111,-50.73574 -2.35559,-11.41555 -0.90599,0 -2.17439,11.59675 -17.39512,50.55454 -17.93871,0 -29.173052,-91.50554 25.549072,0 13.22754,45.48097 2.17438,16.12672 0.906,0 3.08038,-16.30792 15.03953,-45.29977 17.39511,0 z"
         style="line-height:125%;letter-spacing:0.49462566;font-family:PT Sans;-inkscape-font-specification:PT Sans Bold"
         id="path3058"
         inkscape:connector-curvature="0" />
      <path
         d="m 308.39573,197.9448 c -3.62407,2.89919 -8.57684,5.37557 -14.85833,7.42916 -6.16083,1.93279 -12.74439,2.89918 -19.7507,2.89919 -14.61676,-10e-6 -25.3075,-4.22798 -32.07224,-12.68394 -6.76478,-8.57674 -10.14716,-20.29427 -10.14715,-35.15263 -1e-5,-15.94545 3.80517,-27.90458 11.41554,-35.87742 7.61034,-7.97267 18.30107,-11.95904 32.07224,-11.95914 4.59032,1e-4 9.0599,0.60409 13.40873,1.81199 4.34872,1.20809 8.21429,3.20128 11.59675,5.97957 3.3823,2.77847 6.10029,6.52325 8.15396,11.23435 2.0535,4.71124 3.0803,10.57001 3.08038,17.57631 -8e-5,2.53684 -0.18128,5.25483 -0.5436,8.15396 -0.24168,2.89923 -0.66448,5.91921 -1.26839,9.05995 l -54.35973,0 c 0.36237,7.6104 2.29516,13.34836 5.79837,17.21392 3.62394,3.8656 9.42231,5.79839 17.39512,5.79837 4.95271,2e-5 9.36189,-0.72478 13.22753,-2.17439 3.98631,-1.57037 7.00629,-3.14076 9.05995,-4.71118 l 7.79157,15.40193 z m -33.70304,-66.50007 c -6.16081,7e-5 -10.75118,1.87246 -13.77113,5.61717 -2.89922,3.62405 -4.65081,8.51642 -5.25477,14.67713 l 33.70303,0 c 0.48313,-6.52311 -0.54366,-11.53628 -3.08038,-15.03953 -2.41605,-3.50311 -6.28163,-5.2547 -11.59675,-5.25477 z"
         style="line-height:125%;letter-spacing:0.49462566;font-family:PT Sans;-inkscape-font-specification:PT Sans Bold"
         id="path3060"
         inkscape:connector-curvature="0" />
      <path
         d="m 328.42588,78.896991 23.55589,0 0,43.487779 0.72479,0 c 2.53675,-2.8991 5.79833,-5.19428 9.78475,-6.88556 3.98633,-1.6911 8.39551,-2.5367 13.22754,-2.53679 10.87187,9e-5 19.14662,3.74487 24.82427,11.23435 5.79829,7.36883 8.69747,18.66356 8.69756,33.88423 -9e-5,16.30795 -4.04687,28.68987 -12.14034,37.14581 -7.97283,8.45596 -18.96557,12.68394 -32.97824,12.68394 -7.7312,0 -14.79795,-0.6644 -21.20029,-1.99319 -6.40239,-1.208 -11.23436,-2.59719 -14.49593,-4.16758 l 0,-122.852989 z m 40.4074,53.997329 c -4.34882,7e-5 -7.9124,1.14767 -10.69075,3.44278 -2.65762,2.17446 -4.71121,5.37564 -6.16076,9.60356 l 0,39.5014 c 1.93275,0.96641 3.98634,1.63081 6.16076,1.99319 2.29515,0.36242 4.71114,0.54361 7.24797,0.5436 6.40231,1e-5 11.23428,-2.29517 14.49593,-6.88557 3.38231,-4.71115 5.0735,-12.1403 5.07357,-22.28749 -7e-5,-17.27425 -5.37563,-25.9114 -16.12672,-25.91147 z"
         style="line-height:125%;letter-spacing:0.49462566;font-family:PT Sans;-inkscape-font-specification:PT Sans Bold"
         id="path3062"
         inkscape:connector-curvature="0" />
    </g>
    <g
       inkscape:export-ydpi="40.861794"
       inkscape:export-xdpi="40.861794"
       inkscape:export-filename="/home/louquillio/working/website2012/media/images/webm-refresh.png"
       id="g3021"
       transform="translate(343.07779,231.04931)">
      <path
         transform="matrix(2.117828,0,0,2.117828,74.007754,61.264888)"
         d="M 39.454098,24.714287 20.256381,35.798093 1.0586662,46.8819 l 0,-22.167614 0,-22.1676119 19.1977168,11.0838069 z"
         inkscape:randomized="0"
         inkscape:rounded="0"
         inkscape:flatsided="false"
         sodipodi:arg2="1.0471976"
         sodipodi:arg1="0"
         sodipodi:r2="12.798477"
         sodipodi:r1="25.596954"
         sodipodi:cy="24.714287"
         sodipodi:cx="13.857143"
         sodipodi:sides="3"
         id="path3023"
         style="fill:#000000;fill-opacity:0.2869955;stroke:none;filter:url(#filter3731)"
         sodipodi:type="star" />
      <path
         transform="matrix(1.9050074,0,0,1.9050074,76.840358,66.332173)"
         d="M 39.454098,24.714287 20.256381,35.798093 1.0586662,46.8819 l 0,-22.167614 0,-22.1676119 19.1977168,11.0838069 z"
         inkscape:randomized="0"
         inkscape:rounded="0"
         inkscape:flatsided="false"
         sodipodi:arg2="1.0471976"
         sodipodi:arg1="0"
         sodipodi:r2="12.798477"
         sodipodi:r1="25.596954"
         sodipodi:cy="24.714287"
         sodipodi:cx="13.857143"
         sodipodi:sides="3"
         id="path3025"
         style="fill:url(#linearGradient3037);fill-opacity:1;stroke:#366a04;stroke-width:1.05497885;stroke-linejoin:round;stroke-miterlimit:4;stroke-opacity:1;stroke-dasharray:none"
         sodipodi:type="star" />
      <path
         sodipodi:nodetypes="ccc"
         id="path3027"
         d="m 80.773232,151.19113 0,-76.561892 66.134328,38.182682"
         style="fill:none;stroke:url(#linearGradient3039);stroke-width:2.00984168;stroke-linecap:butt;stroke-linejoin:miter;stroke-miterlimit:4;stroke-opacity:1;stroke-dasharray:none"
         inkscape:connector-curvature="0" />
      <text
         sodipodi:linespacing="125%"
         id="text3029"
         y="160.68706"
         x="150.55087"
         style="font-size:181.19909668px;font-style:normal;font-variant:normal;font-weight:bold;font-stretch:normal;text-align:start;line-height:125%;letter-spacing:0px;word-spacing:0px;writing-mode:lr-tb;text-anchor:start;fill:#333333;fill-opacity:1;stroke:#292929;stroke-width:2.24540329;stroke-miterlimit:4;stroke-opacity:1;stroke-dasharray:none;font-family:Istok Web;-inkscape-font-specification:Istok Web Bold"
         xml:space="preserve"><tspan
           y="160.68706"
           x="150.55087"
           id="tspan3031"
           sodipodi:role="line"
           style="font-size:181.19909668px;font-style:normal;font-variant:normal;font-weight:bold;font-stretch:normal;text-align:start;line-height:125%;writing-mode:lr-tb;text-anchor:start;stroke-width:2.24540329;font-family:Istok Web;-inkscape-font-specification:Istok Web Bold">m</tspan></text>
      <text
         xml:space="preserve"
         style="font-size:181.19909668px;font-style:normal;font-variant:normal;font-weight:bold;font-stretch:normal;text-align:start;line-height:125%;letter-spacing:0px;word-spacing:0px;writing-mode:lr-tb;text-anchor:start;fill:#333333;fill-opacity:1;stroke:#292929;stroke-width:2.24499989;stroke-miterlimit:4;stroke-opacity:1;stroke-dasharray:none;font-family:PT Sans;-inkscape-font-specification:PT Sans Bold"
         x="-246.80591"
         y="160.68706"
         id="text3033"
         sodipodi:linespacing="125%"><tspan
           sodipodi:role="line"
           id="tspan3035"
           x="-246.80591"
           y="160.68706"
           style="font-size:181.19909668px;font-style:normal;font-variant:normal;font-weight:bold;font-stretch:normal;text-align:start;line-height:125%;letter-spacing:0.49462566;writing-mode:lr-tb;text-anchor:start;stroke-width:2.24499989;stroke-miterlimit:4;stroke-dasharray:none;font-family:PT Sans;-inkscape-font-specification:PT Sans Bold">web</tspan></text>
    </g>
  </g>
</svg>

