<svg xmlns="http://www.w3.org/2000/svg" viewBox="0 0 432.5 109.9">
	<path fill="#3AB657" d="M.7 56C.7 45.7 3 36.5 7.6 28.4 12.2 20.2 18.7 13.8 27 9.2c8.3-4.6 17.7-6.9 28.2-6.9 9.6 0 18.3 2.1 26.2 6.2 7.9 4.1 13.9 9.8 18.1 17L81.7 36.4c-3-4.5-6.8-8-11.3-10.6C65.8 23.3 60.7 22 55 22c-9.5 0-17.3 3.2-23.5 9.5-6.2 6.3-9.3 14.4-9.3 24.4 0 10.2 3.2 18.4 9.4 24.6 6.2 6.2 14 9.3 23.3 9.3 11.5 0 20.5-4.7 27-14.2l16.8 12.1C94.2 94.7 88 100 80.4 104c-7.6 3.9-16 5.8-25.3 5.8-7.9 0-15.2-1.3-22-4-6.7-2.7-12.5-6.4-17.3-11.1C11.1 90 7.4 84.3 4.7 77.6 2 70.9.7 63.7.7 56zM119.3 98.8c-6.6-7.2-9.9-16.2-9.9-27 0-10.7 3.3-19.7 9.9-26.9 6.6-7.2 14.9-10.8 24.8-10.8 9 0 16.1 3.3 21.5 9.8V36h18.9v71.7h-18.9v-7.9c-5.3 6.6-12.5 9.8-21.5 9.8-9.8.1-18.1-3.6-24.8-10.8zm14.9-41c-3.4 3.8-5.1 8.5-5.1 14.1s1.7 10.4 5.1 14.2c3.4 3.8 7.9 5.6 13.4 5.6s9.9-1.9 13.4-5.6c3.4-3.8 5.1-8.5 5.1-14.2 0-5.7-1.7-10.5-5.1-14.2-3.4-3.7-7.9-5.6-13.4-5.6s-9.9 1.9-13.4 5.7zM204.6 107.8V1.2H224v106.6h-19.4zM245 21.3c-2.4-2.4-3.5-5.3-3.5-8.7 0-3.5 1.2-6.4 3.5-8.8 2.4-2.4 5.3-3.6 8.7-3.6 3.5 0 6.4 1.2 8.7 3.6 2.4 2.4 3.6 5.3 3.6 8.8 0 3.5-1.2 6.4-3.6 8.7-2.4 2.4-5.3 3.5-8.7 3.5-3.4.1-6.3-1.1-8.7-3.5zm-.8 86.5V36.1h19.4v71.7h-19.4zM279.4 71.9c0-10.9 3.5-19.9 10.6-27 7.1-7.1 16.3-10.7 27.6-10.7 6 0 11.4 1.2 16.3 3.5 5 2.4 9.1 5.7 12.4 10l-13.9 11.6c-4.4-4.8-9.5-7.2-15.3-7.2-5.1 0-9.4 1.8-12.9 5.5-3.4 3.7-5.1 8.4-5.1 14.2 0 5.9 1.7 10.6 5.1 14.3 3.4 3.7 7.7 5.5 12.8 5.5 5.9 0 11.1-2.4 15.6-7.3l13.8 11.8c-3.4 4.3-7.5 7.7-12.5 10-4.9 2.3-10.4 3.5-16.3 3.5-11.3 0-20.5-3.5-27.6-10.6-7.1-7.1-10.6-16.2-10.6-27.1zM354.3 71.9c0-5.3 1-10.3 2.9-15 2-4.7 4.6-8.7 8-12 3.4-3.3 7.5-6 12.3-7.9 4.8-1.9 10-2.9 15.5-2.9 11.2 0 20.5 3.6 27.8 10.8 7.4 7.2 11.1 16.2 11.1 27s-3.7 19.8-11.1 27c-7.4 7.2-16.6 10.8-27.8 10.8-7.3 0-13.9-1.6-19.9-4.9-5.9-3.3-10.5-7.8-13.8-13.5-3.3-5.8-5-12.3-5-19.4zm25-14.2c-3.6 3.7-5.3 8.4-5.3 14.2s1.8 10.5 5.3 14.2c3.6 3.7 8.2 5.6 13.7 5.6s10-1.9 13.7-5.6c3.7-3.7 5.5-8.5 5.5-14.2 0-5.8-1.8-10.5-5.5-14.2-3.6-3.7-8.2-5.6-13.7-5.6s-10.1 1.9-13.7 5.6z"/>
</svg>