<svg xmlns="http://www.w3.org/2000/svg" width="234.665px" height="54.679px" viewBox="0 0 234.665 54.679">
<g>
	<path fill="#000" d="M43.804,26.209c0.775,0,1.241,0.466,1.398,1.398c0,6.058-1.944,11.03-5.825,14.911   c-3.884,3.885-8.854,5.825-14.912,5.825c-2.796,0-5.476-0.582-8.039-1.747s-4.816-2.716-6.757-4.66   c-1.944-1.94-3.458-4.23-4.543-6.873c-1.088-2.64-1.631-5.359-1.631-8.155s0.583-5.552,1.748-8.271   c1.165-2.716,2.679-5.046,4.543-6.99c1.864-1.94,4.077-3.495,6.64-4.66s5.243-1.747,8.039-1.747c7.3,0,13.125,2.486,17.475,7.456   c0.153,0.312,0.153,0.622,0,0.932l-0.932,1.165l-0.233,0.233c-0.313,0-0.546-0.077-0.699-0.233v-0.233   c-3.885-4.503-9.087-6.757-15.611-6.757c-3.262,0-6.291,0.896-9.087,2.68c-2.796,1.788-5.009,4.157-6.641,7.106   c-1.631,2.953-2.446,6.059-2.446,9.32c0,5.126,1.784,9.517,5.359,13.164c3.572,3.651,7.842,5.476,12.815,5.476   c4.97,0,9.124-1.551,12.466-4.66c3.338-3.105,5.162-7.066,5.475-11.883H31.222c-0.313,0-0.546-0.076-0.699-0.232   c-0.157-0.153-0.157-0.387,0-0.699l0.932-1.165c0.31-0.466,0.852-0.699,1.631-0.699H43.804z M90.637,45.083   c0.466,0.156,0.735,0.35,0.815,0.582c0.076,0.233-0.04,0.507-0.35,0.816l-0.932,1.164c-0.156,0.157-0.313,0.233-0.466,0.233h-27.96   c-1.089,0-1.944-0.31-2.563-0.932c-0.466-0.775-0.699-1.551-0.699-2.33V6.871V6.637c0.153-0.31,0.386-0.466,0.699-0.466h1.398   c0.466,0.156,0.699,0.39,0.699,0.699v37.746c0,0.156,0.037,0.272,0.117,0.35c0.077,0.08,0.27,0.116,0.583,0.116H90.637z    M138.868,5.706c1.708,0.156,2.563,1.397,2.563,3.728v37.746c0,0.313-0.08,0.547-0.233,0.699c-0.157,0-0.313,0-0.466,0h-1.398   c-0.313,0-0.546-0.233-0.699-0.699V9.433l0.233-0.232c0-0.31-0.08-0.466-0.233-0.466h-0.233l-34.484,38.91   c-0.157,0.157-0.313,0.233-0.466,0.233h-2.563c-0.157,0-0.233-0.076-0.233-0.233c0-0.152,0-0.309,0-0.466l35.649-40.076   C137.08,6.171,137.936,5.706,138.868,5.706z M172.886,24.811c4.969,0.933,8.657,2.254,11.067,3.962   c2.406,1.711,3.611,4.273,3.611,7.688c0,3.575-1.398,6.447-4.194,8.621c-2.796,2.177-6.524,3.262-11.184,3.262   c-6.371,0-10.798-2.406-13.281-7.223c-0.156-0.153-0.156-0.31,0-0.466v-0.233h0.233l0.932-0.932   c0.153-0.153,0.31-0.233,0.466-0.233c0.153,0,0.31,0.156,0.466,0.466h0.233c0,0.157,0.077,0.313,0.233,0.467v0.232   c2.174,3.419,5.745,5.126,10.718,5.126c3.881,0,6.95-0.815,9.204-2.446c2.25-1.631,3.378-3.845,3.378-6.641   c0-2.482-0.896-4.387-2.68-5.708c-1.788-1.318-5.009-2.447-9.669-3.379c-5.592-1.085-9.32-2.563-11.184-4.427   c-1.864-1.864-2.796-4.038-2.796-6.524c0-3.262,1.282-5.941,3.845-8.038c2.563-2.098,5.941-3.146,10.135-3.146   c5.901,0,10.019,2.177,12.349,6.523c0.153,0.157,0.153,0.39,0,0.699l-0.932,0.932c-0.313,0.157-0.546,0.233-0.699,0.233   c-0.157,0-0.233-0.076-0.233-0.233l-0.233-0.232l-0.699-0.932c-0.157-0.31-0.39-0.619-0.699-0.933l0.233-0.232l-0.233,0.232   c-2.021-2.173-4.973-3.262-8.854-3.262c-2.177,0-4.118,0.35-5.825,1.049c-1.711,0.698-3.029,1.671-3.961,2.912   c-0.932,1.245-1.398,2.72-1.398,4.427c0,2.178,0.892,3.885,2.68,5.126C165.699,22.794,168.691,23.879,172.886,24.811z    M214.826,24.811c5.126,0.933,8.854,2.254,11.183,3.962c2.33,1.711,3.496,4.273,3.496,7.688c0,3.575-1.398,6.447-4.194,8.621   c-2.796,2.177-6.524,3.262-11.184,3.262c-6.371,0-10.798-2.406-13.281-7.223c-0.157-0.153-0.157-0.31,0-0.466l0.233-0.233   l0.932-0.932c0.153-0.153,0.309-0.233,0.466-0.233c0.153,0,0.386,0.156,0.699,0.466l0.233,0.467l0.233,0.232   c2.017,3.419,5.512,5.126,10.485,5.126c2.64,0,4.893-0.386,6.757-1.165c1.864-0.775,3.299-1.824,4.311-3.146   c1.008-1.317,1.514-2.912,1.514-4.776c0-1.707-0.389-3.105-1.164-4.194c-0.779-1.085-2.021-2.017-3.729-2.796   c-1.711-0.775-4.194-1.475-7.456-2.097c-5.592-1.085-9.32-2.563-11.184-4.427c-1.864-1.864-2.796-4.038-2.796-6.524   c0-3.262,1.282-5.941,3.845-8.038c2.563-2.098,5.941-3.146,10.135-3.146c5.901,0,10.019,2.177,12.349,6.523   c0.153,0.157,0.153,0.39,0,0.699l-0.932,0.932c-0.156,0.157-0.312,0.233-0.466,0.233h-0.233c-0.156,0-0.232-0.076-0.232-0.233   l-0.233-0.232l-0.699-0.932c-0.157-0.31-0.39-0.619-0.699-0.933l0.233-0.232l-0.233,0.232c-2.021-2.173-4.973-3.262-8.854-3.262   c-2.177,0-4.117,0.35-5.825,1.049c-1.711,0.698-3.029,1.671-3.961,2.912c-0.932,1.245-1.398,2.72-1.398,4.427   c0,2.178,0.892,3.885,2.68,5.126C207.639,22.794,210.631,23.879,214.826,24.811z"/>
</g>
</svg>