<svg xmlns="http://www.w3.org/2000/svg" xmlns:xlink="http://www.w3.org/1999/xlink" viewBox="0 0 142 19">
    <g fill="#5F6368" fill-rule="evenodd" transform="translate(.254 .795)">
      <path d="M14.7046071,2.16923077 L11.5565179,14.1025641 L10.0071964,14.1025641 L7.46894643,6.23589744 L7.40301786,6.23589744 L4.86476786,14.1025641 L3.31544643,14.1025641 L0.0355,2.16923077 L1.61778571,2.16923077 L4.10658929,11.5525641 L4.17251786,11.5525641 L6.72725,3.76923077 L8.14471429,3.76923077 L10.6994464,11.5525641 L10.765375,11.5525641 L13.1223214,2.16923077 L14.7046071,2.16923077 Z M18.3902679,14.3692308 C15.9179464,14.3692308 14.2697321,12.4858974 14.2697321,10.0192308 C14.2697321,7.7025641 15.8520179,5.66923077 18.2254464,5.66923077 C20.6318393,5.66923077 22.1811607,7.38589744 22.1811607,10.0192308 C22.1811607,10.1358974 22.1646786,10.3025641 22.1646786,10.3025641 L15.7860893,10.3025641 C15.8685,12.0358974 17.1046607,12.9692308 18.3573036,12.9692308 C19.2473393,12.9692308 20.137375,12.6025641 20.5659107,11.5692308 L21.9174464,12.1358974 C21.4394643,13.3025641 20.25275,14.3692308 18.3902679,14.3692308 Z M20.5659107,9.03589744 C20.5164643,8.31923077 19.9231071,7.06923077 18.1924821,7.06923077 C17.0716964,7.06923077 16.1816607,7.83589744 15.8849821,9.03589744 L20.5659107,9.03589744 Z M25.9492321,14.3692308 C24.3010179,14.3692308 22.933,13.3358974 22.933,11.6358974 C22.933,9.78589744 24.5812143,8.78589744 26.4766607,8.78589744 C27.5644821,8.78589744 28.355625,9.1025641 28.6687857,9.28589744 L28.6687857,9.0525641 C28.6687857,7.81923077 27.6963393,7.06923077 26.5590714,7.06923077 C25.7184821,7.06923077 24.9108571,7.48589744 24.6306607,8.2525641 L23.2461607,7.6525641 C23.5263571,6.9025641 24.4988036,5.66923077 26.5261071,5.66923077 C28.5039643,5.66923077 30.1192143,6.86923077 30.1192143,9.16923077 L30.1192143,14.1025641 L28.6687857,14.1025641 L28.6687857,12.9692308 L28.6028571,12.9692308 C28.1578393,13.6525641 27.3337321,14.3692308 25.9492321,14.3692308 Z M26.1964643,12.9692308 C27.3996607,12.9692308 28.6687857,11.9192308 28.6687857,10.5858974 C28.6687857,10.5858974 28.0259821,10.0525641 26.740375,10.0525641 C25.1416071,10.0525641 24.5152857,10.9192308 24.5152857,11.6692308 C24.5152857,12.5358974 25.4053214,12.9692308 26.1964643,12.9692308 Z M33.0961429,14.1025641 L33.0961429,9.63589744 C33.0961429,8.13589744 34.151,7.2525641 35.189375,7.2525641 C35.5190179,7.2525641 35.7827321,7.28589744 35.997,7.36923077 L36.573875,5.93589744 C36.2607143,5.8025641 35.9310714,5.73589744 35.4366071,5.73589744 C34.5960179,5.73589744 33.4257857,6.33589744 33.0961429,7.26923077 L33.0302143,7.26923077 L33.0302143,5.93589744 L31.5797857,5.93589744 L31.5797857,14.1025641 L33.0961429,14.1025641 Z M46.1043571,14.3692308 C42.626625,14.3692308 40.0389286,11.6025641 40.0389286,8.13589744 C40.0389286,4.68589744 42.626625,1.9025641 46.1043571,1.9025641 C49.5656071,1.9025641 52.1697857,4.68589744 52.1697857,8.13589744 C52.1697857,11.6025641 49.5656071,14.3692308 46.1043571,14.3692308 Z M46.1043571,12.9025641 C48.5931607,12.9025641 50.6204643,10.9692308 50.6204643,8.13589744 C50.6204643,5.3025641 48.5931607,3.36923077 46.1043571,3.36923077 C43.6155536,3.36923077 41.58825,5.3025641 41.58825,8.13589744 C41.58825,10.9692308 43.6155536,12.9025641 46.1043571,12.9025641 Z M57.0421607,14.3692308 C58.8551964,14.3692308 60.9813929,13.3358974 60.9813929,10.9192308 C60.9813929,8.5025641 59.1024286,7.66923077 57.1245714,7.03589744 C55.7730357,6.58589744 54.883,6.03589744 54.883,5.08589744 C54.883,4.08589744 55.8554464,3.36923077 56.9927143,3.36923077 C58.34425,3.36923077 59.0694643,4.26923077 59.2342857,4.9025641 L60.6187857,4.31923077 C60.3221071,3.36923077 59.1848393,1.9025641 56.95975,1.9025641 C54.7346607,1.9025641 53.3336786,3.4525641 53.3336786,5.08589744 C53.3336786,6.78589744 54.5203929,7.76923077 56.5147321,8.4025641 C58.34425,8.96923077 59.4320714,9.53589744 59.4320714,10.9525641 C59.4320714,12.2192308 58.2783214,12.9025641 57.0421607,12.9025641 C55.7400714,12.9025641 54.6357679,11.8525641 54.306125,10.5692308 L52.921625,11.1358974 C53.4655357,13.3358974 55.5093214,14.3692308 57.0421607,14.3692308 Z M69.9514821,14.3692308 C68.665875,14.3692308 67.6604643,13.7192308 67.1989643,12.9692308 L67.1330357,12.9692308 L67.1330357,14.1025641 L65.6826071,14.1025641 L65.6826071,2.16923077 L67.1989643,2.16923077 L67.1989643,5.93589744 L67.1330357,7.06923077 L67.1989643,7.06923077 C67.6604643,6.31923077 68.665875,5.66923077 69.9514821,5.66923077 C71.9952679,5.66923077 73.7918214,7.51923077 73.7918214,10.0192308 C73.7918214,12.5192308 71.9952679,14.3692308 69.9514821,14.3692308 Z M69.70425,12.9692308 C71.0557857,12.9692308 72.2754643,11.8525641 72.2754643,10.0192308 C72.2754643,8.18589744 71.0557857,7.06923077 69.70425,7.06923077 C68.3527143,7.06923077 67.1330357,8.1525641 67.1330357,10.0192308 C67.1330357,11.8858974 68.3527143,12.9692308 69.70425,12.9692308 Z M76.7522679,17.7025641 L75.1864643,17.7025641 L77.0654286,13.5858974 L73.7360357,5.93589744 L75.38425,5.93589744 L77.7906429,11.8025641 L77.8236071,11.8025641 L80.1640714,5.93589744 L81.8122857,5.93589744 L76.7522679,17.7025641 Z"/>
      <g fill-rule="nonzero" transform="translate(86.468)">
        <path d="M6.9937628 14.1025641C3.19312687 14.1025641 0 10.9366824 0 7.05128205 0 3.16588174 3.19312687 0 6.9937628 0 9.09781855 0 10.5943653.840700653 11.7204796 1.9464871L10.3943318 3.30221157C9.58678926 2.52967584 8.4903095 1.92376546 6.9937628 1.92376546 4.21552016 1.92376546 2.04478658 4.21107714 2.04478658 7.05128205 2.04478658 9.89148696 4.21552016 12.1787986 6.9937628 12.1787986 8.79406403 12.1787986 9.81645732 11.4365584 10.4758269 10.770057 11.0166581 10.2171638 11.3648645 9.42948029 11.4982202 8.34641549L6.9937628 8.34641549 6.9937628 6.41507615 13.3355647 6.41507615C13.4022425 6.75590074 13.4392857 7.17246413 13.4392857 7.61932303 13.4392857 9.06593407 13.0540361 10.8533697 11.8093834 12.1257815 10.5943653 13.413341 9.05336667 14.1025641 6.9937628 14.1025641zM23.5821429 9.61538462C23.5821429 12.1998202 21.5924009 14.1025641 19.1446429 14.1025641 16.6968848 14.1025641 14.7071429 12.1998202 14.7071429 9.61538462 14.7071429 7.01596678 16.6968848 5.12820513 19.1446429 5.12820513 21.5924009 5.12820513 23.5821429 7.01596678 23.5821429 9.61538462zM21.6374517 9.61538462C21.6374517 7.9973032 20.4811488 6.8961089 19.1446429 6.8961089 17.8081369 6.8961089 16.6518341 8.00479432 16.6518341 9.61538462 16.6518341 11.2109927 17.8081369 12.3346603 19.1446429 12.3346603 20.4811488 12.3346603 21.6374517 11.2184838 21.6374517 9.61538462zM33.2178571 9.61538462C33.2178571 12.1998202 31.2281152 14.1025641 28.7803571 14.1025641 26.3401076 14.1025641 24.3428571 12.1998202 24.3428571 9.61538462 24.3428571 7.01596678 26.3325991 5.12820513 28.7803571 5.12820513 31.2281152 5.12820513 33.2178571 7.01596678 33.2178571 9.61538462zM31.2806744 9.61538462C31.2806744 7.9973032 30.1243715 6.8961089 28.7878656 6.8961089 27.4513597 6.8961089 26.2950568 8.00479432 26.2950568 9.61538462 26.2950568 11.2109927 27.4513597 12.3346603 28.7878656 12.3346603 30.1243715 12.3421514 31.2806744 11.2184838 31.2806744 9.61538462zM42.8535714 5.40129607L42.8535714 13.343076C42.8535714 16.6127866 40.895179 17.9487179 38.5766225 17.9487179 36.3931276 17.9487179 35.0875326 16.5094549 34.592307 15.3359019L36.31059 14.6347224C36.6182301 15.3580444 37.3685721 16.2068406 38.5766225 16.2068406 40.0622995 16.2068406 40.9777166 15.2989977 40.9777166 13.6087861L40.9777166 12.9740342 40.9101859 12.9740342C40.4674841 13.5128353 39.6120944 13.977828 38.5391054 13.977828 36.2880797 13.977828 34.2321429 12.0514297 34.2321429 9.57146864 34.2321429 7.07674594 36.2955831 5.12820513 38.5391054 5.12820513 39.6120944 5.12820513 40.4674841 5.60057866 40.9101859 6.11723721L40.9777166 6.11723721 40.9777166 5.40129607 42.8535714 5.40129607zM41.1127782 9.57884948C41.1127782 8.021493 40.0547961 6.87746335 38.7116841 6.87746335 37.3460618 6.87746335 36.2055421 8.01411216 36.2055421 9.57884948 36.2055421 11.1214443 37.3460618 12.2433314 38.7116841 12.2433314 40.0547961 12.2433314 41.1127782 11.1214443 41.1127782 9.57884948z"/>
        <polygon points="45.896 .513 45.896 13.59 44.121 13.59 44.121 .513"/>
        <path d="M53.6882602,11.0911348 L55.1972067,12.1099268 C54.7090181,12.8440563 53.5329275,14.1025641 51.4988084,14.1025641 C48.9765008,14.1025641 47.1642857,12.1324002 47.1642857,9.61538462 C47.1642857,6.94854672 48.9986912,5.12820513 51.2843013,5.12820513 C53.584705,5.12820513 54.7090181,6.97851119 55.0788579,7.98232096 L55.2785714,8.49171696 L49.3537375,10.978768 C49.804942,11.8777022 50.5150345,12.3421514 51.5062052,12.3421514 C52.497376,12.3421514 53.185278,11.8402466 53.6882602,11.0911348 Z M49.0356752,9.47305338 L53.0003581,7.81002526 C52.7784542,7.24819143 52.1275361,6.85865331 51.3508725,6.85865331 C50.3597018,6.85865331 48.9838976,7.7426052 49.0356752,9.47305338 Z"/>
      </g>
    </g>
</svg>