<svg version="1.1" xmlns="http://www.w3.org/2000/svg" viewBox="0 0 469.7 359">
<circle fill="#00A94B" cx="369.9" cy="146.4" r="48.7"/>
<circle fill="#FF4131" cx="424.2" cy="46.3" r="45.5"/>
<path fill="#FFBC00" d="M305.5,359c-17.4,0-34.1-10.1-41.6-27L144.6,64.1c-10.2-23,0.1-49.9,23.1-60.1c23-10.2,49.9,0.1,60.1,23.1 l119.3,267.9c10.2,23-0.1,49.9-23.1,60.1C318,357.8,311.7,359,305.5,359z"/>
<path fill="#0085F7" d="M164.7,358.3c-19,0-37.1-11-45.3-29.4L4.3,70.3C-6.8,45.3,4.4,16,29.4,4.9S83.7,5,94.8,30l115.1,258.6 c11.1,25-0.1,54.3-25.1,65.4C178.3,356.9,171.4,358.3,164.7,358.3z"/>
</svg>
