<?xml version="1.0" encoding="utf-8"?>
<!-- Generator: Adobe Illustrator 19.1.0, SVG Export Plug-In . SVG Version: 6.00 Build 0)  -->
<svg version="1.1" xmlns="http://www.w3.org/2000/svg" xmlns:xlink="http://www.w3.org/1999/xlink" x="0px" y="0px"
	 viewBox="0 0 308 150" style="enable-background:new 0 0 308 150;" xml:space="preserve">
<style type="text/css">
	.st0{display:none;}
	.st1{display:inline;fill:#4285F4;}
	.st2{font-family:'ProductSans-Regular';}
	.st3{font-size:124px;}
	.st4{display:inline;fill:#EA4335;}
	.st5{display:inline;fill:#FBBC05;}
	.st6{display:inline;fill:#34A853;}
	.st7{fill:#4285F4;}
	.st8{fill:#EA4335;}
	.st9{fill:#FBBC05;}
	.st10{fill:#34A853;}
	.st11{fill:#717171;}
	.st12{fill:none;}
</style>
<g id="green">
	<text id="edit" transform="matrix(1 0 0 1 -3 119.5)" class="st0"><tspan x="0" y="0" class="st1 st2 st3">g</tspan><tspan x="71.4" y="0" class="st4 st2 st3">r</tspan><tspan x="116.4" y="0" class="st5 st2 st3">e</tspan><tspan x="182.9" y="0" class="st1 st2 st3">e</tspan><tspan x="249.4" y="0" class="st6 st2 st3">n</tspan></text>
	<g>
		<path class="st7" d="M30.3,150c-7.3,0-13.3-1.8-17.9-5.5c-4.6-3.6-7.9-7.8-9.9-12.5l10.6-4.4c1.2,3.4,3.3,6.2,6.5,8.4
			c3.1,2.3,6.7,3.4,10.8,3.4c6.4,0,11.4-1.9,15-5.7c3.6-3.8,5.5-9,5.5-15.5v-5.9h-0.5c-2,3-4.9,5.5-8.6,7.5c-3.7,2-7.8,3-12.5,3
			c-8,0-14.8-3.1-20.6-9.4C2.9,107.1,0,99.3,0,90c0-9.3,2.9-17.1,8.7-23.4c5.8-6.3,12.7-9.4,20.6-9.4c4.6,0,8.8,1,12.5,3
			c3.7,2,6.5,4.5,8.6,7.5h0.5v-8.6h11.1v58.5c0,10.6-3.1,18.6-9.2,24.1C46.6,147.3,39.1,150,30.3,150z M31.2,112.3
			c5.5,0,10.1-2,13.9-6c3.8-4,5.7-9.4,5.7-16.2s-1.9-12.2-5.7-16.2c-3.8-4-8.5-6-13.9-6c-5.4,0-10,2-13.8,6.1
			c-3.9,4.1-5.8,9.5-5.8,16.2c0,6.7,1.9,12.1,5.8,16.2C21.2,110.2,25.8,112.3,31.2,112.3z"/>
		<path class="st8" d="M87.6,120.8H76V59.2h11.1v10.1h0.5c1.2-3.4,3.6-6.1,7.2-8.3c3.6-2.2,7.2-3.3,10.6-3.3c3.4,0,6.3,0.5,8.7,1.5
			L109.7,70c-1.5-0.6-3.6-0.9-6.2-0.9c-4.2,0-7.9,1.7-11.1,5c-3.2,3.3-4.8,7.7-4.8,13V120.8z"/>
		<path class="st9" d="M145.8,122.8c-9.3,0-16.9-3.1-22.7-9.3c-5.8-6.2-8.7-14-8.7-23.5c0-9,2.8-16.7,8.5-23.2
			c5.7-6.5,12.9-9.7,21.7-9.7c9.1,0,16.5,3,22,8.9c5.5,6,8.2,13.9,8.2,23.9l-0.1,2.1h-48.7c0.3,6.2,2.4,11.1,6.2,14.7
			c3.8,3.6,8.3,5.4,13.4,5.4c8.3,0,13.9-3.5,16.9-10.6l10.3,4.3c-2,4.8-5.3,8.8-9.9,12C158.2,121.2,152.5,122.8,145.8,122.8z
			 M162.4,82.6c-0.3-3.5-1.9-6.9-4.8-10.1c-3-3.2-7.4-4.8-13.3-4.8c-4.3,0-8,1.3-11.1,4c-3.1,2.7-5.3,6.3-6.5,10.8H162.4z"/>
		<path class="st7" d="M213.9,122.8c-9.3,0-16.9-3.1-22.7-9.3c-5.8-6.2-8.7-14-8.7-23.5c0-9,2.8-16.7,8.5-23.2
			c5.7-6.5,12.9-9.7,21.7-9.7c9.1,0,16.5,3,22,8.9c5.5,6,8.2,13.9,8.2,23.9l-0.1,2.1H194c0.3,6.2,2.4,11.1,6.2,14.7
			c3.8,3.6,8.3,5.4,13.4,5.4c8.3,0,13.9-3.5,16.9-10.6l10.3,4.3c-2,4.8-5.3,8.8-9.9,12C226.3,121.2,220.6,122.8,213.9,122.8z
			 M230.5,82.6c-0.3-3.5-1.9-6.9-4.8-10.1c-3-3.2-7.4-4.8-13.3-4.8c-4.3,0-8,1.3-11.1,4c-3.1,2.7-5.3,6.3-6.5,10.8H230.5z"/>
		<path class="st10" d="M264.5,59.2v8.6h0.5c1.7-2.9,4.3-5.4,7.9-7.5c3.6-2.1,7.5-3.1,11.6-3.1c7.6,0,13.5,2.3,17.5,7
			c4,4.7,6,11,6,18.9v37.7h-11.6v-36c0-11.4-5.1-17.1-15.2-17.1c-4.8,0-8.7,1.9-11.7,5.7c-3,3.8-4.5,8.2-4.5,13.3v34.1h-11.6V59.2
			H264.5z"/>
	</g>
</g>
<g id="Google">
	<g>
		<g>
			<path class="st11" d="M18.3,36.4C8.4,36.4,0,28.3,0,18.4s8.4-18,18.3-18c5.5,0,9.4,2.2,12.4,5l-3.5,3.5c-2.1-2-5-3.5-8.9-3.5
				C11,5.3,5.4,11.1,5.4,18.4c0,7.3,5.7,13.1,12.9,13.1c4.7,0,7.4-1.9,9.1-3.6c1.4-1.4,2.3-3.4,2.7-6.2H18.3v-4.9h16.5
				c0.2,0.9,0.3,1.9,0.3,3.1c0,3.7-1,8.3-4.3,11.5C27.7,34.7,23.7,36.4,18.3,36.4z"/>
			<path class="st11" d="M60,24.8c0,6.7-5.2,11.6-11.7,11.6s-11.7-4.9-11.7-11.6c0-6.7,5.2-11.6,11.7-11.6S60,18.1,60,24.8z
				 M54.9,24.8c0-4.2-3-7-6.6-7s-6.6,2.9-6.6,7c0,4.1,3,7,6.6,7S54.9,29,54.9,24.8z"/>
			<path class="st11" d="M85.2,24.8c0,6.7-5.2,11.6-11.7,11.6s-11.7-4.9-11.7-11.6c0-6.7,5.2-11.6,11.7-11.6S85.2,18.1,85.2,24.8z
				 M80.1,24.8c0-4.2-3-7-6.6-7s-6.6,2.9-6.6,7c0,4.1,3,7,6.6,7S80.1,29,80.1,24.8z"/>
			<path class="st11" d="M109.2,14v20.8c0,8.6-5,12.1-11,12.1c-5.6,0-9-3.8-10.3-6.9l4.4-1.8c0.8,1.9,2.7,4.1,5.8,4.1
				c3.8,0,6.2-2.4,6.2-6.8v-1.7h-0.2c-1.1,1.4-3.3,2.6-6.1,2.6c-5.8,0-11.1-5.1-11.1-11.6c0-6.6,5.3-11.7,11.1-11.7
				c2.8,0,5,1.2,6.1,2.6h0.2V14H109.2z M104.8,24.9c0-4.1-2.7-7.1-6.2-7.1c-3.5,0-6.5,3-6.5,7.1c0,4,2.9,7,6.5,7
				C102.1,31.9,104.8,28.9,104.8,24.9z"/>
			<path class="st11" d="M117.6,1.6v34.1h-5.1V1.6H117.6z"/>
			<path class="st11" d="M137,28.6l4,2.6c-1.3,1.9-4.4,5.1-9.7,5.1c-6.6,0-11.5-5.1-11.5-11.6c0-6.9,5-11.6,10.9-11.6
				c6,0,9,4.8,9.9,7.4l0.5,1.3l-15.5,6.4c1.2,2.3,3,3.5,5.6,3.5C133.9,31.9,135.7,30.6,137,28.6z M124.9,24.5l10.4-4.3
				c-0.6-1.5-2.3-2.5-4.3-2.5C128.3,17.7,124.7,20,124.9,24.5z"/>
		</g>
		<rect class="st12" width="142" height="47.6"/>
	</g>
</g>
</svg>