<svg xmlns="http://www.w3.org/2000/svg" viewBox="0 0 44 41"><path fill="#2A56C6" d="M42.8 14.6l-7.7-5.7L23.8.6C23.3.2 22.7 0 22 0s-1.3.2-1.8.6l-19 14c-.6.4-1 1-1.1 1.7-.1.2-.1.5-.1.7h44c0-1-.5-1.9-1.2-2.4z"/><path fill="#1C3AA9" d="M42.8 14.6l-7.7-5.7L23.8.6C23.3.2 22.7 0 22 0s-1.3.2-1.8.6l-19 14c-.6.4-1 1-1.1 1.7-.1.2-.1.5-.1.7h44c0-1-.5-1.9-1.2-2.4z" opacity=".4"/><path fill="#FFF" fill-opacity=".2" d="M1.2 14.8l19-14c.5-.4 1.1-.6 1.8-.6s1.3.2 1.8.6l19 14c.7.5 1.1 1.3 1.2 2.2 0-1-.5-1.9-1.2-2.4l-19-14C23.3.2 22.7 0 22 0s-1.3.2-1.8.6l-19 14c-.2.1-.4.3-.5.5-.4.5-.7 1.2-.7 1.9.1-.9.5-1.7 1.2-2.2z"/><path fill="#3B78E7" d="M0 17v21c0 1.7 1.3 3 3 3h38c1.7 0 3-1.3 3-3V17H0z"/><path fill="#3367D6" d="M0 17v21c0 1.7 1.3 3 3 3h38c1.7 0 3-1.3 3-3V17H0z" opacity=".4"/><linearGradient id="a" x1="11498.8184" x2="11532.6172" y1="8522.3193" y2="8556.1172" gradientTransform="matrix(.25 0 0 .25 -2845.5 -2115.5)" gradientUnits="userSpaceOnUse"><stop offset="0" stop-color="#1c3aa9" stop-opacity=".2"/><stop offset="1" stop-color="#1c3aa9" stop-opacity=".02"/></linearGradient><path fill="url(#a)" d="M42.8 14.6l-7.7-5.7L22 17v5l19 19c1.7 0 3-1.3 3-3V17c0-1-.5-1.9-1.2-2.4z"/><linearGradient id="b" x1="11514" x2="11514" y1="8497.5996" y2="8530.8398" gradientTransform="matrix(.25 0 0 .25 -2845.5 -2115.5)" gradientUnits="userSpaceOnUse"><stop offset="0" stop-color="#1c3aa9" stop-opacity=".2"/><stop offset="1" stop-color="#1c3aa9" stop-opacity=".02"/></linearGradient><path fill="url(#b)" d="M42.8 14.6l-7.7-5.7L22 17v5l19 19c1.7 0 3-1.3 3-3V17c0-1-.5-1.9-1.2-2.4z"/><path fill="#FFF" fill-opacity=".05" d="M0 17h44v.2H0z"/><path fill="#1A237E" fill-opacity=".05" d="M44 17v-.2H0v.2h44z"/><path fill="#03A9F4" d="M0 38c0 1.7 1.3 3 3 3h38L0 17v21z"/><path fill="#1A237E" fill-opacity=".1" d="M41 40.8L.4 17H0l40.6 23.8z"/><path fill="#4FC3F7" d="M3 41h38c1.7 0 3-1.3 3-3V17L3 41z"/><path fill="#262626" fill-opacity=".2" d="M41 40.8H3c-1.7 0-3-1.3-3-3v.2c0 1.7 1.3 3 3 3h38c1.7 0 3-1.3 3-3v-.2c0 1.6-1.3 3-3 3z"/><path fill="#E1E1E1" d="M16.5 11.5L14 14l8 8L35.1 8.9l3.4-3.4L36 3l-3.8 3.8L22 17z"/><path fill="#FFF" fill-opacity=".4" d="M16.5 11.5L14 14l.1.1 2.4-2.3 5.5 5.4L36 3.3l2.2 2.2h.3L36 3l-3.8 3.8L22 17z"/><path fill="#262626" fill-opacity=".1" d="M22 21.8l-7.9-7.9-.1.1 8 8L35.1 8.9l3.4-3.4h-.3z"/><path fill="#262626" fill-opacity=".1" d="M35.1 8.9L22 22l-7.9-7.9-.1.1 8 8L35.2 9z"/><path fill="#FFF" fill-opacity=".1" d="M44 17L3 41h.4L44 17.2z"/><path fill="#1A237E" fill-opacity=".1" d="M21.8 29.8l.2.1L44 17h-.4z"/><radialGradient id="c" cx="11417.4297" cy="8497.4131" r="185.7808" gradientTransform="matrix(.25 0 0 .25 -2845.5 -2115.5)" gradientUnits="userSpaceOnUse"><stop offset="0" stop-color="#fff" stop-opacity=".1"/><stop offset="1" stop-color="#fff" stop-opacity="0"/></radialGradient><path fill="url(#c)" d="M42.8 14.6l-7.7-5.7 3.4-3.4L36 3l-3.8 3.8L23.8.6C23.3.2 22.7 0 22 0s-1.3.2-1.8.6l-19 14C.5 15.1 0 16 0 17v21c0 1.7 1.3 3 3 3h38c1.7 0 3-1.3 3-3V17c0-1-.5-1.9-1.2-2.4z"/></svg>