<svg xmlns="http://www.w3.org/2000/svg" viewBox="0 0 2108 2109">
	<linearGradient id="a" x1="2915.9" x2="4895.9" y1="3817" y2="5797" gradientTransform="matrix(.75 0 0 .75 -1105 -1782)" gradientUnits="userSpaceOnUse">
		<stop offset="0" stop-color="#bf360c" stop-opacity=".6"/>
		<stop offset=".1" stop-color="#bf360c" stop-opacity=".6"/>
		<stop offset="1" stop-color="#bf360c" stop-opacity="0"/>
	</linearGradient>
	<radialGradient id="b" cx="146.8" cy="14.9" r="4198.3" gradientTransform="translate(0 -50)" gradientUnits="userSpaceOnUse">
		<stop offset="0" stop-color="#fff" stop-opacity=".2"/>
		<stop offset=".1" stop-color="#fff" stop-opacity=".2"/>
		<stop offset="1" stop-color="#fff" stop-opacity="0"/>
	</radialGradient>
	<path fill="#F4B501" d="M2107.58,1938.65L2107.58,1938.65c0,91.845-78.724,170.57-170.57,170.57h-879.09 c-557.632,0-1023.419-432.985-1056.221-990.617C-31.103,541.29,415.003,42.702,992.316,3.339 C1576.19-29.463,2074.778,416.643,2107.58,993.956V1938.65z"/>
	<path fill="#BF360C" opacity=".2" d="M2107.58,1945.211v-13.121l0,0 c0,91.845-78.724,170.57-170.57,170.57h-885.651c-570.753,0-1043.1-465.787-1049.66-1043.1l0,0 c0,577.313,472.347,1049.66,1049.66,1049.66h885.651C2028.856,2109.22,2107.58,2037.056,2107.58,1945.211z"/>
	<path fill="#FFF" opacity=".2" d="M2107.58,1018.773 C2074.778,454.581,1615.552,15.035,1057.92,15.035C480.607,15.035,1.699,480.822,1.699,1064.695c0,6.56,0,13.121,0,13.121l0,0 C-11.421,500.503,447.805,15.035,1031.678,1.914S2094.459,448.02,2107.58,1031.893v-26.241"/>
	<path fill="url(#a)" opacity=".3" d="M779.569,847.222l-88.681,569.604l692.394,692.394 h553.728c91.845,0,170.57-78.725,170.57-170.57v-558.136l-690.19-690.19L779.569,847.222z"/>
	<path fill="#F5F5F5" d="M1054.708,540.249 c-284.234,0-513.895,229.661-513.895,513.895l0,0c0,284.234,229.661,513.895,513.895,513.895l0,0 c128.474,0,252.4-48.888,346.765-135.295l128.474,128.474c4.548,4.548,10.232,6.822,15.917,6.822 c12.506,0,22.739-10.232,22.739-22.739l0,0v-491.157C1568.603,769.91,1337.805,540.249,1054.708,540.249L1054.708,540.249z"/>
	<path fill="#E2E2E2" d="M1054.708,540.249 c-284.234,0-513.895,229.661-513.895,513.895l0,0h1027.79C1568.603,769.91,1337.805,540.249,1054.708,540.249z"/>
	<path fill="#212121" fill-opacity="0" d="M1568.416,1040.279H540.999c-0.121,4.607-0.186,9.228-0.186,13.865h1027.79 C1568.603,1049.507,1568.538,1044.886,1568.416,1040.279z"/>
	<path fill="#FFF" fill-opacity=".1" d="M1568.603,1054.144H540.813c0,4.637,0.064,9.258,0.186,13.865h1027.604V1054.144z"/>
	<path fill="#263238" fill-opacity=".2" d="M1545.864,1556.038c-5.685,0-11.369-2.274-15.917-6.822l-128.473-128.473 c-94.366,86.407-218.292,135.295-346.766,135.295c-280.222,0-507.394-223.225-513.752-501.894 c-0.046,1.998-0.083,3.997-0.105,6.001c3.206,281.458,231.626,507.894,513.857,507.894c128.474,0,252.4-48.888,346.766-135.295 l128.473,128.473c4.548,4.548,10.232,6.822,15.917,6.822c12.506,0,22.739-10.232,22.739-22.739v-12.001 C1568.603,1545.805,1558.37,1556.038,1545.864,1556.038z"/>
	<path fill="#FFF" opacity=".2" d="M1054.708,540.249c-282.231,0-510.651,226.436-513.857,507.894 c0.023,2.003,0.06,4.003,0.105,6.001c6.357-278.669,233.53-501.894,513.752-501.894c283.097,0,513.895,229.661,513.895,513.895 v-12.001C1568.603,769.91,1337.805,540.249,1054.708,540.249z"/>
	<path fill="url(#b)" d="M2107.58,1054.862 c0-582.851-471.507-1054.358-1053.222-1054.358C471.507,0.504,0,472.011,0,1054.862S471.507,2109.22,1054.358,2109.22h886.206 c93.165,0,167.016-74.987,167.016-167.016V1054.862z"/>
</svg>