<?xml version="1.0" encoding="utf-8"?>
<!-- Generator: Adobe Illustrator 25.1.0, SVG Export Plug-In . SVG Version: 6.00 Build 0)  -->
<svg version="1.1" id="logo" xmlns="http://www.w3.org/2000/svg" xmlns:xlink="http://www.w3.org/1999/xlink" x="0px" y="0px"
	 viewBox="0 0 1293 308" style="enable-background:new 0 0 1293 308;" xml:space="preserve">
<style type="text/css">
	.st0{fill:#0002FE;}
</style>
<path class="st0" d="M119,238c-17,0-33-3-47-9s-27-15-38-26s-19-23-25-38c-6-14-9-30-9-46c0-17,3-33,9-47s15-27,25-38
	C45,23,57,15,72,9c14-6,30-9,46-9c11,0,22,1,32,4s19,7,28,12s17,11,24,18c8,8,14,16,20,24l-30,19c-7-13-17-24-29-32
	c-12-8-27-12-43-12c-12,0-23,2-33,7c-10,4-19,11-27,18c-9,8-15,17-19,28c-4,10-6,22-6,33c0,12,2,23,6,33s10,19,18,27s16,14,27,18
	c10,4,21,7,33,7c18,0,33-4,46-13c13-9,22-20,29-34l31,17c-5,10-11,19-18,27c-7,8-15,15-24,20c-9,6-19,10-29,13
	C142,236,131,238,119,238 M329,207c7,0,14-1,20-4c6-3,11-6,16-11c4-5,8-10,10-16c3-6,4-13,4-20c0-7-1-14-4-20c-3-6-6-12-10-16
	c-4-5-10-8-16-11c-6-3-13-4-20-4s-14,1-20,4c-6,3-11,6-16,11s-8,10-11,16c-3,6-4,13-4,20s1,14,4,20c3,6,6,12,11,17s10,8,16,11
	C316,206,322,207,329,207 M325,238c-10,0-20-2-29-6c-9-4-18-9-25-17c-7-7-13-16-18-26c-4-10-7-22-7-34c0-13,2-24,7-34
	c4-10,10-19,17-26c7-7,16-13,25-17c10-4,20-6,30-6c11,0,21,2,30,6c9,4,17,10,23,17V76h34v159h-34v-22c-6,8-14,14-23,18
	C345,236,335,238,325,238 M527,207c7,0,14-1,20-4c6-3,11-6,16-11s8-10,11-17c3-6,4-13,4-20s-1-14-4-20s-6-12-11-16c-5-5-10-8-16-11
	c-6-3-13-4-20-4s-14,1-20,4c-6,3-11,6-16,11c-4,5-8,10-10,16c-3,6-4,13-4,20c0,7,1,14,4,20c3,6,6,12,10,16c4,5,10,8,16,11
	C513,206,519,207,527,207 M532,238c-11,0-21-2-31-6c-9-4-17-10-23-17v93h-34V76h34v22c6-8,14-14,23-19c9-5,19-7,30-7c10,0,20,2,30,6
	c10,4,18,9,25,17c7,7,13,16,17,26s7,22,7,34c0,13-2,24-7,34c-4,10-10,19-18,26c-7,7-16,13-25,17C551,236,542,238,532,238 M637,235
	h34V76h-34C637,76,637,235,637,235z M697,76h27V22l34-19v73h34v30h-34v64c0,7,0,13,1,17c1,4,2,8,5,10c2,2,6,4,10,5c4,1,10,1,17,1v32
	h-5c-12,0-22-1-30-3c-8-2-14-6-19-11s-8-12-10-20c-2-8-3-19-3-31v-63h-27C697,107,697,76,697,76z M892,207c7,0,14-1,20-4
	c6-3,11-6,16-11c4-5,8-10,10-16c3-6,4-13,4-20c0-7-1-14-4-20c-3-6-6-12-10-16s-10-8-16-11c-6-3-13-4-20-4c-7,0-14,1-20,4
	c-6,3-11,6-16,11s-8,10-11,16c-3,6-4,13-4,20s1,14,4,20c3,6,6,12,11,17s10,8,16,11C878,206,885,207,892,207 M887,238
	c-10,0-20-2-29-6s-18-9-25-17c-7-7-13-16-18-26c-4-10-7-22-7-34c0-13,2-24,7-34c4-10,10-19,17-26c7-7,16-13,25-17c10-4,20-6,30-6
	c11,0,21,2,30,6s17,10,23,17V76h34v159h-34v-22c-6,8-14,14-23,18C908,236,898,238,887,238 M1007,235h34V3h-34V235z M1189,134v34h70
	v70h34V134C1293,134,1189,134,1189,134z M1189,204c-11,0-22-2-31-7c-10-4-19-11-27-18c-8-8-13-17-18-27c-4-10-6-21-6-33s2-23,6-33
	s10-20,18-27s17-14,27-18s21-7,33-7c17,0,31,4,43,12c12,8,22,19,29,32l30-19c-5-9-11-17-19-24c-7-7-15-13-24-18s-18-9-28-12
	s-21-4-32-4c-17,0-32,3-47,9c-14,6-27,14-38,25c-11,11-19,23-25,38c-6,14-9,30-9,47s3,32,9,46s14,27,25,38c11,11,23,19,38,26
	c14,6,29,9,45,9v-35L1189,204z"/>
</svg>
