<?xml version="1.0" encoding="utf-8"?>
<!-- Generator: Adobe Illustrator 19.1.0, SVG Export Plug-In . SVG Version: 6.00 Build 0)  -->
<svg version="1.1" id="Layer_1" xmlns="http://www.w3.org/2000/svg" xmlns:xlink="http://www.w3.org/1999/xlink" x="0px" y="0px"
	 viewBox="0 0 774.8 214.5" style="enable-background:new 0 0 774.8 214.5;" xml:space="preserve">
<style type="text/css">
	.st0{fill:#505050;}
	.st1{fill:#08C144;}
</style>
<path class="st0" d="M5.4,108.7c0-5.9,0.1-11.1,0.4-15.5c0.4-5.8,1.8-11.2,4-16.4c2.2-5.2,5.2-9.7,9.1-13.4s8.5-6.7,13.8-8.9
	c5.3-2.2,11.3-3.3,18.1-3.3c6.2,0,11.8,1,16.8,3.1c5.1,2.1,9.4,4.8,13.1,8.3c3.7,3.5,6.5,7.4,8.5,12c2,4.5,3,9.3,3,14.3
	c0,1.2-0.3,2.2-1,3.1c-0.7,0.9-1.6,1.4-2.7,1.4h-5c-1,0-1.9-0.3-2.8-0.9c-0.9-0.6-1.3-1.5-1.3-2.6c0-3.2-0.6-6.4-1.9-9.5
	c-1.3-3.1-3.1-5.8-5.6-8.2c-2.4-2.4-5.4-4.3-9-5.7c-3.5-1.4-7.6-2.1-12.1-2.1c-5.6,0-10.3,1-14.2,2.9c-3.9,1.9-7,4.3-9.4,7.2
	c-2.4,2.9-4.2,6-5.4,9.4c-1.2,3.4-1.9,6.6-2.2,9.6c-0.4,4.5-0.6,9.7-0.6,15.5c0,5.8,0.2,10.9,0.6,15.5c0.3,3,1,6.1,2.2,9.6
	c1.2,3.4,3,6.6,5.4,9.4c2.4,2.9,5.5,5.2,9.4,7.2c3.8,1.9,8.6,2.9,14.2,2.9c4.9,0,9.1-0.8,12.6-2.3c3.5-1.5,6.4-3.5,8.8-6
	c2.4-2.5,4.1-5.2,5.2-8.1c1.1-3,1.7-5.9,1.7-8.9c0-1.4,0.4-2.4,1.3-3c0.9-0.5,1.8-0.8,2.9-0.8h4.6c1.1,0,2.1,0.5,3,1.4
	c0.9,0.9,1.3,1.9,1.3,3.1c0,5-1,9.8-3,14.3c-2,4.5-4.8,8.5-8.5,12s-8,6.2-13.1,8.3c-5.1,2.1-10.7,3.1-16.8,3.1
	c-6.7,0-12.7-1.1-18-3.3c-5.4-2.2-10-5.2-13.8-8.9c-3.9-3.8-6.9-8.2-9.1-13.4c-2.2-5.2-3.5-10.7-4-16.4
	C5.5,119.8,5.4,114.7,5.4,108.7z"/>
<path class="st0" d="M106.1,130.7c0-4.6,0.8-8.9,2.4-12.9c1.6-4,4-7.5,7.1-10.4c3.1-2.9,6.9-5.2,11.5-6.8c4.6-1.6,9.8-2.4,15.5-2.4
	h31.7c1.4,0,2.2-0.7,2.2-2.2v-8.5c0-7.1-2.5-12.8-7.5-17.3c-5-4.4-11.4-6.6-19.3-6.6c-3.4,0-6.7,0.5-9.8,1.4c-3.1,1-5.9,2.3-8.2,3.9
	c-2.3,1.7-4.3,3.7-5.7,6c-1.5,2.3-2.2,4.9-2.2,7.8c0,1.9-0.6,3-1.8,3.3c-1.2,0.3-2.3,0.4-3.3,0.4h-3.1c-3,0-4.4-1.5-4.4-4.5
	c0-5.2,1.1-9.7,3.4-13.5c2.2-3.8,5.2-7,8.9-9.6c3.7-2.6,7.8-4.5,12.4-5.8c4.6-1.3,9.2-1.9,14-1.9c5.5,0,10.6,0.7,15.4,2.2
	c4.8,1.4,9,3.7,12.6,6.7c3.6,3,6.5,6.8,8.7,11.4c2.1,4.6,3.2,10,3.2,16.4v71.8c0,1.2-0.4,2.2-1.3,3.1c-0.9,0.9-1.9,1.4-3.1,1.4h-1.9
	c-1.4,0-2.5-0.5-3.1-1.5c-0.6-0.9-1.1-1.9-1.5-3c-0.4-1.1-1.4-1.7-2.9-1.7c-1,0-2.3,0.4-3.9,1.3c-1.6,0.9-3.6,1.8-6,2.9
	c-2.4,1.1-5.2,2-8.3,2.9c-3.2,0.9-6.8,1.3-10.9,1.3c-6.8,0-12.7-1-17.8-2.9c-5.1-1.9-9.3-4.5-12.7-7.8c-3.3-3.3-5.8-7-7.4-11.4
	C106.9,140,106.1,135.5,106.1,130.7z M119.2,130.7c0,4,0.7,7.4,2.1,10.3c1.4,2.9,3.3,5.3,5.7,7.2c2.4,1.9,5.2,3.3,8.3,4.3
	c3.1,1,6.5,1.5,10.1,1.5c10.2,0,18-2.4,23.6-7.1c5.6-4.7,8.3-11.6,8.3-20.6V113c0-1.4-0.8-2.2-2.3-2.3h-32.3
	c-6.2,0-11.7,1.7-16.4,5.1C121.6,119.2,119.2,124.2,119.2,130.7z"/>
<path class="st0" d="M208,204V57.8c0-1.2,0.4-2.2,1.4-3.1c0.9-0.9,1.9-1.4,3.1-1.4h3.6c1,0,2,0.5,3,1.5c0.7,0.7,1.5,1.5,2.4,2.3
	c0.9,0.8,2,1.2,3.2,1.2c1.7,0,3.1-0.4,4.3-1.1c1.2-0.7,2.7-1.6,4.5-2.5c1.8-1,3.9-1.8,6.4-2.5c2.5-0.7,5.8-1.1,10-1.1
	c5.8,0,11.1,1.1,16.1,3.3c4.9,2.2,9.3,5.2,13,8.9c3.7,3.8,6.7,8.2,9,13.4c2.3,5.2,3.6,10.7,4.1,16.4c0.3,4.4,0.4,9.6,0.4,15.5
	s-0.1,11.1-0.4,15.5c-0.4,5.8-1.8,11.2-4.1,16.4c-2.3,5.2-5.3,9.7-9,13.4c-3.7,3.8-8,6.7-13,8.9c-4.9,2.2-10.3,3.3-16.1,3.3
	c-3.5,0-6.6-0.3-9.1-0.9c-2.5-0.6-4.7-1.2-6.4-1.8c-1.8-0.6-3.3-1.3-4.7-1.9c-1.3-0.6-2.5-0.9-3.5-0.9c-1.4,0-2.6,0.4-3.6,1.2
	c-1,0.8-1.5,2.3-1.5,4.3V204c0,1.2-0.5,2.2-1.4,3.1c-0.9,0.9-1.9,1.4-3.1,1.4h-4.2c-1.2,0-2.2-0.5-3.1-1.4
	C208.4,206.2,208,205.2,208,204z M220.9,108.7c0,5.8,0.2,10.9,0.6,15.5c0.3,3,1,6.1,2,9.6c1,3.4,2.6,6.6,4.7,9.4
	c2.1,2.9,4.8,5.2,8.2,7.2c3.4,1.9,7.5,2.9,12.4,2.9c5.3,0,9.8-1,13.5-2.9c3.7-1.9,6.7-4.3,8.9-7.2c2.3-2.8,4-6,5.1-9.4
	c1.1-3.4,1.8-6.6,2.1-9.6c0.6-4.5,0.9-9.7,0.9-15.5c0-5.8-0.3-10.9-0.9-15.5c-0.3-3-1-6.1-2.1-9.6c-1.1-3.4-2.8-6.6-5.1-9.4
	c-2.3-2.8-5.2-5.2-8.8-7.2c-3.6-1.9-8.1-2.9-13.6-2.9c-4.9,0-9,1-12.4,2.9c-3.4,1.9-6.1,4.3-8.2,7.2c-2.1,2.9-3.6,6-4.7,9.4
	c-1,3.4-1.7,6.6-2,9.6C221.1,97.8,220.9,103,220.9,108.7z"/>
<path class="st0" d="M300.3,161.8v-4.5c0-1.2,0.4-2.2,1.3-3.1c0.8-0.9,1.9-1.4,3.1-1.4h29.3c2,0,3-0.7,3.1-2.2l0-83.7
	c0-1.4-1-2.2-3.1-2.2h-27.1c-1.1,0-2.1-0.5-3-1.4c-0.9-0.9-1.3-2-1.3-3.1v-4.5c0-1.2,0.4-2.2,1.4-3.1c0.9-0.9,1.9-1.4,3.1-1.4h38.8
	c1.2,0,2.2,0.5,3.1,1.4c0.9,0.9,1.4,2,1.4,3.1l0,94.8c0,1.4,0.7,2.2,2.2,2.2h29.2c1.2,0,2.2,0.5,3.1,1.4c0.9,0.9,1.4,2,1.4,3.1v4.5
	c0,1.2-0.4,2.2-1.3,3.1c-0.9,0.9-1.9,1.4-3.1,1.4h-76.8c-1.2,0-2.2-0.5-3.1-1.4C300.8,164,300.3,163,300.3,161.8z M331.6,22.5V10.9
	c0-0.9,0.3-1.7,1-2.4c0.7-0.8,1.6-1.1,2.8-1.1h12.3c1.1,0,2,0.4,2.7,1.1c0.7,0.8,1.1,1.6,1.1,2.4v11.7c0,2.4-1.3,3.6-3.8,3.6h-12.3
	C332.8,26.1,331.6,24.9,331.6,22.5z"/>
<path class="st0" d="M371.8,59.5v-4.2c0-1.1,0.4-2.2,1.3-3.1c0.9-0.9,1.9-1.3,3.1-1.3h24.6c1.4,0,2.2-0.7,2.3-2.2V12
	c0-1.2,0.4-2.2,1.3-3.1c0.9-0.9,1.9-1.4,3.1-1.4h4.4c1.1,0,2.1,0.5,3,1.4c0.9,0.9,1.3,1.9,1.3,3.1v36.7c0,1.4,0.8,2.2,2.3,2.2h36.9
	c1.2,0,2.2,0.4,3.1,1.3c0.9,0.9,1.4,1.9,1.4,3.1v4.2c0,1.1-0.5,2.2-1.4,3.1c-0.9,0.9-1.9,1.3-3.1,1.3h-36.9c-1.4,0-2.2,0.8-2.3,2.3
	v62.6c0,7.9,2.1,13.9,6.3,18.2c4.2,4.2,9.2,6.3,14.8,6.3c6.4,0,11.3-2.2,15-6.5c3.6-4.3,5.4-9.6,5.4-15.8c0-1.2,0.5-2.2,1.4-3.1
	c0.9-0.9,2-1.4,3.1-1.4h4.7c1.2,0,2.2,0.4,3.1,1.3c0.9,0.9,1.4,1.9,1.4,3.1c0,4.9-0.9,9.4-2.6,13.7c-1.7,4.2-4.1,8-7.1,11.2
	c-3.1,3.2-6.7,5.8-10.8,7.6c-4.1,1.8-8.7,2.7-13.6,2.7c-4.9,0-9.4-0.9-13.6-2.7c-4.2-1.8-7.8-4.4-10.8-7.6c-3-3.2-5.4-7-7.2-11.3
	c-1.8-4.3-2.6-8.8-2.6-13.6V66.2c0-1.4-0.8-2.2-2.3-2.3h-24.6c-1.2,0-2.2-0.4-3.1-1.3C372.2,61.7,371.8,60.6,371.8,59.5z"/>
<path class="st0" d="M483.8,130.5c0-4.6,0.8-8.9,2.4-12.9c1.6-4,4-7.5,7.1-10.4c3.1-2.9,6.9-5.2,11.5-6.8c4.6-1.6,9.8-2.4,15.5-2.4
	h31.7c1.4,0,2.2-0.7,2.2-2.2v-8.5c0-7.1-2.5-12.8-7.5-17.3c-5-4.4-11.4-6.6-19.3-6.6c-3.4,0-6.7,0.5-9.8,1.4c-3.1,1-5.9,2.3-8.2,3.9
	c-2.3,1.7-4.3,3.7-5.7,6c-1.5,2.3-2.2,4.9-2.2,7.8c0,1.9-0.6,3-1.8,3.3c-1.2,0.3-2.3,0.4-3.3,0.4h-3.1c-3,0-4.4-1.5-4.4-4.5
	c0-5.2,1.1-9.7,3.4-13.5c2.2-3.8,5.2-7,8.9-9.6c3.7-2.6,7.8-4.5,12.4-5.8c4.6-1.3,9.2-1.9,14-1.9c5.5,0,10.6,0.7,15.4,2.2
	c4.8,1.4,9,3.7,12.6,6.7c3.6,3,6.5,6.8,8.7,11.4c2.1,4.6,3.2,10,3.2,16.4v71.8c0,1.2-0.4,2.2-1.3,3.1c-0.9,0.9-1.9,1.4-3.1,1.4h-1.9
	c-1.4,0-2.5-0.5-3.1-1.5c-0.6-0.9-1.1-1.9-1.5-3c-0.4-1.1-1.4-1.7-2.9-1.7c-1,0-2.3,0.4-3.9,1.3c-1.6,0.9-3.6,1.8-6,2.9
	c-2.4,1.1-5.2,2-8.3,2.9c-3.2,0.9-6.8,1.3-10.9,1.3c-6.8,0-12.7-1-17.8-2.9s-9.3-4.5-12.7-7.8c-3.3-3.3-5.8-7-7.4-11.4
	C484.6,139.8,483.8,135.2,483.8,130.5z M496.9,130.4c0,4,0.7,7.4,2.1,10.3c1.4,2.9,3.3,5.3,5.7,7.2c2.4,1.9,5.2,3.3,8.3,4.3
	c3.1,1,6.5,1.5,10.1,1.5c10.2,0,18-2.4,23.6-7.1c5.6-4.7,8.3-11.6,8.3-20.6v-13.3c0-1.4-0.8-2.2-2.3-2.3h-32.3
	c-6.2,0-11.7,1.7-16.4,5.1C499.3,119,496.9,124,496.9,130.4z"/>
<path class="st0" d="M579.2,161.1v-4.5c0-1.2,0.4-2.2,1.3-3.1c0.9-0.9,1.9-1.4,3.2-1.4h30.9c0.7,0,1.4-0.2,1.9-0.5
	c0.5-0.4,0.8-0.9,0.8-1.6V23c0-1.4-0.8-2.2-2.3-2.2h-26.9c-1.2,0-2.2-0.5-3.1-1.4c-0.9-0.9-1.4-2-1.4-3.1v-4.5
	c0-1.2,0.4-2.2,1.3-3.1c0.9-0.9,1.9-1.4,3.1-1.4h37.9c1.2,0,2.2,0.5,3.1,1.4c0.9,0.9,1.4,2,1.4,3.1V150c0,1.4,0.7,2.2,2.2,2.2h28.3
	c1.2,0,2.2,0.5,3.1,1.4c0.9,0.9,1.4,2,1.4,3.1v4.5c0,1.2-0.4,2.2-1.3,3.1c-0.9,0.9-1.9,1.4-3.1,1.4h-77.2c-1.2,0-2.2-0.5-3.1-1.4
	C579.7,163.3,579.2,162.3,579.2,161.1z"/>
<path class="st1" d="M668.1,104.2c-0.3-5.8-0.5-11.8-0.5-18c0-6.1,0.1-12.1,0.4-17.8c0.3-5.8,0.8-10.9,1.4-15.3
	c0.9-6.1,2.6-11.9,5.1-17.4c2.5-5.6,5.8-10.5,10-14.7c4.1-4.3,9-7.6,14.7-10.2s12.2-3.8,19.6-3.8c7.1,0,13.8,1.2,19.9,3.7
	c6.1,2.5,11.3,5.7,15.5,9.8c4.3,4.1,7.6,9,10,14.6c2.4,5.6,3.6,11.6,3.6,18V54c0,1.2-0.4,2.2-1.3,3.1c-0.8,0.9-1.9,1.4-3,1.4h-5.8
	c-1.1,0-2.1-0.4-3-1.3c-0.9-0.9-1.3-1.9-1.3-3.1v-0.9c0-4.5-0.8-8.8-2.4-12.7c-1.6-3.9-3.9-7.3-7-10.1c-3-2.8-6.7-5-10.9-6.7
	c-4.2-1.6-9-2.4-14.3-2.4c-5.3,0-10,0.9-14,2.6c-4,1.8-7.4,4.2-10.3,7.2c-2.9,3-5.2,6.5-6.9,10.3c-1.7,3.9-2.8,7.8-3.4,11.7
	c-0.7,4.5-1.2,9.7-1.6,15.5c-0.3,5.8-0.5,11.7-0.5,17.7c0,6.1,0.2,12,0.5,17.7c0.3,5.8,0.8,10.9,1.6,15.5c0.4,3.2,1.4,6.7,2.8,10.4
	c1.4,3.7,3.5,7.2,6.2,10.3c2.7,3.2,6.2,5.8,10.3,7.9c4.1,2.1,9.2,3.2,15.3,3.2c5.9,0,11.1-1,15.5-3.1c4.4-2.1,8.1-4.7,11.1-7.8
	c3-3.2,5.1-6.7,6.5-10.4c1.4-3.8,2.1-7.3,2.1-10.5V99.4c0-1.4-0.7-2.2-2.2-2.2h-27.4c-1.2,0-2.2-0.5-3.1-1.4
	c-0.9-0.9-1.4-1.9-1.4-3.1v-5.3c0-1.2,0.4-2.2,1.3-3.1c0.9-0.9,1.9-1.4,3.1-1.4h38.9c1.2,0,2.2,0.4,3.1,1.3c0.9,0.9,1.4,1.9,1.4,3.1
	v32c0,7.2-1.3,13.7-4,19.4c-2.6,5.7-6.2,10.5-10.7,14.5c-4.5,4-9.7,7-15.5,9.1c-5.9,2.1-12.2,3.1-18.8,3.1
	c-13.4,0-24.5-4.1-33.3-12.3c-8.8-8.2-14.1-19.5-16-33.8C668.9,115.2,668.5,110,668.1,104.2z"/>
</svg>
