<svg id="Layer_1" data-name="Layer 1" xmlns="http://www.w3.org/2000/svg" xmlns:xlink="http://www.w3.org/1999/xlink" viewBox="0 0 2496.86 2496.42"><defs><style>.cls-1{fill:url(#linear-gradient);}.cls-2{fill:url(#linear-gradient-2);}.cls-3{fill:url(#linear-gradient-3);}.cls-4{fill:url(#linear-gradient-4);}</style><linearGradient id="linear-gradient" x1="1138.9" y1="3.58" x2="1138.9" y2="1781.88" gradientUnits="userSpaceOnUse"><stop offset="0" stop-color="#5ae9c1"/><stop offset="1" stop-color="#0c53a5"/></linearGradient><linearGradient id="linear-gradient-2" x1="1595.97" y1="2189.4" x2="1595.97" y2="68.55" xlink:href="#linear-gradient"/><linearGradient id="linear-gradient-3" x1="895.53" y1="311" x2="895.53" y2="2426.96" xlink:href="#linear-gradient"/><linearGradient id="linear-gradient-4" x1="1375.19" y1="2500" x2="1375.19" y2="695" xlink:href="#linear-gradient"/></defs><path class="cls-1" d="M1380.76,11.3a1057.59,1057.59,0,0,1,177.32,36.16c13.65,4,27.72,7.84,40.51,14.13Q1625.52,74.85,1653,87a704.15,704.15,0,0,1,109.9,60.84q27.12,18.3,53.56,37.57c17.29,12.6,34.35,24.7,50.28,39,16.15,14.53,33.3,29,47.94,45,13.9,15.27,29.67,29,43.71,44.24,28.78,31.26,52.38,66.15,76.93,100.68,9.55,13.42,17.74,27.69,26.87,41.38,20.4,34.83,37.24,72.11,52.86,109.32,16.45,39.16,31.82,79.82,41.45,121.24l7,30.07c1.63,7,3.26,14,4.74,21,6.21,29.31,10,58.68,13.11,88.44,4.38,42.39,5,53.48,5,91.5,0,43.83-3.91,87.86-10,131.24-1.53,11-3.5,21.84-5.59,32.7-2.68,13.85-4.88,27.74-9.38,41.16-3.2,9.56-7.25,18.83-10,28.55-2.87,10.11-4.85,20.45-7.71,30.57-2.64,9.33-6,18.42-9.41,27.5-15,40.15-30.74,79.76-50.6,117.83a919.24,919.24,0,0,1-66.4,108.34,964.52,964.52,0,0,1-171.75,183.46q-17,13.86-34.66,26.81c-23.08,16.88-62.12,42.7-84,55.41-17,9.86-27.76,15.66-47.79,25.52-45.81,22.56-95.93,37.65-143.75,55.46,330.42-169.61,360.16-581.08,234.88-891.11-21.37-52.9-47.22-102.46-79.76-149.72a852,852,0,0,0-76.31-95.22c-8.07-8.72-16.21-17.4-24.53-25.89a944.47,944.47,0,0,0-93.75-83.7,995.72,995.72,0,0,0-105.51-71.46,1058.89,1058.89,0,0,0-111.43-57.92,1012.92,1012.92,0,0,0-121.58-44.12c-36.52-10.82-73.49-20.54-111.13-26.69-12.64-2.07-25.34-3.78-38-5.77-18.5-2.92-37-6.46-55.65-7.89a441.43,441.43,0,0,0-50.92-1.06c-8,.32-16.13-.92-24.16-1-17.14-.1-34.33,2.62-51.29,5.23-38.21,5.88-76.64,13-114,23.13-33.51,9.06-66.54,20-99.68,30.26A354.34,354.34,0,0,0,578.24,391c-19.17,8.19-38.65,15.67-57.62,24.32-38.39,17.5-75.46,39-110.87,61.88a973.55,973.55,0,0,0-102.1,75.87,926,926,0,0,0-91.32,88.7c-48,53.94-84.9,117.16-124.83,177.13,65.81-154.55,143.66-307,258.85-429.26,55.88-59.32,119.8-110.67,187-156.79C620.15,176.05,708.4,126.83,801.61,89.43,982,17,1185.58-11.61,1380.76,11.3Z" transform="translate(-1.95 -3.58)"/><path class="cls-2" d="M1614.37,68.55c168.72,39.25,372.29,169.25,495.87,285.15C2321.7,552,2482.86,839.21,2497,1132.64c2.21,46.08,2,92.24,1.68,138.36-.51,77.42-1.2,155.81-20.94,230.69-21.72,82.43-60.5,172-107.67,243-4.66,7-10.35,15.84-12.73,19.81-7.46,12.39-13.46,20.52-49.91,67.85-2.28,3-6.94,8.43-10.46,12.4s-9.32,10.56-12.84,14.73c-25.37,29.86-80.24,82.89-111.93,108.18-13.46,10.67-63.37,47.75-69.48,51.51-2.48,1.52-10.87,6.9-18.53,11.88a962.51,962.51,0,0,1-105.1,59.33,55.25,55.25,0,0,0-7.76,4.26c-.83.71-6.32,3-12.12,4.88a174.28,174.28,0,0,0-17.81,7.31c-4,1.93-7.87,3.56-8.7,3.56s-5.07,1.83-9.73,4.06c-9.21,4.37-35.93,14.22-38.83,14.22-1,0-5.38,1.43-9.83,3.15-7.36,2.95-28.79,9.65-39.14,12.29-5.7,1.53-37.9,12-40.08,13.11-.93.51-5.38,1.42-9.83,2a123.89,123.89,0,0,0-12.74,2.44c-16.36,4.87-23,6.7-28.47,7.52-3.42.5-10.67,1.93-16,3.14s-13.77,2.75-18.64,3.56-10.87,1.93-13.46,2.64a119.13,119.13,0,0,1-12.94,1.83,80.79,80.79,0,0,0-16.57,3.66c-6.63,2.23-11.29,3-23.3,3.86-16,1.11-24.23,1.32-30,.81-2-.2-9.63,0-17.08.41-10.77.61-15.64.4-24.23-1a108.84,108.84,0,0,0-23.61-1.32c-10.35.41-14.39.1-20.81-1.42a138.36,138.36,0,0,0-20.4-2.44c-9.21-.41-14.49-1.22-20.19-3.05a119,119,0,0,0-33.65-5.48c-6.52,0-10.15-.61-15.22-2.44a102.16,102.16,0,0,0-31.79-5.69c-7.87,0-13.36-1.42-20.81-5.08a39.87,39.87,0,0,0-8-2.95c-7.35-1.82-17.49-5.79-22.88-9-3-1.82-6-3.25-6.73-3.25a4.32,4.32,0,0,1-2.38-.91c-1.45-1.32-20.81-6-28.37-6.71-3.73-.4-7.46-1.32-8.29-2s-6.21-2.54-11.9-4.16-11.29-3.56-12.43-4.57-7.66-3.25-14.49-5.29c-14.09-4.06-25.79-8-27.65-9.55a33.3,33.3,0,0,0-6.52-2.84c-12.43-4.27-14.91-5.28-16.26-6.2-.72-.61-5.8-2.74-11.29-4.87a191.19,191.19,0,0,1-19.15-8.43c-5.08-2.54-11.29-5.39-13.88-6.4-8.07-3.15-51.67-26.82-65.23-35.35-4.87-3.05-9.94-6.1-11.39-6.71-2.48-1-15.84-9.45-36.55-22.86-11-7.11-45.77-32.6-59.75-43.68-65.33-52.21-123.42-111.54-169-172.69-17.29-23.06-43.49-62.07-56.43-83.91-10.77-18.18-14.29-24.58-24.75-45.2-23.72-46.77-40.27-96.86-58.82-145.83,43.48,114.8,175.35,207.61,283.54,252.85,120.35,50.33,255.53,64.48,384.2,44.8,239.15-36.57,461.45-174.22,612.18-359,2.48-3,6.52-8.23,9.11-11.38,4.87-6.1,13.15-17.88,24.33-34.34,3.63-5.28,7.87-11.58,9.53-13.91a45.09,45.09,0,0,0,2.9-4.68c0-.3,2.27-4.16,5-8.53,13.77-21.84,17.08-27.33,24.54-40.94,4.55-8.12,9.63-17.67,11.49-21.33,8.49-17.07,14.91-30.48,17.08-35.55a67.87,67.87,0,0,1,3.94-8c2-2.95,9.21-19.3,14.7-33.12a873.27,873.27,0,0,0,32.1-94c1.76-6.4,4.35-15.34,5.7-19.81s3.62-14.12,5.07-21.33,3.52-16.46,4.66-20.32a114.19,114.19,0,0,0,2.59-12.19c1-7.62,3.31-20.42,5.18-28.75,1.76-8.53,4-27.73,5.69-48.45.62-7.83,1.86-20.42,2.69-27.94s1.76-15.24,2-17.17.72-17.27,1-34c.62-29.46-.52-70.7-2.49-88.48-.52-4.47-1.66-15.44-2.59-24.38-4.24-41.44-5.07-46.62-13-85.94-1.65-8.12-3.31-16.35-3.62-18.28s-2-8.74-3.62-15.14-4.56-17.67-6.32-24.89c-8.08-33-33.75-103.92-48.56-134.09-2.18-4.47-6.63-13.81-9.84-20.82-6.94-15.14-16.88-33.83-27-51.1a63,63,0,0,1-3.52-6.3c0-2.43-22-37.58-38.21-61.25-2.07-2.95-5.39-8-7.35-11.18-4.25-6.6-21.54-29.66-28-37.28-2.38-2.84-7-8.53-10.46-12.69s-9.42-11.28-13.15-15.65-8.9-10.36-11.39-13.2c-11.08-13-52.29-54.35-64.3-64.41-3-2.54-9.11-8.23-13.46-12.7a377.1,377.1,0,0,0-32.31-28.64c-4.14-3.36-11.49-9.55-16.46-13.82a152.12,152.12,0,0,0-18.43-13.51c-5.28-3.25-11.6-7.82-14-10.16C1769,161.36,1762,156,1751.76,149c-13.77-9.45-18.32-12.3-22-13.82-2.07-.81-7.77-4.47-12.74-8.13s-11-7.21-13.25-7.92a20.37,20.37,0,0,1-6.32-2.84,24.46,24.46,0,0,0-3.62-2.44,130.87,130.87,0,0,1-11.49-6.81c-5.29-3.35-14.09-8.43-20.09-11.48-3.42-1.72-7.15-3.76-8.29-4.36s-5.28-2.65-9.31-4.47a87.91,87.91,0,0,1-12.43-7l-.12-.1C1626.5,75.43,1620.07,72.39,1614.37,68.55Z" transform="translate(-1.95 -3.58)"/><path class="cls-3" d="M936.31,311.84c12.61.4,22.38,1.21,26.44,2.23a139.57,139.57,0,0,0,19.53,2.13c9.86.4,15.15,1.11,20.54,2.94,9.87,3.14,17.8,4.46,31.83,5.48,7.53.5,13.84,1.52,17.7,2.94a168.5,168.5,0,0,0,17.8,4.26c13.93,2.43,24.3,4.66,30.61,6.59,2.54.71,10.27,3,17.29,5s14.13,4.06,15.76,4.56c3,.92,25.63,6.6,38.44,9.64a75.25,75.25,0,0,1,14.75,5.48,111,111,0,0,0,10.37,4.66,62.17,62.17,0,0,1,7.63,3,127.93,127.93,0,0,0,20.85,7.1,31.43,31.43,0,0,1,8.85,3.34,10,10,0,0,0,3.45,1.22,21.84,21.84,0,0,1,5.39,2c2.34,1,7.43,3.14,11.29,4.56s8.54,3.25,10.17,4.06,6.71,2.84,11.19,4.57,13.63,5.88,20.34,9a160.58,160.58,0,0,0,15,6.6c2.54.6,17.8,8.52,30.71,15.82,2.24,1.22,8.44,4.56,13.73,7.4s12.82,7.1,16.58,9.54a133.94,133.94,0,0,0,12.2,6.79c4.88,2.13,15.66,8.93,39.36,24.55,29.7,19.68,44.24,30,57,40.67,4.38,3.45,8.14,6.39,8.44,6.39.61,0,1.53.71,8,6.5,2,1.72,5.49,4.46,7.83,6.18s6.2,4.67,8.64,6.7c12.51,9.84,56,50.31,68.14,63.29,4.48,4.77,13,13.69,18.92,19.88s14.44,15.52,18.81,21,8.44,10.24,9,10.85c2.75,2.33,16.07,18.36,20.55,24.65,4.88,6.79,16.78,22.72,18.71,24.95,3.76,4.16,26.85,38.14,37.22,54.77,4.58,7.31,9.46,14.91,10.78,16.84,7.12,10.35,47.49,87.64,50.55,96.77.71,2.13,3.35,8.52,5.79,14.2l0,0c7.12,16,19.23,40.42,15.82,55.81-47.48-58.61-82.76-118.23-144.15-166.16A598.8,598.8,0,0,0,1444.19,678.4c-174.82-51-377.28-23.45-541.23,51.69-51.16,23.45-102.37,47.2-149.41,78.31-15.15,10-29.85,20.73-44,32.17-7.19,5.82-14.22,11.83-21.26,17.84-14.15,12.09-28.93,23.69-42.67,36.15-4.48,4-9.46,8.42-11.19,9.73C619.09,917.23,605,932.42,591,946.85c-19,19.7-37.08,40.37-54.12,61.81-23.56,29.67-43.48,61.16-64,92.82-10,15.41-37.12,67-44.44,84.28a66.14,66.14,0,0,1-3.87,8c-3.15,5.07-13.83,30.73-23.18,55.89-10.38,28.19-18,52.13-25.33,79.11a900.41,900.41,0,0,0-27.19,330.68c5.62,56.76,17.13,112.9,33.31,167.59A899.67,899.67,0,0,0,444.64,1983c24.95,48.54,53.2,95.26,86.06,138.92q25.34,33.64,53.81,64.76c7.06,7.71,15.17,15,21.76,22.76,8.89,10.46,19.19,19.66,29.22,29,9.73,9.08,19.12,18.59,28.93,27.64,40.73,37.61,85.73,70.57,133.14,99.29q16.76,10.15,33.75,19.9c15.4,8.83,31,17.41,46.56,25.88,9.1,4.95,17.85,10.64,26.81,15.85C503.64,2326.2,195.75,1996,66.83,1609c-98.37-295.32-94.15-611.76,77.25-877.69.91-1.42,5.29-7.81,9.46-14.2S163.91,702,167,697.88s7.53-10.14,9.76-13.18,7.33-9.44,11.29-14.2,8.34-10.25,9.66-12.18c2.75-3.85,14-16.94,26.34-30.43,29.9-32.66,42-45.54,44.55-47.16,1.52-1,12.2-10.65,23.69-21.3s24.51-22.22,29-25.56,11.39-8.93,15.25-12.28,15.36-12.07,25.43-19.37,21.56-15.52,25.63-18.56c8.33-6.09,12.3-8.72,28.78-19.17,34.17-21.5,55.32-33.68,76.78-44.12,7.32-3.55,15.05-7.51,17.29-8.73s6.81-3.55,10.17-5.17a71.89,71.89,0,0,0,7.62-4.16c.82-.71,5.39-2.53,10.17-4.16a146.64,146.64,0,0,0,16.28-6.59,82.78,82.78,0,0,1,10.57-4.46,69.43,69.43,0,0,0,10.27-4.16c7.73-3.55,28.79-11.26,35.6-12.88,2.24-.61,8.24-2.54,13.22-4.36,8.34-3.15,25.12-8.22,35.59-11,2.24-.51,12.31-3.75,22.38-7.1s21.05-6.39,24.41-7a151.68,151.68,0,0,0,28.57-7.4A63.25,63.25,0,0,1,748,330.09c3.56-.3,12.91-2,20.74-3.65s17.19-3.45,20.85-3.95,8.24-1.42,10.17-1.93a41.31,41.31,0,0,1,9.66-1c4.27,0,9-1,15.26-3.14,7.83-2.74,11.28-3.35,23.79-4.06,8-.4,14.75-1,14.95-1.11C863.9,310.72,911.6,311.13,936.31,311.84Z" transform="translate(-1.95 -3.58)"/><path class="cls-4" d="M980.92,695s-6.5,3.29-11.33,6.08c-133.5,77-236.15,219.18-275.53,367.28-37.46,140.9-25.81,292.46,20.06,430.84,59.72,180.19,174.76,355.51,324.1,473.4,85.92,67.83,186.56,127.1,291.37,158.34,86.3,25.73,170.84,50.47,261.58,51.49,57.41.64,114.81-6.35,170.8-19.1,155.15-35.32,304.72-106.24,426-211.08a969.39,969.39,0,0,0,160.1-177.61c21.67-31,42.5-63.32,59.42-97.28l0,0c2.3-4.6,8.13-13.21,8.13-13.21s-19.22,56.13-29.2,78.38c-19.75,44-42.85,86.33-65.93,128.62-137.5,252-351.76,443.8-620.59,547.46-163.72,63.13-341.06,89.89-516.05,79.08-183-11.3-333.68-78.29-479-189.65a950.6,950.6,0,0,1-165.21-161.86q-2.17-2.73-4.32-5.46a932.23,932.23,0,0,1-64.68-93.86,958.33,958.33,0,0,1-93.61-208.16c-50.3-160.73-56.54-333.06-14.46-496.44A911.09,911.09,0,0,1,404,1218.75c30.33-72.7,70.21-139.77,117.75-201.78A941.71,941.71,0,0,1,758.64,798.68a890,890,0,0,1,195.26-94.4Z" transform="translate(-1.95 -3.58)"/></svg>