<?xml version="1.0" encoding="utf-8"?>
<!-- Generator: Adobe Illustrator 21.0.0, SVG Export Plug-In . SVG Version: 6.00 Build 0)  -->
<svg version="1.1" id="图层_1" xmlns="http://www.w3.org/2000/svg" xmlns:xlink="http://www.w3.org/1999/xlink" x="0px" y="0px"
	 viewBox="0 0 761 218" style="enable-background:new 0 0 761 218;" xml:space="preserve">
<style type="text/css">
	.st0{fill:#FBBC04;}
	.st1{fill:#0F9D58;}
	.st2{fill:#EA4335;}
	.st3{fill:#4285F4;}
	.st4{opacity:0.54;}
</style>
<g>
	<path class="st0" d="M240.9,178.4c25.2-14.2,50.4-28.4,75.7-42.6c3.6-2,7.2-4.1,10.8-6.1c10.9-6.2,15.6-22.1,8.6-32.8
		c-7.1-11.1-21.1-15.2-32.8-8.6c-25.2,14.2-50.4,28.4-75.7,42.6c-3.6,2-7.2,4.1-10.8,6.1c-10.9,6.2-15.6,22.1-8.6,32.8
		C215.2,180.9,229.2,185,240.9,178.4L240.9,178.4z"/>
</g>
<g>
	<path class="st1" d="M217.1,81.5c25.2,14.2,50.4,28.4,75.7,42.6c3.6,2,7.2,4.1,10.8,6.1c10.9,6.2,26.7,3,32.8-8.6
		c6-11.3,3.1-26.3-8.6-32.8c-25.2-14.2-50.4-28.4-75.7-42.6c-3.6-2-7.2-4.1-10.8-6.1c-10.9-6.2-26.7-3-32.8,8.6
		C202.5,60,205.5,74.9,217.1,81.5L217.1,81.5z"/>
</g>
<g>
	<path class="st2" d="M132.9,39.8C107.7,54,82.5,68.2,57.3,82.4c-3.6,2-7.2,4.1-10.8,6.1c-10.9,6.2-15.6,22.1-8.6,32.8
		c7.1,11.1,21.1,15.2,32.8,8.6c25.2-14.2,50.4-28.4,75.7-42.6c3.6-2,7.2-4.1,10.8-6.1c10.9-6.2,15.6-22.1,8.6-32.8
		C158.6,37.3,144.7,33.2,132.9,39.8L132.9,39.8z"/>
</g>
<g>
	<path class="st3" d="M156.2,137.2c-25.2-14.2-50.4-28.4-75.7-42.6c-3.6-2-7.2-4.1-10.8-6.1c-10.9-6.2-26.7-3-32.8,8.6
		c-6,11.3-3.1,26.3,8.6,32.8c25.2,14.2,50.4,28.4,75.7,42.6c3.6,2,7.2,4.1,10.8,6.1c10.9,6.2,26.7,3,32.8-8.6
		C170.8,158.7,167.8,143.8,156.2,137.2L156.2,137.2z"/>
</g>
<g class="st4">
	<path d="M434.9,158.2c-8.5-4.9-15.2-11.6-20.2-20.2c-5-8.6-7.5-18.1-7.5-28.5c0-10.4,2.5-19.9,7.5-28.5c5-8.6,11.7-15.3,20.2-20.2
		c8.5-4.9,17.7-7.3,27.8-7.3c7.9,0,15.3,1.4,22.2,4.2c6.9,2.8,12.6,6.7,17.1,11.8l-9.1,9.1c-3.4-4.2-7.7-7.4-13-9.7
		c-5.3-2.2-11-3.4-17-3.4c-7.6,0-14.6,1.8-21.1,5.5c-6.5,3.6-11.8,8.8-15.7,15.4c-3.9,6.6-5.9,14.3-5.9,23c0,8.7,2,16.3,5.9,23
		c3.9,6.6,9.2,11.8,15.8,15.4c6.6,3.6,13.6,5.5,21.1,5.5c7.2,0,13.2-1.1,18-3.4c4.8-2.2,9-5.2,12.5-8.9c2.6-2.8,4.7-6.2,6.3-10.1
		c1.6-3.9,2.6-8.3,3-13.1H463v-11.8h51.4c0.5,2.8,0.7,5.4,0.7,7.8c0,6.6-1,13-3.1,19.2c-2.1,6.2-5.4,11.7-10,16.4
		c-9.9,10.7-23,16-39.3,16C452.6,165.6,443.3,163.1,434.9,158.2z"/>
	<path d="M533.9,56h38.4c5.4,0,10.4,1.2,15.2,3.7c4.7,2.5,8.5,5.9,11.3,10.3c2.8,4.4,4.2,9.3,4.2,14.8c0,5.2-1.3,9.7-4,13.6
		c-2.6,3.9-6.2,6.9-10.7,9v0.6c5.4,1.8,9.8,4.9,13.1,9.3c3.4,4.4,5.1,9.5,5.1,15.4c0,5.8-1.5,11-4.4,15.6
		c-2.9,4.6-6.9,8.3-11.8,10.9c-4.9,2.6-10.2,3.9-15.9,3.9h-40.5V56z M572.3,102.4c3.6,0,6.7-0.8,9.5-2.5c2.7-1.7,4.9-3.9,6.4-6.5
		c1.5-2.6,2.2-5.4,2.2-8.2c0-2.7-0.7-5.4-2.2-8c-1.4-2.6-3.5-4.8-6.1-6.5c-2.6-1.7-5.7-2.5-9.2-2.5h-26.4v34.3H572.3z M575.2,151.1
		c3.6,0,6.8-0.9,9.6-2.7c2.8-1.8,5-4.1,6.6-7c1.5-2.8,2.3-5.8,2.3-8.8s-0.8-5.9-2.4-8.8c-1.6-2.8-3.8-5.1-6.7-6.9
		c-2.9-1.7-6.2-2.6-10-2.6h-28.1v36.7H575.2z"/>
	<path d="M646.9,158.2c-8.5-4.9-15.2-11.6-20.2-20.2c-5-8.6-7.5-18.1-7.5-28.5c0-10.4,2.5-19.9,7.5-28.5c5-8.6,11.7-15.3,20.2-20.2
		c8.5-4.9,17.7-7.3,27.8-7.3c7.9,0,15.3,1.4,22.2,4.2c6.9,2.8,12.6,6.7,17.1,11.8l-9.1,9.1c-3.4-4.2-7.7-7.4-13-9.7
		c-5.3-2.2-11-3.4-17-3.4c-7.6,0-14.6,1.8-21.1,5.5c-6.5,3.6-11.8,8.8-15.7,15.4c-3.9,6.6-5.9,14.3-5.9,23c0,8.7,2,16.3,5.9,23
		c3.9,6.6,9.2,11.8,15.8,15.4c6.6,3.6,13.6,5.5,21.1,5.5c7.2,0,13.2-1.1,18-3.4c4.8-2.2,9-5.2,12.5-8.9c2.6-2.8,4.7-6.2,6.3-10.1
		c1.6-3.9,2.6-8.3,3-13.1H675v-11.8h51.4c0.5,2.8,0.7,5.4,0.7,7.8c0,6.6-1,13-3.1,19.2c-2.1,6.2-5.4,11.7-10,16.4
		c-9.9,10.7-23,16-39.3,16C664.6,165.6,655.4,163.1,646.9,158.2z"/>
</g>
</svg>
