<?xml version="1.0" encoding="utf-8"?>
<!-- Generator: Adobe Illustrator 25.4.7, SVG Export Plug-In . SVG Version: 6.00 Build 0)  -->
<svg version="1.1" xmlns="http://www.w3.org/2000/svg" xmlns:xlink="http://www.w3.org/1999/xlink" x="0px" y="0px"
	 viewBox="0 0 2160 2160" style="enable-background:new 0 0 2160 2160;" xml:space="preserve">
<style type="text/css">
	.st0{display:none;}
	.st1{display:inline;fill:#FFFFFF;}
	.st2{fill:#FFFFFF;}
	.st3{fill:#FBBD05;}
	.st4{fill:#EA4335;}
	.st5{fill:#34A853;}
	.st6{fill:#4285F4;}
</style>
<g id="Layer_4" class="st0">
	<rect class="st1" width="2160" height="2160"/>
</g>
<g id="Layer_5">
	<g>
		<circle class="st2" cx="1080" cy="1080" r="1079"/>
	</g>
</g>
<g id="Layer_8">
	<g id="Layer_7">
		<path class="st3" d="M1631,1184h-104.26H1355h-14.35c2.35,66,3.46,37,2.35,66c-7,182-145.25,316.72-327,316.99v184.5
			c241-0.5,453-142.5,495.17-377.5H1631V1184z"/>
	</g>
	<path class="st4" d="M1016,1566.99c-0.17,0-0.33,0.01-0.5,0.01c-181.98,0-329.5-147.52-329.5-329.5S833.52,908,1015.5,908
		c0.17,0,0.33,0.01,0.5,0.01V723.5c-0.17,0-0.33,0-0.5,0c-283.87,0-514,230.13-514,514s230.13,514,514,514c0.17,0,0.33,0,0.5,0
		V1566.99z"/>
	<path class="st5" d="M1016.5,351C810.77,351,644,517.77,644,723.5c0,0.17,0,0.33,0,0.5h188c0-101.62,82.38-184,184-184
		s184,82.38,184,184s-82.38,184-184,184v188c0.17,0,0.33,0,0.5,0c205.73,0,372.5-166.77,372.5-372.5S1222.23,351,1016.5,351z"/>
	<polygon class="st6" points="1401,1752 1670,1752 1016,1096 747,1096 	"/>
	<g>
	</g>
	<g>
	</g>
	<g>
	</g>
	<g>
	</g>
	<g>
	</g>
	<g>
	</g>
	<g>
	</g>
	<g>
	</g>
	<g>
	</g>
	<g>
	</g>
	<g>
	</g>
	<g>
	</g>
	<g>
	</g>
	<g>
	</g>
	<g>
	</g>
</g>
</svg>
