<?xml version="1.0" encoding="UTF-8" standalone="no"?>
<!-- Created with Inkscape (http://www.inkscape.org/) -->

<svg
   xmlns:dc="http://purl.org/dc/elements/1.1/"
   xmlns:cc="http://creativecommons.org/ns#"
   xmlns:rdf="http://www.w3.org/1999/02/22-rdf-syntax-ns#"
   xmlns:svg="http://www.w3.org/2000/svg"
   xmlns="http://www.w3.org/2000/svg"
   xmlns:sodipodi="http://sodipodi.sourceforge.net/DTD/sodipodi-0.dtd"
   xmlns:inkscape="http://www.inkscape.org/namespaces/inkscape"
   width="341.625"
   height="76.53125"
   id="svg2"
   version="1.1"
   inkscape:version="0.48.4 r9939"
   sodipodi:docname="New document 1">
  <defs
     id="defs4" />
  <sodipodi:namedview
     id="base"
     pagecolor="#ffffff"
     bordercolor="#666666"
     borderopacity="1.0"
     inkscape:pageopacity="0.0"
     inkscape:pageshadow="2"
     inkscape:zoom="1.979899"
     inkscape:cx="139"
     inkscape:cy="33.575317"
     inkscape:document-units="px"
     inkscape:current-layer="layer1"
     showgrid="false"
     fit-margin-top="0"
     fit-margin-left="0"
     fit-margin-right="0"
     fit-margin-bottom="0"
     inkscape:window-width="1920"
     inkscape:window-height="1018"
     inkscape:window-x="-8"
     inkscape:window-y="-8"
     inkscape:window-maximized="1" />
  <metadata
     id="metadata7">
    <rdf:RDF>
      <cc:Work
         rdf:about="">
        <dc:format>image/svg+xml</dc:format>
        <dc:type
           rdf:resource="http://purl.org/dc/dcmitype/StillImage" />
        <dc:title></dc:title>
      </cc:Work>
    </rdf:RDF>
  </metadata>
  <g
     inkscape:label="Layer 1"
     inkscape:groupmode="layer"
     id="layer1"
     transform="translate(-236,-489.40625)">
    <path
       style="font-size:95.94569397px;font-style:normal;font-variant:normal;font-weight:normal;font-stretch:normal;line-height:125%;letter-spacing:0px;word-spacing:0px;fill:#ce2633;fill-opacity:1;stroke:none;font-family:Impact;-inkscape-font-specification:Impact"
       d="m 236,489.40625 0,75.40625 22.9375,0 c 7.97811,0 13.26809,-0.44314 15.84375,-1.34375 2.57558,-0.90061 4.44708,-2.57785 5.625,-5.03125 1.17783,-2.45338 1.74995,-6.21937 1.75,-11.3125 l 0,-7 c -5e-5,-4.90676 -0.80423,-8.53046 -2.4375,-10.90625 -1.63337,-2.37572 -4.75793,-4.10013 -9.34375,-5.125 4.11467,-0.93163 6.88346,-2.26084 8.28125,-4 1.3977,-1.73907 2.0937,-4.8088 2.09375,-9.21875 -5e-5,-6.52162 -0.98997,-11.25268 -2.96875,-14.1875 -1.97888,-2.93468 -4.56176,-4.88095 -7.78125,-5.84375 -3.21956,-0.96265 -7.96818,-1.43742 -14.21875,-1.4375 l -19.78125,0 z m 19.84375,12.90625 c 2.04163,0.0311 3.41825,0.15787 4.125,0.40625 0.7067,0.24851 1.27898,0.86537 1.71875,1.8125 0.43971,0.94726 0.65622,2.57733 0.65625,4.9375 -3e-5,4.47206 -0.27856,7.17785 -0.8125,8.125 -0.534,0.94724 -1.77136,1.43755 -3.71875,1.4375 -0.47118,5e-5 -1.1207,2.9e-4 -1.96875,0.0312 l 0,-16.75 z m 0,28.5 c 2.95252,0.0932 4.74645,0.47306 5.4375,1.15625 0.69099,0.68326 1.06247,2.64525 1.0625,5.875 l 0,7.03125 c -3e-5,3.04347 -0.38673,4.97362 -1.15625,5.75 -0.76957,0.7764 -2.54828,1.1881 -5.34375,1.28125 l 0,-21.09375 z"
       id="path3024"
       inkscape:connector-curvature="0" />
    <path
       style="font-size:95.94569397px;font-style:normal;font-variant:normal;font-weight:normal;font-stretch:normal;line-height:125%;letter-spacing:0px;word-spacing:0px;fill:#ce2633;fill-opacity:1;stroke:none;font-family:Impact;-inkscape-font-specification:Impact"
       d="m 385.0625,489.40625 0,75.40625 19.03125,0 0,-26.90625 5.9375,26.90625 18.34375,0 L 418.34375,527.65625 426.0625,503 l -16.03125,0 -5.9375,18.0625 0,-31.65625 -19.03125,0 z"
       id="path3022"
       inkscape:connector-curvature="0" />
    <path
       style="font-size:95.94569397px;font-style:normal;font-variant:normal;font-weight:normal;font-stretch:normal;line-height:125%;letter-spacing:0px;word-spacing:0px;fill:#ce2633;fill-opacity:1;stroke:none;font-family:Impact;-inkscape-font-specification:Impact"
       d="m 431.8125,489.40625 0,75.40625 19.84375,0 0,-34 c 2.73265,3e-5 4.41857,0.47481 5.0625,1.4375 0.64388,0.96276 0.96872,3.4628 0.96875,7.5 l 0,25.0625 18.40625,0 0,-19.875 c -5e-5,-6.08687 -0.17024,-9.8053 -0.5,-11.15625 -0.32985,-1.35089 -1.14941,-2.85382 -2.5,-4.46875 -1.35068,-1.61485 -4.01129,-2.88099 -7.9375,-3.84375 4.33454,-0.40368 7.24243,-1.63759 8.71875,-3.65625 1.47622,-2.01857 2.2187,-5.94294 2.21875,-11.8125 -5e-5,-6.42845 -1.03628,-11.12768 -3.125,-14.0625 -2.08881,-2.93468 -4.81128,-4.7544 -8.125,-5.46875 -3.31379,-0.7142 -9.63984,-1.06242 -19,-1.0625 l -14.03125,0 z m 19.84375,12.90625 c 2.29291,6e-5 3.85495,0.37973 4.71875,1.125 0.86375,0.7454 1.31247,2.29628 1.3125,4.6875 l 0,4.15625 c -3e-5,3.323 -0.44859,5.26946 -1.34375,5.875 -0.89521,0.60563 -2.45741,0.9063 -4.6875,0.90625 l 0,-16.75 z"
       id="path3020"
       inkscape:connector-curvature="0" />
    <path
       style="font-size:95.94569397px;font-style:normal;font-variant:normal;font-weight:normal;font-stretch:normal;line-height:125%;letter-spacing:0px;word-spacing:0px;fill:#ce2633;fill-opacity:1;stroke:none;font-family:Impact;-inkscape-font-specification:Impact"
       d="m 533.75,489.40625 0,75.40625 17.8125,0 1.25,-4.65625 c 1.60189,1.92545 3.34951,3.38103 5.28125,4.34375 1.93169,0.96272 4.01986,1.4375 6.25,1.4375 3.10956,0 5.80094,-0.80708 8.0625,-2.4375 2.26148,-1.63042 3.69996,-3.56077 4.3125,-5.78125 0.61245,-2.22047 0.9062,-5.59087 0.90625,-10.125 l 0,-27.875 c -5e-5,-4.56513 -0.10838,-7.53994 -0.3125,-8.9375 -0.20421,-1.39745 -0.80742,-2.82158 -1.8125,-4.28125 -1.00517,-1.45955 -2.45903,-2.59874 -4.375,-3.40625 -1.91605,-0.80738 -4.17425,-1.21869 -6.78125,-1.21875 -2.26155,6e-5 -4.34956,0.45873 -6.28125,1.34375 -1.93174,0.88515 -3.67952,2.23008 -5.25,4.03125 l 0,-17.84375 -19.0625,0 z m 21.8125,23.4375 c 1.19356,5e-5 1.99789,0.49055 2.40625,1.46875 0.4083,0.9783 0.62497,3.05132 0.625,6.25 l 0,26.03125 c -3e-5,3.66458 -0.17006,5.97479 -0.53125,6.9375 -0.36124,0.96273 -1.1502,1.46876 -2.34375,1.46875 -1.1622,10e-6 -1.95115,-0.47457 -2.34375,-1.40625 -0.39265,-0.93166 -0.56252,-3.05204 -0.5625,-6.375 l 0,-26.65625 c -2e-5,-3.44713 0.15447,-5.58342 0.5,-6.4375 0.34549,-0.85398 1.0878,-1.2812 2.25,-1.28125 z"
       id="path3018"
       inkscape:connector-curvature="0" />
    <path
       style="font-size:95.94569397px;font-style:normal;font-variant:normal;font-weight:normal;font-stretch:normal;line-height:125%;letter-spacing:0px;word-spacing:0px;fill:#ce2633;fill-opacity:1;stroke:none;font-family:Impact;-inkscape-font-specification:Impact"
       d="m 309.40625,501.875 c -5.37114,6e-5 -9.73289,1.0125 -13.09375,3 -3.36088,1.98762 -5.6037,4.28191 -6.71875,6.875 -1.11506,2.59319 -1.6875,6.27998 -1.6875,11.0625 l 0,4.125 17.875,0 0,-6.46875 c -2e-5,-3.44713 0.15463,-5.58323 0.46875,-6.40625 0.31408,-0.82292 1.11842,-1.2187 2.40625,-1.21875 1.13074,5e-5 1.91937,0.49055 2.40625,1.46875 0.48683,0.9783 0.74997,3.08276 0.75,6.3125 -3e-5,2.57766 -0.21654,4.28654 -0.65625,5.125 -0.43977,0.83854 -3.81192,2.4527 -10.0625,4.875 -5.84228,2.23604 -9.49248,4.19803 -10.96875,5.875 -1.47628,1.67703 -2.21875,4.84149 -2.21875,9.46875 l 0,5.0625 c 0,6.24219 1.40771,10.27719 4.1875,12.125 2.77978,1.84781 5.82677,2.78125 9.15625,2.78125 2.54419,0 4.72499,-0.55378 6.5625,-1.65625 1.83746,-1.10247 3.3378,-2.7638 4.5,-4.96875 l 0,5.5 18.53125,0 0,-31.03125 c -5e-5,-10.21725 -0.34043,-16.94233 -1,-20.21875 -0.65965,-3.27631 -2.6084,-6.06091 -5.875,-8.3125 -3.26668,-2.25147 -8.12347,-3.37494 -14.5625,-3.375 z m 2.40625,33.5625 0,12.71875 c -3e-5,3.10557 -0.20131,5.0202 -0.5625,5.75 -0.36124,0.72982 -1.11894,1.09376 -2.3125,1.09375 -1.25642,10e-6 -2.10724,-0.47457 -2.53125,-1.40625 -0.42406,-0.93166 -0.62502,-2.98876 -0.625,-6.1875 -2e-5,-2.79498 0.23187,-4.94681 0.71875,-6.4375 0.48683,-1.49064 2.2657,-3.32627 5.3125,-5.53125 z"
       id="path3016"
       inkscape:connector-curvature="0" />
    <path
       style="font-size:95.94569397px;font-style:normal;font-variant:normal;font-weight:normal;font-stretch:normal;line-height:125%;letter-spacing:0px;word-spacing:0px;fill:#ce2633;fill-opacity:1;stroke:none;font-family:Impact;-inkscape-font-specification:Impact"
       d="m 357.96875,501.875 c -4.99421,6e-5 -9.23225,1.06006 -12.71875,3.15625 -3.48652,2.09631 -5.74456,4.48552 -6.8125,7.15625 -1.06794,2.67083 -1.625,6.62665 -1.625,11.875 l 0,17.5625 c 0,6.02481 0.66523,10.66115 1.96875,13.9375 1.30351,3.27637 3.51524,5.8395 6.65625,7.65625 3.14099,1.81675 7.41011,2.71875 12.78125,2.71875 4.20892,0 7.7354,-0.64889 10.59375,-1.96875 2.85828,-1.31986 5.16279,-3.28185 6.9375,-5.875 1.77462,-2.59313 2.8264,-5.12482 3.15625,-7.59375 0.32976,-2.4689 0.53104,-6.18714 0.5625,-11.125 l -16.96875,0 0,7.375 c -3e-5,3.19874 -0.23208,5.38221 -0.6875,6.53125 -0.45547,1.14907 -1.33721,1.71876 -2.625,1.71875 -1.09938,10e-6 -1.90339,-0.55377 -2.46875,-1.65625 -0.5654,-1.10246 -0.87502,-2.76379 -0.875,-4.96875 l 0,-29.15625 c -2e-5,-2.70179 0.21681,-4.44231 0.59375,-5.21875 0.3769,-0.77634 1.08813,-1.1562 2.1875,-1.15625 1.09933,5e-5 1.87289,0.42747 2.28125,1.3125 0.4083,0.88513 0.59372,2.5781 0.59375,5.0625 l 0,7.125 17.96875,0 c -5e-5,-5.80736 -0.58787,-10.30103 -1.75,-13.46875 -1.16221,-3.16762 -3.51337,-5.79422 -7.03125,-7.875 -3.51796,-2.08066 -7.75599,-3.12494 -12.71875,-3.125 z"
       id="path3014"
       inkscape:connector-curvature="0" />
    <path
       style="font-size:95.94569397px;font-style:normal;font-variant:normal;font-weight:normal;font-stretch:normal;line-height:125%;letter-spacing:0px;word-spacing:0px;fill:#ce2633;fill-opacity:1;stroke:none;font-family:Impact;-inkscape-font-specification:Impact"
       d="m 482.96875,503 0,41.6875 c 0,5.31052 0.12388,8.87056 0.34375,10.65625 0.21987,1.78571 0.76106,3.51031 1.65625,5.15625 0.89518,1.64595 2.30289,2.94372 4.1875,3.9375 1.88459,0.99378 4.23542,1.5 7.09375,1.5 2.51278,0 4.75576,-0.52214 6.6875,-1.5625 1.93169,-1.04036 3.55575,-2.60677 4.875,-4.6875 l -0.34375,5.125 19.375,0 0,-61.8125 -19.03125,0 0,41.59375 c -3e-5,5.06208 -0.13929,8.06834 -0.40625,9 -0.26701,0.93168 -1.11782,1.40626 -2.53125,1.40625 -1.31925,10e-6 -2.10788,-0.47438 -2.40625,-1.375 -0.29842,-0.9006 -0.46877,-3.74887 -0.46875,-8.5625 L 502,503 l -19.03125,0 z"
       id="path3008"
       inkscape:connector-curvature="0" />
  </g>
</svg>
