<?xml version="1.0" encoding="utf-8"?>
<!-- Generator: Adobe Illustrator 21.0.0, SVG Export Plug-In . SVG Version: 6.00 Build 0)  -->
<svg version="1.1" id="Layer_1" xmlns="http://www.w3.org/2000/svg" xmlns:xlink="http://www.w3.org/1999/xlink" x="0px" y="0px"
	 viewBox="0 0 301 354.7" style="enable-background:new 0 0 301 354.7;" xml:space="preserve">
<style type="text/css">
	.st0{clip-path:url(#SVGID_2_);fill:#053975;}
	.st1{clip-path:url(#SVGID_4_);fill:#053975;}
	.st2{clip-path:url(#SVGID_6_);fill:#4284F3;}
	.st3{clip-path:url(#SVGID_8_);fill:#255FDA;}
	.st4{clip-path:url(#SVGID_10_);fill:#0E3EC0;}
	.st5{clip-path:url(#SVGID_12_);fill:#255FDA;}
	.st6{clip-path:url(#SVGID_14_);fill:#255FDA;}
	.st7{clip-path:url(#SVGID_16_);fill:#4284F3;}
	.st8{clip-path:url(#SVGID_18_);fill:#255FDA;}
	.st9{clip-path:url(#SVGID_20_);fill:#0E3EC0;}
</style>
<g>
	<g>
		<defs>
			<rect id="SVGID_1_" width="301" height="354.7"/>
		</defs>
		<clipPath id="SVGID_2_">
			<use xlink:href="#SVGID_1_"  style="overflow:visible;"/>
		</clipPath>
		<path class="st0" d="M71.1,353.2c-1,0-2,0-3,0c-2.6-0.1-3.3-1.1-2.3-3.5c4-9.3,8.1-18.6,12.2-27.9c2.1-4.9,4.2-9.8,6.4-14.6
			c0.6-1.2,0.6-2.2,0.1-3.5c-4.3-10.9-8.6-21.7-12.9-32.6c-1.9-4.8-0.4-8.2,4.4-10.1c12.8-5,25.6-10,38.4-15.1c2-0.8,4-1.5,5.8,0.4
			s1.8,4.2,0.8,6.5c-3.5,8.2-7.1,16.4-10.7,24.6c-10.2,23.4-20.5,46.8-30.5,70.3C78.1,351.6,76,354.3,71.1,353.2"/>
	</g>
	<g>
		<defs>
			<rect id="SVGID_3_" width="301" height="354.7"/>
		</defs>
		<clipPath id="SVGID_4_">
			<use xlink:href="#SVGID_3_"  style="overflow:visible;"/>
		</clipPath>
		<path class="st1" d="M227.8,0.5c0.9,0,1.9,0,2.8,0c2.9,0,3.6,1,2.4,3.7c-5.2,11.9-10.2,23.9-15.6,35.7c-2,4.3-2.1,7.9-0.2,12.3
			c4.1,9.3,7.6,18.8,11.3,28.3c1.8,4.7,0.4,8.1-4.4,9.9c-12.8,5.1-25.6,10.1-38.4,15.1c-2.1,0.8-4.1,1.6-6-0.4
			c-1.8-2-1.7-4.2-0.7-6.5c3.2-7.4,6.4-14.8,9.6-22.2c10.2-23.4,20.5-46.8,30.5-70.2C220.9,2,222.9-0.7,227.8,0.5"/>
	</g>
	<g>
		<defs>
			<rect id="SVGID_5_" width="301" height="354.7"/>
		</defs>
		<clipPath id="SVGID_6_">
			<use xlink:href="#SVGID_5_"  style="overflow:visible;"/>
		</clipPath>
		<path class="st2" d="M184.8,316.1c0,2.5-0.6,4.2-2.4,5.4c-1.9,1.2-3.5,0.4-5.1-0.6c-11.9-7.6-23.8-15.1-35.7-22.7
			c-3.8-2.5-4.6-6.3-2.2-10.2c7.4-11.7,14.9-23.4,22.4-35.1c1.1-1.8,2.3-3.7,4.8-3.2c2.8,0.5,4.1,2.5,4.7,5.1c1.6,7,3.1,14,4.7,20.9
			c2.8,12.8,5.7,25.7,8.5,38.5C184.6,315,184.7,315.8,184.8,316.1"/>
	</g>
	<g>
		<defs>
			<rect id="SVGID_7_" width="301" height="354.7"/>
		</defs>
		<clipPath id="SVGID_8_">
			<use xlink:href="#SVGID_7_"  style="overflow:visible;"/>
		</clipPath>
		<path class="st3" d="M69.1,171.7c-10.4-1-20.2-1.9-30-2.8c-10.5-1-21-2.1-31.5-3.1c-1.2-0.1-2.4-0.3-3.6-0.8
			c-3.6-1.7-4.1-5.3-1-7.8c11-9.1,22-18.2,33-27.2c3.5-2.9,7.4-2.4,10.3,1.2c8.9,10.8,17.7,21.6,26.6,32.3c1.3,1.6,2.4,3.3,1.3,5.4
			C73,171.1,70.9,171.6,69.1,171.7"/>
	</g>
	<g>
		<defs>
			<rect id="SVGID_9_" width="301" height="354.7"/>
		</defs>
		<clipPath id="SVGID_10_">
			<use xlink:href="#SVGID_9_"  style="overflow:visible;"/>
		</clipPath>
		<path class="st4" d="M83,215.3c-0.1,2-1.2,3.5-2.8,4.5c-1.9,1.2-3.9,2.4-5.9,3.6c-15.7,9.2-31.3,18.4-47,27.7
			c-1.7,1-3.4,1.8-5.4,1.4c-2.7-0.5-4.2-2.5-3.5-5.2c3.6-14.2,7.2-28.3,10.9-42.5c1-3.9,4.7-5.7,9-4.6c6.3,1.6,12.7,3.3,19,4.9
			c7.2,1.9,14.4,3.7,21.7,5.6C81.9,211.5,83.1,212.9,83,215.3"/>
	</g>
	<g>
		<defs>
			<rect id="SVGID_11_" width="301" height="354.7"/>
		</defs>
		<clipPath id="SVGID_12_">
			<use xlink:href="#SVGID_11_"  style="overflow:visible;"/>
		</clipPath>
		<path class="st5" d="M95.4,121.7c0.1,3.3-2.8,5.3-6.6,3.9c-1-0.4-1.8-1-2.5-1.6c-15.2-13.5-30.4-27-45.6-40.4
			c-0.9-0.8-1.8-1.7-2.3-2.9c-1.5-3.3,0.2-6.4,3.8-6.6c9.8-0.6,19.7-1.2,29.5-1.8c4.4-0.3,8.8-0.5,13.2-0.8c4.1-0.3,7.4,2.4,7.7,6.3
			C93.6,92.1,94.4,106.5,95.4,121.7"/>
	</g>
	<g>
		<defs>
			<rect id="SVGID_13_" width="301" height="354.7"/>
		</defs>
		<clipPath id="SVGID_14_">
			<use xlink:href="#SVGID_13_"  style="overflow:visible;"/>
		</clipPath>
		<path class="st6" d="M260.3,222.3c-2.2,0-3.9-0.7-5.2-2.3c-9.3-11.2-18.5-22.5-27.8-33.8c-1.2-1.4-1.6-3-0.6-4.7
			c1.3-2.2,3.4-2.9,5.7-2.8c5.1,0.4,10.3,1,15.4,1.5c12.1,1.2,24.2,2.4,36.4,3.5c3.4,0.3,6.8,0.6,10.1,1c1,0.1,2,0.4,2.8,0.9
			c3.3,1.7,3.7,5.2,0.8,7.5c-6,5-12.1,10-18.2,15c-4.9,4.1-9.9,8.1-14.8,12.2C263.6,221.7,262.1,222.4,260.3,222.3"/>
	</g>
	<g>
		<defs>
			<rect id="SVGID_15_" width="301" height="354.7"/>
		</defs>
		<clipPath id="SVGID_16_">
			<use xlink:href="#SVGID_15_"  style="overflow:visible;"/>
		</clipPath>
		<path class="st7" d="M133.4,101c-2.4,0-4.4-1.7-5.2-4.8c-1.5-6.1-2.8-12.3-4.2-18.5c-3-13.7-6.1-27.3-9.1-41
			c-0.2-0.8-0.4-1.5-0.4-2.3c-0.1-2.2,0.5-4.2,2.5-5.4c1.7-1,3.4-0.4,5,0.6c11.8,7.5,23.7,15,35.5,22.6c4.2,2.7,5,6.3,2.3,10.6
			c-7.5,11.8-15,23.5-22.5,35.3C136.4,99.7,135.4,101,133.4,101"/>
	</g>
	<g>
		<defs>
			<rect id="SVGID_17_" width="301" height="354.7"/>
		</defs>
		<clipPath id="SVGID_18_">
			<use xlink:href="#SVGID_17_"  style="overflow:visible;"/>
		</clipPath>
		<path class="st8" d="M216.5,279.4c-3.8,0.2-7-2.6-7.2-6.5c-0.9-14.3-1.8-28.6-2.6-42.9c-0.2-3.9,2.7-6,6.4-4.7
			c1,0.4,1.9,1,2.7,1.7c15.2,13.4,30.4,26.9,45.5,40.3c0.9,0.8,1.7,1.6,2.2,2.7c1.7,3.4,0,6.6-3.8,6.8
			C245.3,277.7,230.9,278.6,216.5,279.4"/>
	</g>
	<g>
		<defs>
			<rect id="SVGID_19_" width="301" height="354.7"/>
		</defs>
		<clipPath id="SVGID_20_">
			<use xlink:href="#SVGID_19_"  style="overflow:visible;"/>
		</clipPath>
		<path class="st9" d="M280.2,103.5c-0.9,3.6-1.9,7.7-3,11.8c-2.6,10.1-5.2,20.1-7.8,30.2c-1.3,5-4.5,6.9-9.5,5.6
			c-13.4-3.5-26.8-6.9-40.2-10.4c-1.9-0.5-3.8-1.2-4.2-3.4c-0.5-2.3,0.7-4,2.4-5.4c0.7-0.5,1.4-1,2.1-1.4c17-10,34.1-20.1,51.1-30.1
			c1.8-1.1,3.7-1.9,5.9-1.3C279,99.6,280.1,100.9,280.2,103.5"/>
	</g>
</g>
</svg>
