<?xml version="1.0" encoding="UTF-8" standalone="no"?>
<!-- Created with Inkscape (http://www.inkscape.org/) -->

<svg
   xmlns:dc="http://purl.org/dc/elements/1.1/"
   xmlns:cc="http://creativecommons.org/ns#"
   xmlns:rdf="http://www.w3.org/1999/02/22-rdf-syntax-ns#"
   xmlns:svg="http://www.w3.org/2000/svg"
   xmlns="http://www.w3.org/2000/svg"
   xmlns:sodipodi="http://sodipodi.sourceforge.net/DTD/sodipodi-0.dtd"
   xmlns:inkscape="http://www.inkscape.org/namespaces/inkscape"
   width="227.0125mm"
   height="30.427082mm"
   viewBox="0 0 227.0125 30.427082"
   version="1.1"
   id="svg8"
   inkscape:version="0.92.5 (2060ec1f9f, 2020-04-08)"
   sodipodi:docname="youtube theater logo.svg">
  <defs
     id="defs2" />
  <sodipodi:namedview
     id="base"
     pagecolor="#ffffff"
     bordercolor="#666666"
     borderopacity="1.0"
     inkscape:pageopacity="0.0"
     inkscape:pageshadow="2"
     inkscape:zoom="0.84107037"
     inkscape:cx="776.39163"
     inkscape:cy="127.58444"
     inkscape:document-units="mm"
     inkscape:current-layer="layer1"
     showgrid="false"
     inkscape:pagecheckerboard="true"
     fit-margin-top="0"
     fit-margin-left="0"
     fit-margin-right="0"
     fit-margin-bottom="0"
     inkscape:window-width="1920"
     inkscape:window-height="1017"
     inkscape:window-x="1912"
     inkscape:window-y="70"
     inkscape:window-maximized="1" />
  <metadata
     id="metadata5">
    <rdf:RDF>
      <cc:Work
         rdf:about="">
        <dc:format>image/svg+xml</dc:format>
        <dc:type
           rdf:resource="http://purl.org/dc/dcmitype/StillImage" />
        <dc:title></dc:title>
      </cc:Work>
    </rdf:RDF>
  </metadata>
  <g
     inkscape:label="Layer 1"
     inkscape:groupmode="layer"
     id="layer1"
     transform="translate(222.18956,-23.04347)">
    <g
       style="fill-rule:evenodd"
       id="g893"
       transform="matrix(0.07865916,0,0,0.07763425,-239.77921,5.2923003)">
      <g
         id="g866">
        <g
           id="g864">
          <path
             id="path834"
             d="m 455.5,228.99 c -85.7,1.2 -147.5,5.2 -170.2,11 -20.2,5.1 -38.5,20.6 -46.9,39.6 -5,11.2 -9.1,35.3 -11.9,68.3 -6.3,77.3 -1.9,177 9.6,214.8 6.3,20.5 24.6,38.9 45.4,45.6 50.4,16.1 382.1,16.5 441.3,0.5 22.1,-5.9 39.9,-22.3 47.6,-43.7 8.3,-23.1 13,-74 13,-140.2 0.1,-43.7 -0.9,-64.5 -4.5,-96 -4.6,-41.6 -10.1,-56.3 -26.7,-72.1 -14.3,-13.6 -26.3,-18 -58.2,-21.3 -49.6,-5.3 -141.8,-7.8 -238.5,-6.5 z m 65.8,153.4 c 40,23.1 72.3,42.2 71.9,42.6 -1,0.9 -143.1,82.9 -144.8,83.6 -1.2,0.4 -1.4,-12.8 -1.4,-84.2 0,-46.6 0.4,-84.5 0.8,-84.3 0.5,0.1 33.5,19.2 73.5,42.3 z"
             style="fill:#ff0000;fill-opacity:1;stroke:none"
             inkscape:connector-curvature="0" />
          <path
             id="path836"
             d="m 1656,418.39 v 174.5 l 23.1,-0.2 23.2,-0.3 1.9,-8 c 1,-4.4 2.3,-9.7 2.9,-11.9 l 1,-3.9 3.4,5 c 4.7,6.9 11.8,13 19.9,16.9 9.2,4.4 15.9,5.7 28.1,5.2 9.4,-0.3 10.8,-0.6 17.8,-4.1 17,-8.4 26.3,-26 31.4,-59.7 1.6,-9.9 1.8,-19.1 1.8,-66.5 0,-58.9 -0.6,-67.5 -5.6,-85.5 -7.1,-25.8 -21.7,-38 -45.2,-38 -18,0.1 -35.9,9.9 -45.9,25.4 l -3.8,5.9 v -64.6 -64.7 h -27 -27 z m 83.2,-36.5 c 7.8,2.2 12.7,12.2 14.7,30.1 1.7,15.5 2.4,68.4 1.2,92.1 -1.8,36.6 -5.7,47.9 -17.8,51.9 -7.6,2.5 -18.3,-0.9 -24.1,-7.6 l -3.2,-3.6 v -71 -71 l 2.9,-5.8 c 4.5,-8.9 13.2,-15.6 20.6,-16 1.1,0 3.7,0.4 5.7,0.9 z"
             style="fill:#212121;fill-opacity:1;stroke:none"
             inkscape:connector-curvature="0" />
          <path
             id="path838"
             d="m 2221,418.39 v 174.5 h 27.5 27.5 v -98.4 -98.4 l 5,-5.5 c 10.7,-11.7 24.6,-12.9 32.2,-2.6 4.6,6.1 4.8,10.5 4.8,110.6 v 94.3 h 27.5 27.6 l -0.3,-103.3 c -0.3,-102.6 -0.3,-103.2 -2.5,-110.9 -5.7,-20.2 -15.5,-31.1 -31.7,-35.4 -6.8,-1.8 -21.8,-1.8 -29.1,0.1 -3.2,0.9 -8.1,2.8 -10.9,4.3 -6.8,3.6 -18.4,15.3 -22.4,22.7 l -3.3,6 0.5,-5.5 c 2,-19.1 2.6,-37.9 2.6,-79.8 v -47.2 h -27.5 -27.5 z"
             style="fill:#212121;fill-opacity:1;stroke:none"
             inkscape:connector-curvature="0" />
          <path
             id="path840"
             d="m 840.5,258.59 c 0.3,1.6 14.6,53.2 31.7,114.8 l 31,112 -0.7,53.7 -0.7,53.8 h 27.6 27.6 v -54.6 -54.6 l 31.5,-112.7 c 17.4,-61.9 31.8,-113.2 32,-113.9 0.4,-1 -5.2,-1.2 -27.2,-1 l -27.7,0.3 -7.3,33 c -13.5,61.2 -21.2,97.9 -24.5,116.2 -1.8,10.1 -3.5,18.3 -3.9,18.3 -0.4,0 -1.3,-3.3 -1.9,-7.3 -3.2,-19.4 -15.5,-79 -32.2,-155.5 l -1.1,-5.2 h -27.5 -27.4 z"
             style="fill:#212121;fill-opacity:1;stroke:none"
             inkscape:connector-curvature="0" />
          <path
             id="path842"
             d="m 1325.2,278.09 0.3,22.3 27.3,0.3 27.2,0.2 v 146 146 h 27.5 27.5 v -146 -146 l 27.3,-0.2 27.2,-0.3 0.3,-22.3 0.2,-22.2 h -82.5 -82.5 z"
             style="fill:#212121;fill-opacity:1;stroke:none"
             inkscape:connector-curvature="0" />
          <path
             id="path844"
             d="m 2039,278.39 v 22.5 h 27.5 27.5 v 146 146 h 27 27 v -146 -146 l 27.3,-0.2 27.2,-0.3 0.3,-22.3 0.2,-22.2 h -82 -82 z"
             style="fill:#212121;fill-opacity:1;stroke:none"
             inkscape:connector-curvature="0" />
          <path
             id="path846"
             d="m 2745.2,307.09 c -1.8,18.3 -3.5,34.8 -3.8,36.5 l -0.5,3.3 h -10.9 -11 v 21.5 21.5 h 10 9.9 l 0.4,85.7 c 0.3,93.5 0.2,91.5 6.1,103.2 6.4,12.6 16,17.1 36.8,17.1 17.4,0 34.3,-3 47.2,-8.4 l 3.3,-1.4 -3.3,-17.2 c -1.8,-9.5 -3.5,-17.4 -3.7,-17.6 -0.2,-0.3 -3,0.2 -6.3,1.1 -3.2,0.8 -9,1.5 -12.9,1.5 -6.1,0 -7.5,-0.3 -9.3,-2.3 -4.8,-5.1 -4.7,-3.6 -5,-85 l -0.3,-76.7 h 17.6 17.5 v -21.5 -21.5 h -18.5 -18.5 v -36.5 -36.5 h -20.8 -20.8 z"
             style="fill:#212121;fill-opacity:1;stroke:none"
             inkscape:connector-curvature="0" />
          <path
             id="path848"
             d="m 1065.8,343.49 c -33.1,6 -49.8,26.3 -56.5,68.6 -1.5,9.7 -1.8,18.1 -1.8,58.8 0,51.6 0.6,59.9 6.1,78.9 7.2,24.8 22.1,39.3 45.9,44.8 11.9,2.7 39,2.4 49.8,-0.5 11.9,-3.3 20.3,-7.8 27.2,-14.8 10.9,-10.9 16.6,-23.9 20.8,-46.9 2.1,-11.3 2.2,-14.9 2.2,-62.5 0,-47.9 -0.1,-51.1 -2.2,-62.8 -6.2,-34 -18.8,-52.2 -41.9,-60.5 -13.1,-4.7 -33.7,-6 -49.6,-3.1 z m 26.7,39.4 c 3.9,2.4 7,7.8 9.2,16.1 1.4,5.6 1.7,13.8 2,65.4 0.4,60.1 0,70.4 -3.4,80.4 -3,9.2 -8.9,14.1 -16.8,14.1 -9,0 -14.3,-5.3 -17.7,-17.6 -2.1,-7.6 -2.2,-10.1 -2.6,-64.4 -0.4,-57.7 0.1,-69.4 3.4,-81 1.9,-7 7.1,-13.5 11.7,-14.9 4.2,-1.3 10.4,-0.5 14.2,1.9 z"
             style="fill:#212121;fill-opacity:1;stroke:none"
             inkscape:connector-curvature="0" />
          <path
             id="path850"
             d="m 1894.5,342.89 c -10.2,1.7 -20.9,5.8 -28.4,11.1 -14.4,10.1 -22.4,25.8 -27.7,54.4 -1.7,8.9 -1.9,15.6 -1.9,60.5 0,56.7 0.6,63.2 7.1,82.9 4.4,13.4 8.3,20.1 15.8,27.7 13.5,13.5 36.8,19.6 63,16.4 19,-2.3 31.1,-7.5 41.6,-18 11.2,-11.2 15.7,-23.3 16.7,-45.3 0.6,-12.7 0.6,-12.7 -1.7,-12.7 -2.3,0 -32.9,-1.7 -41.1,-2.3 l -4.6,-0.4 -1.1,11.1 c -1.9,18.5 -4.8,25.1 -12.6,28.7 -8.4,3.8 -19.3,1.3 -23.4,-5.3 -4.3,-6.9 -5.3,-13.9 -5.9,-39.6 l -0.6,-24.2 h 46.7 46.6 v -23.3 c 0,-62.9 -5,-88.8 -20.4,-105.4 -10.6,-11.5 -24,-16.2 -47.6,-16.8 -8,-0.2 -17.2,0 -20.5,0.5 z m 25.9,39.4 c 1.4,0.9 3.3,3.1 4.3,4.9 3.7,7.1 4.5,13.6 5,41.4 l 0.5,27.3 h -20.2 -20.2 l 0.5,-26.8 c 0.3,-14.7 1.1,-28.9 1.6,-31.6 1.5,-6.9 4.7,-13.1 7.7,-15.1 5.4,-3.5 15.6,-3.6 20.8,-0.1 z"
             style="fill:#212121;fill-opacity:1;stroke:none"
             inkscape:connector-curvature="0" />
          <path
             id="path852"
             d="m 2458.5,342.89 c -36.2,3.3 -55,23.6 -62.1,67.2 -2.2,13.4 -3.2,84.8 -1.5,105.5 3.9,47.2 19.2,71.1 50.1,78.7 9.3,2.2 25,3 35.5,1.7 19.7,-2.4 30.4,-7 41.1,-17.6 11.8,-11.7 16.3,-23.4 17.1,-45.3 0.6,-13.1 0.6,-13.2 -1.7,-13.2 -2.3,0 -32.9,-1.7 -41.1,-2.3 l -4.6,-0.4 -0.6,10.2 c -1.4,22.1 -7.8,31.5 -21.5,31.5 -2.6,0 -6.6,-0.9 -9,-2 -3.5,-1.6 -4.7,-2.9 -6.7,-7.2 -3.6,-8.1 -4.8,-17.2 -4.9,-40.3 l -0.1,-21 46.4,-0.3 46.4,-0.2 -0.6,-36.8 c -0.4,-26 -1,-39.8 -2.1,-47.2 -6.3,-41.4 -22.2,-58 -58.3,-61 -6.5,-0.5 -12.2,-0.9 -12.8,-0.8 -0.5,0 -4.6,0.4 -9,0.8 z m 18.5,38.8 c 4.6,2.2 8.6,10.2 10.1,20.2 0.6,4.1 1.2,17.8 1.3,30.5 l 0.1,23 h -20 -20 l 0.1,-23.5 c 0.2,-33.7 2.4,-44.5 10.3,-49.7 4.3,-2.9 13,-3.1 18.1,-0.5 z"
             style="fill:#212121;fill-opacity:1;stroke:none"
             inkscape:connector-curvature="0" />
          <path
             id="path854"
             d="m 2617.6,342.99 c -39.5,5.4 -56.6,26.8 -56.6,70.4 v 13.4 l 5.3,0.5 c 6,0.7 40.2,3.6 42.1,3.6 0.9,0 1.5,-3.1 2,-11.8 1.4,-25.6 6.4,-36.1 18.4,-38.7 5.5,-1.2 11.9,0.3 15.7,3.6 4.2,3.7 6.2,9.5 7.5,21.9 1,9.5 1.4,38 0.6,38 -0.3,0 -5.6,1.6 -11.9,3.5 -46.4,14 -74,36.7 -81.8,67.2 -5.8,22.9 -2.5,47.3 8.5,62.7 8.9,12.3 21.9,19.1 38.8,20.3 22.1,1.5 38.4,-7.6 47.4,-26.5 2.2,-4.5 4.1,-8.1 4.4,-8.1 0.3,-0.1 1.4,4.5 2.4,10.1 1,5.7 2.2,12.4 2.8,15 l 1,4.8 h 20.9 21 l -0.4,-94.8 c -0.3,-91.9 -0.4,-95 -2.4,-103.7 -6.7,-28.8 -18.6,-42.7 -42.3,-49.5 -8.7,-2.5 -31.9,-3.5 -43.4,-1.9 z m 35.4,165.9 v 35.9 l -5.2,5.3 c -6.5,6.6 -11,8.8 -18,8.8 -12.4,0 -17.9,-9.5 -17.9,-30.8 0.1,-26.3 10.4,-42.1 34.6,-52.9 2.8,-1.2 5.3,-2.2 5.8,-2.3 0.4,0 0.7,16.2 0.7,36 z"
             style="fill:#212121;fill-opacity:1;stroke:none"
             inkscape:connector-curvature="0" />
          <path
             id="path856"
             d="m 2901.5,342.99 c -21.1,2 -36.3,9.7 -46,23.3 -15.2,21.4 -19.2,46.8 -18.2,115.5 0.6,38.2 1.6,49.9 5.7,65 5.7,20.6 17.8,36.6 32.7,43.3 12.4,5.5 31.3,7.8 48.3,5.9 25.5,-3 42.1,-13.2 51,-31.6 4.9,-9.9 7,-20.3 7,-34 v -10.5 l -3.7,-0.1 c -2.1,0 -12.6,-0.6 -23.3,-1.3 -10.7,-0.7 -19.8,-1.1 -20.2,-0.9 -0.5,0.2 -0.8,3.2 -0.8,6.6 0,16.6 -4.4,28.4 -12,32.5 -3.7,1.9 -5.6,2.3 -10.7,2 -9.3,-0.6 -15,-5.7 -17.2,-15.6 -1.4,-6.1 -3.3,-36.5 -2.9,-46.7 l 0.3,-8 46.4,-0.3 46.3,-0.2 -0.5,-37.8 c -0.5,-41.5 -1.5,-51.4 -6.8,-67.8 -6.2,-19.3 -17.3,-30.8 -35.3,-36.3 -5.8,-1.8 -25.8,-4.4 -30.6,-4 -0.8,0.1 -5.1,0.5 -9.5,1 z m 20.2,39.6 c 7.6,5.6 9.5,15 9.7,47.8 l 0.1,25 h -20 -20 l -0.3,-10 c -0.5,-15.2 1.5,-45.2 3.4,-51.5 3.2,-10.9 7.7,-14.2 18.1,-13.7 4.4,0.2 7.1,0.9 9,2.4 z"
             style="fill:#212121;fill-opacity:1;stroke:none"
             inkscape:connector-curvature="0" />
          <path
             id="path858"
             d="m 3087.8,343.49 c -9,2.8 -19.4,12.8 -25.3,24.4 -2.8,5.6 -7.1,18.9 -8,25.1 -0.7,4.6 -2,7.7 -2.9,6.9 -0.2,-0.3 -1.5,-12.3 -2.8,-26.8 l -2.3,-26.2 h -21.2 -21.3 v 123 123 h 26.5 26.5 v -86.4 -86.3 l 3.9,-4.5 c 6.3,-7.1 14.1,-10.1 27.1,-10.6 5.8,-0.2 12.4,0.1 14.8,0.6 3.9,0.9 4.2,0.8 4.6,-1.2 0.8,-4 2.8,-60.5 2.1,-61.6 -0.9,-1.5 -16.2,-1.1 -21.7,0.6 z"
             style="fill:#212121;fill-opacity:1;stroke:none"
             inkscape:connector-curvature="0" />
          <path
             id="path860"
             d="m 1189.3,450.09 c 0.3,95.8 0.4,103.8 2.1,110.3 3.9,15.1 11.7,26.4 21.6,31.5 9.3,4.7 23.9,6.1 36.5,3.5 14.7,-3.1 26.9,-11.8 35.5,-25.3 2.5,-3.9 4.8,-7.1 5.1,-7.1 0.4,-0.1 1.7,6.6 3,14.9 l 2.3,15 h 21.8 21.8 v -123 -123 h -28 -28 v 98.4 98.3 l -4.1,4.7 c -4.9,5.5 -10.2,8.5 -16.7,9.3 -10,1.1 -15,-3.9 -17.2,-16.8 -0.6,-4.1 -1,-40.4 -1,-100.2 v -93.7 h -27.5 -27.6 z"
             style="fill:#212121;fill-opacity:1;stroke:none"
             inkscape:connector-curvature="0" />
          <path
             id="path862"
             d="m 1473.3,449.59 c 0.3,102.1 0.3,102.9 2.5,111 7,26.3 23.1,38 49.6,36 14,-1.1 23.7,-5.2 33.5,-14.3 5.3,-4.9 13.1,-14.9 14.4,-18.6 0.9,-2.5 1.6,-0.1 3.6,12.2 1.2,6.9 2.4,13.5 2.6,14.7 0.5,2.3 0.6,2.3 22,2.3 h 21.5 v -123 -123 h -28 -28 v 98.5 98.6 l -4.5,4.8 c -8.8,9.4 -21,11.8 -27.6,5.5 -6.5,-6.3 -6.3,-2.6 -6.7,-110.2 l -0.3,-97.2 h -27.5 -27.5 z"
             style="fill:#212121;fill-opacity:1;stroke:none"
             inkscape:connector-curvature="0" />
        </g>
      </g>
    </g>
    <path
       id="path917-5"
       d="m -204.61764,44.874208 11.67979,-6.607808 -11.67979,-6.60818 z"
       inkscape:connector-curvature="0"
       style="fill:#ffffff;fill-rule:evenodd;stroke-width:0.18315724" />
  </g>
</svg>
