<?xml version="1.0" encoding="UTF-8" standalone="no"?>
<!-- Created with Inkscape (http://www.inkscape.org/) -->

<svg
   xmlns:dc="http://purl.org/dc/elements/1.1/"
   xmlns:cc="http://creativecommons.org/ns#"
   xmlns:rdf="http://www.w3.org/1999/02/22-rdf-syntax-ns#"
   xmlns:svg="http://www.w3.org/2000/svg"
   xmlns="http://www.w3.org/2000/svg"
   xmlns:sodipodi="http://sodipodi.sourceforge.net/DTD/sodipodi-0.dtd"
   xmlns:inkscape="http://www.inkscape.org/namespaces/inkscape"
   width="143.45642mm"
   height="44.334591mm"
   viewBox="0 0 143.45642 44.334591"
   version="1.1"
   id="svg8"
   inkscape:version="0.92.4 (5da689c313, 2019-01-14)"
   sodipodi:docname="ar core.svg">
  <defs
     id="defs2" />
  <sodipodi:namedview
     id="base"
     pagecolor="#ffffff"
     bordercolor="#666666"
     borderopacity="1.0"
     inkscape:pageopacity="0.0"
     inkscape:pageshadow="2"
     inkscape:zoom="0.7"
     inkscape:cx="-48.635941"
     inkscape:cy="307.2732"
     inkscape:document-units="mm"
     inkscape:current-layer="layer1"
     showgrid="false"
     fit-margin-top="0"
     fit-margin-left="0"
     fit-margin-right="0"
     fit-margin-bottom="0"
     inkscape:window-width="1920"
     inkscape:window-height="1017"
     inkscape:window-x="-8"
     inkscape:window-y="-8"
     inkscape:window-maximized="1" />
  <metadata
     id="metadata5">
    <rdf:RDF>
      <cc:Work
         rdf:about="">
        <dc:format>image/svg+xml</dc:format>
        <dc:type
           rdf:resource="http://purl.org/dc/dcmitype/StillImage" />
        <dc:title></dc:title>
      </cc:Work>
    </rdf:RDF>
  </metadata>
  <g
     inkscape:label="Livello 1"
     inkscape:groupmode="layer"
     id="layer1"
     transform="translate(-53.473611,-156.3177)">
    <g
       id="g232"
       transform="translate(0.0025842,0.18465903)">
      <path
         style="fill:#e4c1ea;fill-opacity:1;stroke-width:0.35277778"
         d="m 63.317642,195.1054 c -9.538699,-5.43306 -9.245184,-4.8531 -9.538699,-5.43306 -0.317775,-0.62791 0.626361,-3.64479 -0.06333,-11.51508 l 0.153635,-11.46598 v 0 c 0.533576,-0.56349 4.767581,-2.98256 9.327234,-5.55945 6.699963,-3.7865 7.921755,-4.42871 9.062173,-4.44431 1.180592,-0.0162 2.502593,0.87554 9.438572,4.82359 4.559653,2.59542 9.297699,4.89191 9.645788,5.19119 0.371829,0.46265 -0.0065,0.45359 -5.083453,3.69553 -2.999948,1.69999 -5.233081,2.98221 -5.670107,3.30804 -0.301326,0.22466 -2.428227,1.01506 -4.029997,1.88818 -1.667168,0.90877 -3.37747,1.5875 -4.000289,1.5875 -0.658266,0 -2.286801,-0.68739 -4.123235,-1.74038 -1.66939,-0.95721 -4.366658,-2.42056 -4.608011,-2.32794 -1.432479,0.54969 -1.699292,7.9551 -0.02016,10.76871 0.688947,1.64889 2.262195,2.40333 3.970804,3.30816 1.094842,0.57979 1.903031,1.33455 3.921442,1.34079 2.256681,0.007 3.708418,-0.23395 5.10921,-1.05742 0.903295,-0.531 2.437635,-1.13919 3.06317,-1.929 0.785248,-0.99145 1.301002,-1.65713 1.301002,-1.65713 1.208842,0.46357 8.638896,6.03767 9.02827,6.50683 0.506688,0.61052 0.8278,-0.51279 0,0 -0.341715,0.21169 -4.022281,2.56797 -8.525507,5.12071 -6.543227,3.70913 -8.456281,4.64062 -9.525,4.63783 -1.070903,-0.003 -3.649595,-2.09465 -8.833508,-5.04731 z"
         id="path246"
         inkscape:connector-curvature="0"
         sodipodi:nodetypes="ccsccccsccsssscccccccccccsc" />
      <path
         style="fill:#bb67cb;fill-opacity:1;stroke-width:0.35277778"
         d="m 63.027524,195.68305 c -4.542332,-2.60504 -8.55077,-5.00068 -8.90764,-5.32364 -0.604329,-0.54691 -0.648857,-1.36563 -0.648857,-11.93039 0,-8.55006 0.108585,-11.47674 0.440973,-11.8856 0.242534,-0.29834 2.504722,-1.70159 5.027083,-3.11834 2.522361,-1.41674 6.332362,-3.5634 8.466667,-4.77035 2.134306,-1.20694 4.310585,-2.29604 4.836178,-2.42022 0.727329,-0.17184 1.654373,1.07887 3.880556,2.25515 6.601033,3.48788 14.911839,7.85883 15.015157,8.36712 0.124104,0.61055 -0.302915,1.01816 -6.378959,4.46224 l -4.133105,2.3617 -1.742448,-1.53657 c -1.791582,-1.61079 -4.47439,-2.72371 -6.565766,-2.72371 -3.171529,0 -7.93676,3.16896 -9.133717,6.07409 -0.619439,1.50343 -0.711927,4.71771 -0.176287,6.12655 0.800404,2.26086 2.941066,4.26938 4.817618,5.31945 2.367665,1.38755 5.757023,1.55066 8.274315,0.39821 1.042667,-0.47735 2.59331,-1.35207 3.359254,-2.16037 0.765944,-0.8083 1.491374,-1.64682 1.698684,-1.64682 0.576453,0 8.750661,5.21015 9.539345,5.99251 0.608972,0.60408 0.964751,0.41596 0.510476,0.85292 -0.284882,0.27402 -4.336645,2.6559 -9.003916,5.29307 -6.51666,3.68212 -8.768014,4.78957 -9.70139,4.77213 -0.890044,-0.0166 -3.426463,-1.29072 -9.474221,-4.75913 z"
         id="path244"
         inkscape:connector-curvature="0"
         sodipodi:nodetypes="scsccccsssccsccccssccccs" />
      <path
         style="fill:#7620a2;fill-opacity:1;stroke-width:0.35277778"
         d="m 71.429324,188.06343 c -0.08162,-0.0816 2.367568,0.69622 5.987338,-1.4516 1.19712,-0.79004 2.370617,-1.91082 3.685854,-3.17334 2.967659,1.54738 2.996222,1.55103 10.824466,6.41741 0.06912,0.21847 -4.119606,2.68961 -8.056814,4.92719 -9.369327,5.32477 -10.437108,5.68033 -11.318403,5.67238 -1.844238,-4.42576 -1.124781,-8.33845 -1.122441,-12.39204 z M 58.853453,170.17487 c -2.569453,-1.48209 -5.040387,-3.34233 -5.041801,-3.56222 -0.0014,-0.21988 2.506042,-1.71519 5.367951,-3.3229 2.86191,-1.60772 6.555026,-3.68171 8.533591,-4.81304 2.24312,-1.28259 4.430753,-2.62905 5.017195,-2.29081 2.896182,1.67043 5.196428,2.70728 16.16905,9.094 l 2.443685,1.42237 -0.791358,0.64081 c -0.844815,0.68409 -9.428985,5.60514 -9.77748,5.60514 -0.11412,0 -0.752113,-0.0585 -1.621925,-0.82412 -3.943749,-3.47143 -7.539618,-3.75677 -13.195536,-0.016 -0.775875,0.70096 -1.232812,1.3236 -1.403323,1.30197 -0.170512,-0.0216 -3.130592,-1.75307 -5.700049,-3.23516 z"
         id="path238"
         inkscape:connector-curvature="0"
         sodipodi:nodetypes="ccccccccsccssccssccsc" />
      <path
         style="fill:#471584;fill-opacity:1;stroke-width:0.35277778"
         d="m 62.724085,195.52466 c -4.802187,-2.75461 -8.95224,-5.0482 -8.84818,-5.54422 0,0 2.528669,-1.62626 5.132726,-3.19559 l 5.128916,-3.09095 1.31589,1.46194 c 1.613185,1.79222 4.672982,2.72209 5.480194,2.84246 2.288391,0.17605 1.963391,1.33527 1.963391,1.33527 l -0.172604,4.88884 c -0.09004,2.55035 -0.172653,6.23306 -0.172653,6.23306 -0.525701,0.0427 -0.513142,-0.0188 -1.235554,-0.31664 -0.493933,-0.22116 -3.789938,-1.85956 -8.592126,-4.61417 z m 15.835158,-23.60405 c -1.27925,-1.08281 -1.975207,-1.44293 -5.141716,-2.42307 l -0.926852,-0.0737 -0.0146,-6.70617 c 0.0021,-5.53018 -0.280263,-6.39423 0.383936,-6.49787 8.624601,4.8801 8.846619,5.10627 18.65016,10.53677 0.03554,0.3556 -0.189133,0.68229 -0.720473,0.9749 -0.94282,0.76344 -9.787988,5.96194 -10.164117,5.94926 -0.143894,-0.005 -0.941235,-0.74526 -1.724004,-1.48449 z"
         id="path234"
         inkscape:connector-curvature="0"
         sodipodi:nodetypes="ssscsccsccscccccccccc" />
    </g>
    <path
       style="fill:#5e6166;fill-opacity:1;stroke-width:0.1471612"
       d="m 146.13282,190.16778 c -2.13088,-0.30472 -4.02329,-1.2266 -5.64401,-2.74946 -1.35289,-1.27121 -2.31038,-2.74568 -2.84783,-4.3855 -0.39926,-1.21818 -0.42711,-1.45655 -0.42711,-3.65768 0,-2.20113 0.0278,-2.43949 0.42711,-3.65767 1.0856,-3.31225 4.02848,-6.06625 7.44602,-6.96812 1.30899,-0.34543 4.28248,-0.34554 5.59213,-1.4e-4 1.42807,0.37657 2.98581,1.22101 4.01423,2.17609 l 0.91567,0.85039 -0.9174,0.92627 -0.91739,0.92627 -0.6278,-0.61261 c -1.40679,-1.3728 -3.27662,-2.10457 -5.36601,-2.10003 -2.19821,0.005 -4.06635,0.78138 -5.65365,2.35025 -1.65284,1.63368 -2.38025,3.50068 -2.38025,6.10935 0,2.61417 0.71865,4.44196 2.40803,6.12454 3.06557,3.0532 8.03658,3.11114 11.22258,0.13079 l 0.9299,-0.86988 0.94532,0.9614 0.94532,0.96139 -0.83222,0.76071 c -2.46615,2.25425 -5.74703,3.22212 -9.23264,2.72368 z m 16.9165,-0.0581 c -1.40143,-0.30388 -2.47235,-0.88894 -3.46827,-1.89477 -1.53957,-1.55487 -2.13251,-3.0921 -2.13251,-5.52867 0,-0.79181 0.0989,-1.78941 0.22559,-2.27585 0.60037,-2.30498 2.28019,-4.12654 4.56903,-4.95457 1.22833,-0.44436 3.73984,-0.44874 4.95463,-0.009 1.74052,0.63058 3.25129,1.94738 4.02212,3.50572 0.57191,1.15616 0.7941,2.20079 0.7941,3.73333 0,2.37816 -0.63666,4.03032 -2.12761,5.52128 -1.04119,1.04119 -2.07403,1.59841 -3.53717,1.90833 -1.25086,0.26497 -2.05648,0.26346 -3.29991,-0.007 z m 3.6209,-2.59368 c 3.76148,-1.76694 3.72192,-7.86414 -0.0629,-9.69918 -1.01485,-0.49203 -2.76752,-0.48832 -3.78354,0.008 -1.9636,0.95924 -3.01501,2.96317 -2.83103,5.39581 0.17152,2.26793 1.49832,4.01004 3.48214,4.57209 0.90484,0.25637 2.32171,0.13366 3.19534,-0.27672 z m 21.74131,2.60398 c -2.60692,-0.56716 -4.78065,-2.80179 -5.34147,-5.49109 -0.22688,-1.08797 -0.19906,-3.02051 0.0592,-4.1161 0.54844,-2.32619 2.28316,-4.30443 4.41887,-5.03923 1.71721,-0.59081 3.80177,-0.50813 5.43845,0.21568 0.93107,0.41176 2.25884,1.60203 2.77768,2.49002 0.51734,0.88539 0.9564,2.43807 1.06807,3.77713 l 0.0977,1.17134 h -5.68687 -5.68686 v 0.41477 c 0,1.51925 1.07791,3.12671 2.59874,3.87542 0.86616,0.4264 1.13419,0.48771 2.10339,0.4811 1.41527,-0.01 2.23828,-0.38714 3.24465,-1.48828 0.40465,-0.44274 0.73573,-0.86661 0.73573,-0.94193 0,-0.0753 0.53233,0.1307 1.18295,0.45782 l 1.18296,0.59479 -0.2632,0.46205 c -0.46686,0.81957 -1.7568,1.98689 -2.71629,2.45807 -1.67714,0.8236 -3.47262,1.05723 -5.21374,0.67844 z m 5.61199,-9.60436 c -0.11815,-0.64606 -0.64118,-1.5932 -1.13374,-2.05307 -0.69388,-0.64783 -1.72488,-0.98816 -2.99219,-0.98767 -1.26122,4.3e-4 -1.91024,0.23257 -2.84145,1.01613 -0.43779,0.36837 -1.35264,1.97754 -1.35264,2.37922 0,0.16028 0.78894,0.19723 4.21047,0.19723 h 4.21047 z m -63.65263,5.11384 -2.84167,-4.26767 h -1.52239 -1.52239 v 4.19409 4.1941 h -1.32445 -1.32445 v -10.44845 -10.44844 l 3.56865,0.003 c 1.96277,0.002 4.03222,0.0685 4.59879,0.14876 2.75075,0.38942 4.95682,2.50121 5.38404,5.15391 0.4716,2.92844 -1.36253,5.79752 -4.31712,6.75314 -0.30352,0.0982 -0.55186,0.24456 -0.55186,0.32531 0,0.0807 1.26604,1.97788 2.8134,4.21582 1.54737,2.23796 2.84581,4.15343 2.88539,4.2566 0.0555,0.14465 -0.28017,0.1876 -1.46614,0.1876 h -1.53814 z m -0.11696,-6.99814 c 2.82593,-0.96289 3.4177,-4.68244 1.03299,-6.49277 -0.90411,-0.68636 -1.42494,-0.78198 -4.26395,-0.7829 l -2.53853,-5.6e-4 v 3.75262 3.7526 h 2.5491 c 1.9194,0 2.71494,-0.0565 3.22039,-0.22872 z m -28.98254,10.93471 c 0.0384,-0.10117 1.81036,-4.80298 3.93757,-10.44845 l 3.86765,-10.26449 1.48635,0.002 1.48635,0.002 3.74446,9.96828 c 2.05945,5.48256 3.83179,10.1835 3.93854,10.44656 l 0.19408,0.47827 h -1.44499 -1.445 l -0.71013,-2.02347 c -0.39056,-1.11291 -0.83864,-2.37113 -0.99571,-2.79605 l -0.28558,-0.77262 h -4.46727 -4.46727 l -0.28903,0.7726 c -0.15895,0.42493 -0.61071,1.68233 -1.00391,2.79421 l -0.71489,2.02163 -1.45057,0.002 c -1.10021,0.002 -1.43368,-0.0426 -1.38065,-0.1821 z m 12.7646,-7.98241 c 0,-0.11527 -3.25668,-9.10291 -3.37999,-9.32793 -0.0611,-0.11157 -0.14683,-0.14468 -0.19043,-0.0735 -0.0436,0.0711 -0.77518,2.04973 -1.62572,4.39695 -0.85053,2.34723 -1.61705,4.44979 -1.70337,4.67236 l -0.15694,0.4047 h 3.52823 c 1.94052,0 3.52822,-0.0327 3.52822,-0.0725 z m 60.04177,1.02904 v -7.13731 h 1.25087 1.25088 v 1.17728 c 0,0.64751 0.0497,1.17711 0.11036,1.17689 0.0607,-1.4e-4 0.24282,-0.24643 0.4047,-0.54714 0.35759,-0.66429 1.53172,-1.57688 2.41758,-1.87907 0.72948,-0.24884 2.44613,-0.29612 3.00714,-0.0828 l 0.36683,0.13947 -0.38557,1.17612 -0.38556,1.17611 -1.18576,-0.0241 c -1.44794,-0.0293 -2.28385,0.31805 -3.15973,1.3131 -0.98889,1.12343 -1.04283,1.45112 -1.04283,6.33366 v 4.31504 h -1.32446 -1.32445 z"
       id="path291"
       inkscape:connector-curvature="0"
       sodipodi:nodetypes="cccscccccccsccssccccccccssccccscccccccsccccccccscccscccsscssccccssscccccccccccccsccsccsccccccccscccscccsccccsccccccccccscssccssccccscccccccccscccc" />
  </g>
</svg>
