<?xml version="1.0" encoding="UTF-8" standalone="no"?>
<svg xmlns="http://www.w3.org/2000/svg" width="630.94562" height="590.83252">
  <defs>
    <clipPath id="b" clipPathUnits="userSpaceOnUse">
      <path d="M0 1090.667h612V0H0v1090.667z"/>
    </clipPath>
    <clipPath id="c" clipPathUnits="userSpaceOnUse">
      <path d="M160.801 1054.46H432.99V882.003H160.801v172.457z"/>
    </clipPath>
    <clipPath id="d" clipPathUnits="userSpaceOnUse">
      <path d="M107.76 1036.47h158.893V929.714H107.76v106.756z"/>
    </clipPath>
    <clipPath id="e" clipPathUnits="userSpaceOnUse">
      <path d="M26.4375 1007.89H493.76V764.032H26.4375v243.858z"/>
    </clipPath>
    <clipPath id="f" clipPathUnits="userSpaceOnUse">
      <path d="M273.938 774.952h210.147v-95.281H273.938v95.281z"/>
    </clipPath>
    <clipPath id="g" clipPathUnits="userSpaceOnUse">
      <path d="M31.2983 985.162H79.603V786.525H31.2983v198.637z"/>
    </clipPath>
    <clipPath id="h" clipPathUnits="userSpaceOnUse">
      <path d="M23.0552 1075.55H226.595v-46.41H23.0552v46.41z"/>
    </clipPath>
    <clipPath id="i" clipPathUnits="userSpaceOnUse">
      <path d="M279.427 923.682H429.38V806.33H279.427v117.352z"/>
    </clipPath>
    <clipPath id="j" clipPathUnits="userSpaceOnUse">
      <path d="M128.13 835.578h26.543v-105H128.13v105z"/>
    </clipPath>
    <clipPath id="k" clipPathUnits="userSpaceOnUse">
      <path d="M213.16 781.584h78.444v-80.179H213.16v80.179z"/>
    </clipPath>
    <clipPath id="l" clipPathUnits="userSpaceOnUse">
      <path d="M86.3154 908.898H381.298V619.173H86.3154v289.725z"/>
    </clipPath>
    <clipPath id="m" clipPathUnits="userSpaceOnUse">
      <path d="M120.511 689.474h40.439v-73.733h-40.439v73.733z"/>
    </clipPath>
    <clipPath id="n" clipPathUnits="userSpaceOnUse">
      <path d="M415.58 953.875h92.88V779.06h-92.88v174.815z"/>
    </clipPath>
    <linearGradient id="a" x1="0" x2="1" y1="0" y2="0" gradientTransform="scale(-447.8083 447.8083) rotate(-73 1.22448585 1.61522274)" gradientUnits="userSpaceOnUse" spreadMethod="pad">
      <stop offset="0" stop-color="#b1dfff"/>
      <stop offset=".600006" stop-color="#0fabff"/>
      <stop offset="1" stop-color="#0089cc"/>
    </linearGradient>
  </defs>
  <path fill="url(#a)" d="M24.548 1010.156c.596-.978 1.042-1.477 1.042-1.477s90.627-382.257 97.767-385.582c9.132-4.254 103.874 33.179 193.744 70.611 90.085 37.522 175.273 75.045 164.43 70.581l13.781 10.037 1.501 1.462c22.942 13.862 9.043 56.704 9.043 56.704l-97.422 130.221-175.825 95.228-172.047 17.85c-48.803-36.498-39.627-59.748-36.014-65.635" transform="matrix(1.25 0 0 -1.25 -16.699088 1356.39162)"/>
  <g clip-path="url(#b)" transform="matrix(1.25 0 0 -1.25 -16.699088 1356.39162)">
    <g clip-path="url(#c)" opacity=".75">
      <path fill="#fff" d="m236.0601 1054.4551-75.259-11.844 115.531-106.298 156.658-54.31-25.768 81.568-171.162 90.884z"/>
    </g>
    <g clip-path="url(#d)" opacity=".75">
      <path fill="#fff" d="m151.9956 1036.4688-44.236-86.497 158.893-20.258-114.657 106.755z"/>
    </g>
    <g clip-path="url(#e)" opacity=".78999299">
      <path fill="#b5def6" d="M493.7598 776.0391s-163.448 22.99-246.38 67.796c-82.926 44.812-103.032 60.428-220.942 164.057l5.9-24.781s106.193-105.01 183.766-142.429c77.575-37.42 185.151-66.636 266.149-76.65l11.507 12.007z"/>
    </g>
    <g clip-path="url(#f)" opacity=".60000598">
      <path fill="#b5def6" d="M427.8623 774.9521c9.036-.769 8.354-1.114 56.223-10.354l-210.147-84.927 153.924 95.281z"/>
    </g>
    <g clip-path="url(#g)" opacity=".60000598">
      <path fill="#b5def6" d="M72.0361 948.4395c-2.839 5.854-40.738 36.722-40.738 36.722l48.305-198.636"/>
    </g>
    <g clip-path="url(#h)" opacity=".75">
      <path fill="#fff" d="m226.5947 1057.5327-165.071 18.018s-33.538-23.621-38.469-46.414l203.54 28.396z"/>
    </g>
    <g clip-path="url(#i)" opacity=".75">
      <path fill="#fff" d="m429.3799 871.9478-149.953 51.734 92.006-117.352 57.947 65.618z"/>
    </g>
    <g clip-path="url(#j)" opacity=".46000701">
      <path fill="#fff" d="m154.6733 835.5776-26.543-80.113 4.933-24.887 21.61 105z"/>
    </g>
    <g clip-path="url(#k)" opacity=".35000604">
      <path fill="#fff" d="m291.6035 781.584-78.443-80.179 15.509 3.761 62.934 76.418z"/>
    </g>
    <g clip-path="url(#l)" opacity=".80000299">
      <path fill="#b5def6" d="M381.2881 753.5664c-1.525 2.578-207.802-84.28-207.802-84.28l26.511 27.74 23.207 113.596-.078-.08.037.169-80.609-83.331-7.91-37.553s-44.889 219.273-47.879 219.071c-2.991-.198 9.936-197.083 9.936-197.083s25.212-90.83 25.55-91.532l-.369-.691c.212-.046.422-.063.621-.04.085-.129.174-.262.292-.38l.313.59c.764.117 89.956 30.637 89.956 30.637s169.748 100.59 168.224 103.167"/>
    </g>
    <path fill="#fff" d="M229.5801 1038.4639c-15.76 2.611-29.876-3.352-31.525-13.315-1.579-9.531 8.837-19.254 23.542-22.365.186-4.086 4.978-8.018 11.452-9.089 7.061-1.171 13.382 1.499 14.122 5.961.292 1.756-.351 3.517-1.632 5.091 5.22 2.438 8.813 6.238 9.59 10.954 1.655 9.965-9.79 20.156-25.549 22.763"/>
    <path fill="#0988c9" d="M27.9131 986.1035s23.08-21.809 47.215-42.748c24.139-20.94-46.274 32.904-48.691 37.025"/>
    <g clip-path="url(#m)" opacity=".80000299">
      <path fill="#fff" d="m130.8423 615.7412 22.81 34.131-17.027-19.97 24.325 59.571-33.999-61.555-2.668 48.777-3.772-60.436 10.331-.518z"/>
    </g>
    <path fill="#0988c9" d="M61.9531 1085.1133c-2.251 0-4.271-.623-6.005-1.85-22.572-16.048-36.33-32.553-40.909-49.067-4.07-14.68.351-25.281 1.804-28.764.026-.061.05-.12.073-.175 2.202-9.575 24.165-102.033 46.464-192.829 13.567-55.244 24.702-99.483 33.095-131.49 4.975-18.971 9.02-33.763 12.025-43.967 5.33-18.099 6.95-21.399 11.555-23.541 1.398-.651 2.938-.983 4.568-.983 3.918 0 11.21 0 186.363 71.06 74.253 30.124 172.188 70.533 174.606 71.929 2.159 1.246 6.883 5.252 14.048 11.911 10.459 8.116 16.735 21.924 18.16 39.979 1.049 13.296-.79 24.881-1.542 27.377-.633 2.101-.633 2.101-16.93 23.947-8.101 10.859-19.368 25.908-33.487 44.727-24.034 32.035-48.336 64.333-48.579 64.655l-1.328 1.765-1.949 1.035-178.171 94.697-1.665.884-1.873.214c-27.094 3.087-162.637 18.486-170.323 18.486m0-9.937c7.511 0 169.198-18.422 169.198-18.422l178.171-94.696s97.048-128.979 97.422-130.22c.809-2.685 6.766-41.631-13.521-56.89 0 0-10.27-9.563-12.598-10.906-2.302-1.329-341.362-141.658-356.002-141.658-.169 0-.296.018-.378.056-7.14 3.32-96.845 381.106-97.768 385.584-.586 2.842-18.042 29.266 35.212 67.129.022.016.111.023.264.023"/>
    <g clip-path="url(#n)" opacity=".75">
      <path fill="#fff" d="m415.5801 953.8745 90.854-121.284s8.269-36.543-8.607-53.531l-82.247 174.815z"/>
    </g>
    <path fill="#0988c9" d="M484.085 764.0322s-43.743 4.662-66.581 10.92c-22.843 6.257 20.199-9.314 63.693-13.893"/>
    <path fill="#0e89cb" d="M120.2432 628.8184c2.207 3.001-.022-7.418 7.543-5.571 7.564 1.847-4.215-5.152-4.714-5.109-.497.044-5.802 3.959-5.821 4.462-.018.504.784 3.218 2.992 6.218"/>
  </g>
</svg>