<?xml version="1.0" encoding="UTF-8" standalone="no"?>
<svg
   xmlns:dc="http://purl.org/dc/elements/1.1/"
   xmlns:cc="http://creativecommons.org/ns#"
   xmlns:rdf="http://www.w3.org/1999/02/22-rdf-syntax-ns#"
   xmlns:svg="http://www.w3.org/2000/svg"
   xmlns="http://www.w3.org/2000/svg"
   xmlns:sodipodi="http://sodipodi.sourceforge.net/DTD/sodipodi-0.dtd"
   xmlns:inkscape="http://www.inkscape.org/namespaces/inkscape"
   id="content"
   viewBox="64 0 630 140"
   version="1.1"
   sodipodi:docname="Google org logo.svg"
   inkscape:version="0.92.1 r15371"
   width="630"
   height="140">
  <metadata
     id="metadata4506">
    <rdf:RDF>
      <cc:Work
         rdf:about="">
        <dc:format>image/svg+xml</dc:format>
        <dc:type
           rdf:resource="http://purl.org/dc/dcmitype/StillImage" />
        <dc:title></dc:title>
      </cc:Work>
    </rdf:RDF>
  </metadata>
  <defs
     id="defs4504" />
  <sodipodi:namedview
     pagecolor="#ffffff"
     bordercolor="#666666"
     borderopacity="1"
     objecttolerance="10"
     gridtolerance="10"
     guidetolerance="10"
     inkscape:pageopacity="0"
     inkscape:pageshadow="2"
     inkscape:window-width="1920"
     inkscape:window-height="1017"
     id="namedview4502"
     showgrid="false"
     inkscape:showpageshadow="false"
     borderlayer="true"
     inkscape:zoom="2.2857143"
     inkscape:cx="315"
     inkscape:cy="70"
     inkscape:window-x="-8"
     inkscape:window-y="-8"
     inkscape:window-maximized="1"
     inkscape:current-layer="content"
     fit-margin-top="0"
     fit-margin-left="0"
     fit-margin-right="0"
     fit-margin-bottom="0" />
  <style
     id="style4485">.st0{fill:#4285f4}.st1{fill:#ea4335}.st2{fill:#fbbc05}.st3{fill:#34a853}.st4{fill:#757575}</style>
  <path
     class="st0"
     d="m 64.55,54.85 c 0,-28.9 24.3,-52.5000004 53.3,-52.5000004 16,0 27.4,6.3000001 36,14.5000004 l -10.1,10.1 c -6.1,-5.8 -14.5,-10.2 -25.9,-10.2 -21.1,0 -37.6,17 -37.6,38.1 0,21.1 16.5,38.1 37.6,38.1 13.7,0 21.5,-5.5 26.5,-10.5 4.1,-4.1 6.8,-10 7.8,-18 h -34.3 v -14.3 h 48.3 c 0.5,2.6 0.8,5.6 0.8,9 0,10.8 -2.9,24.1 -12.4,33.5 -9.2,9.6 -21,14.7 -36.6,14.7 -29.1,-0.1 -53.4,-23.6 -53.4,-52.5 z"
     id="path4487"
     style="fill:#4285f4;fill-opacity:1"
     inkscape:connector-curvature="0" />
  <path
     class="st1"
     d="m 205.85,39.75 c -18.7,0 -33.9,14.2 -33.9,33.8 0,19.5 15.2,33.8 33.9,33.8 18.7,0 33.9,-14.3 33.9,-33.8 0,-19.6 -15.2,-33.8 -33.9,-33.8 z m 0,54.2 c -10.2,0 -19.1,-8.4 -19.1,-20.5 0,-12.2 8.8,-20.5 19.1,-20.5 10.2,0 19.1,8.3 19.1,20.5 0,12.1 -8.9,20.5 -19.1,20.5 z"
     id="path4489"
     style="fill:#ea4335;fill-opacity:1"
     inkscape:connector-curvature="0" />
  <path
     class="st2"
     d="m 279.85,39.75 c -18.7,0 -33.9,14.2 -33.9,33.8 0,19.5 15.2,33.8 33.9,33.8 18.7,0 33.9,-14.3 33.9,-33.8 0,-19.6 -15.2,-33.8 -33.9,-33.8 z m 0,54.2 c -10.2,0 -19.1,-8.4 -19.1,-20.5 0,-12.2 8.8,-20.5 19.1,-20.5 10.3,0 19.1,8.3 19.1,20.5 0,12.1 -8.9,20.5 -19.1,20.5 z"
     id="path4491"
     style="fill:#fbbc05;fill-opacity:1"
     inkscape:connector-curvature="0" />
  <path
     class="st0"
     d="m 370.65,41.75 v 5.5 h -0.5 c -3.3,-4 -9.7,-7.6 -17.8,-7.6 -16.9,0 -32.4,14.8 -32.4,33.9 0,18.9 15.5,33.7 32.4,33.7 8.1,0 14.5,-3.6 17.8,-7.699997 h 0.5 V 104.45 c 0,12.9 -6.9,19.8 -18,19.8 -9.1,0 -14.7,-6.5 -17,-12 l -12.9,5.4 c 3.7,9 13.6,20 30,20 17.4,0 32.1,-10.2 32.1,-35.2 v -60.7 z m -17,52.2 c -10.2,0 -18.8,-8.6 -18.8,-20.4 0,-11.9 8.6,-20.6 18.8,-20.6 10.1,0 18,8.7 18,20.6 0.1,11.9 -7.9,20.4 -18,20.4 z"
     id="path4493"
     style="fill:#4285f4;fill-opacity:1"
     inkscape:connector-curvature="0" />
  <path
     class="st3"
     d="m 395.05,5.9499996 h 14.8 V 105.25 h -14.8 z"
     id="path4495"
     style="fill:#34a853;fill-opacity:1"
     inkscape:connector-curvature="0" />
  <path
     class="st1"
     d="m 450.55,93.95 c -7.6,0 -12.9,-3.5 -16.4,-10.2 l 45.2,-18.7 -1.5,-3.8 c -2.8,-7.6 -11.4,-21.5 -28.9,-21.5 -17.4,0 -31.9,13.7 -31.9,33.8 0,18.9 14.3,33.8 33.5,33.8 15.5,0 24.4,-9.499997 28.2,-15 l -11.5,-7.7 c -3.9,5.6 -9.1,9.3 -16.7,9.3 z m -1.1,-41.2 c 5.9,0 10.9,2.9 12.5,7.2 l -30.2,12.5 c -0.4,-13 10.1,-19.7 17.7,-19.7 z"
     id="path4497"
     style="fill:#ea4335;fill-opacity:1"
     inkscape:connector-curvature="0" />
  <path
     class="st4"
     d="m 488.95,97.35 c 0,-4.9 3.8,-8.7 8.7,-8.7 4.9,0 8.7,3.8 8.7,8.7 0,4.9 -3.8,8.7 -8.7,8.7 -4.9,0 -8.7,-3.9 -8.7,-8.7 z m 91.7,-23.5 c 0,19.1 -13.4,33.4 -32.3,33.4 -18.9,0 -32.3,-14.3 -32.3,-33.4 0,-19.1 13.4,-33.4 32.3,-33.4 18.9,0 32.3,14.4 32.3,33.4 z m -11.8,0 c 0,-14.3 -10,-22.7 -20.5,-22.7 -10.5,0 -20.5,8.3 -20.5,22.7 0,14.4 10,22.7 20.5,22.7 10.5,0 20.5,-8.3 20.5,-22.7 z m 21.3,31.4 v -62.7 h 11.3 v 10.2 h 0.5 c 2.6,-7.2 11.6,-11.8 18.2,-11.8 3.8,0 6.4,0.5 8.8,1.5 l -4.5,11 c -1.7,-0.6 -3.7,-0.9 -6.3,-0.9 -8.1,0 -16.3,6.8 -16.3,18.3 v 34.4 z m 42.8,11.4 10.8,-4.5 c 2.3,6.7 9.1,12 17.5,12 13.1,0 20.9,-8.4 20.9,-21.6 v -6 h -0.5 c -3.8,5.8 -11.4,10.8 -21.4,10.8 -16,0 -29.8,-14.2 -29.8,-33.4 0,-19.2 13.8,-33.4 29.8,-33.4 10,0 17.5,5 21.4,10.8 h 0.5 v -8.7 h 11.3 v 59.5 c 0,22.8 -15.6,32.9 -32.1,32.9 -16.5,0 -25.2,-10.9 -28.4,-18.4 z m 49.2,-42.8 c 0,-14.3 -9.5,-22.7 -20,-22.7 -10.5,0 -20,8.6 -20,22.7 0,14.1 9.5,22.7 20,22.7 10.5,0 20,-8.3 20,-22.7 z"
     id="path4499"
     style="fill:#757575;fill-opacity:1"
     inkscape:connector-curvature="0" />
</svg>
